<?xml version="1.0" encoding="iso-8859-1"?>
<!-- Generator: Adobe Illustrator 21.0.0, SVG Export Plug-In . SVG Version: 6.00 Build 0)  -->
<svg version="1.2" baseProfile="tiny" id="Layer_1" xmlns="http://www.w3.org/2000/svg" xmlns:xlink="http://www.w3.org/1999/xlink"
	 x="0px" y="0px" viewBox="0 0 117.2 93.1" xml:space="preserve">
<g>
	<path fill="#D3BCA1" d="M2.2,0C2,0.8,1.8,1.6,1.5,2.4c-0.9,2.5-1,5.3-1.5,8c1,2.9,2.1,5.8,3.1,8.8l0,0c0,1.5,0,3,0,4.5
		c-0.5,0.3-0.5,0.7,0,1c0,1.5,0,3,0,4.5c-1.8,2.1,1,2.8,1.3,4.2l0,0C3.2,40,5.8,56.5,1.8,62.1l0,0C1.8,69,1.7,76,1.7,82.9
		c0.1,0.6,0.1,1.3,0.2,1.9c-0.1,0.5-0.1,0.9-0.2,1.4c1.4,0.1,2.1,0.9,2.2,2.2c0.7,0,1.4,0,2.1,0c2.9-0.3,4.8,1.6,6.7,3.3
		c1.8,0.1,3.8-0.2,5.4,0.4c9.2,3.3,19.4-3.5,28.5,0.8c6.2-4,12.5-7.1,18.7-5.6c2.3,0.5,5.4-1.7,6.7,2.1c0.1,0,0.1,0,0.2,0v0.4
		c11.9,0.7,2.7-1.8,14.6-1.3c0.6,0,5.7,1.5,7.4-0.1c0-0.1,0-0.1,0.1-0.2c1.5-0.1,3-0.5,4.2,2.1c1.1,0,2.2,0,3.3,0c0-0.6,0-1.1,0-1.7
		c4.6,0.1,6-5,9.9-6.1c1.1-0.3,1.9-1.5,3.3-1.5c0.7-2.5,1.4-5,1.1-7.7c-2.2-24.6-3.1-32.4,0.2-55.9c0.1-0.7,0.9-8.5,0.9-9.2
		c-0.6-2.8-2-5.5-2.5-8.3H2.2V0z"/>
</g>
</svg>
