<?xml version="1.0" encoding="utf-8"?>
<!-- Generator: Adobe Illustrator 17.1.0, SVG Export Plug-In . SVG Version: 6.00 Build 0)  -->
<!DOCTYPE svg PUBLIC "-//W3C//DTD SVG 1.1//EN" "http://www.w3.org/Graphics/SVG/1.1/DTD/svg11.dtd">
<svg version="1.1" id="Layer_1" xmlns="http://www.w3.org/2000/svg" xmlns:xlink="http://www.w3.org/1999/xlink" x="0px" y="0px"
	 viewBox="0 0 667.2 152.7" enable-background="new 0 0 667.2 152.7" xml:space="preserve">
<path fill="#D3BCA1" d="M5.5,0c0,0,0,0-0.2,15.4c0,3.8-1.4,7.5-2.1,11.3c1.5,4.1,3,8.3,4.4,12.4c0,0,0,0,0,0c0,2.1,0,4.3,0,6.4
	c-0.7,0.5-0.6,1,0,1.4c0,2.1,0,4.3,0,6.4c-2.5,3,1.4,3.9,1.9,6l0,0c-1.7,9.4-3.6,32.6-9.3,40.5l0,0c-0.1,9.8-0.1,19.6-0.2,29.4
	c0.1,0.9,0.2,1.8,0.3,2.7c-0.1,0.6-0.2,1.3-0.2,1.9c1.9,0.1,3,1.2,3.1,3.1c1,0,1.9,0,2.9,0c4.1-0.4,6.8,2.2,9.5,4.7
	c2.6,0.2,5.3-0.3,7.6,0.6c13,4.7,27.5-4.9,40.2,1.1c8.8-5.6,17.6-10.1,26.4-7.9c3.2,0.8,7.7-2.3,9.4,3c4.1,0,8.3,0,12.4,0
	c2.3-5.5,7-3,10.5-2.6c3.7,0.5,11.5-2.7,11.2,1.1c4.7-1.1,9.3,3.9,14,0.1c0,0,0,0,0,0c0.5,0,0.9,0,1.4,0c-0.1,3.6,1.3,5.6,5.2,6.4
	c2.8,0.5,6.5,0.4,7.3,4.5c9.6-1.1,18.3,5.2,27.9,3.2c3.5,1.7,7.1,3.4,9.5-1.6c1.9-0.1,2.9-1.3,3.2-3.1c0.8,0,1.7,0,2.5,0v0
	c1.9,1.9,4.2,1.4,6.5,1.4c1,0,3-0.7,3.1,0c6.4-1.8,12.9-3.4,17.2-9.2c7.1-2.7,14.1-5.8,21,0.8c1.7,1.6,4.5,0.6,6.2-1.2
	c1.9-1.9,4.1-3,6.8-2.9c11.7,3.9,23.6,6.9,35.6,9.3c0-0.5,0-1,0-1.5c2.1,0.2,4.5-0.5,6.2,1.5c1.5,0,3.1,0,4.6,0
	c11.4-4.4,23.5-6.6,35.3-8.5c18.5-3,37.8-5.3,55.3,4.3c12,6.6,24.6,10,38.4,8.5c2.5-0.3,5.4,0.5,6.2-3.1c15.3,0,30.2-10.6,45.9-8.1
	c6.7,1.1,13.7,3.6,20.9,2.2c14.1-2.8,27.7-8.6,41.5-4.1c22.6,7.4,46,0.5,69,1.5c0.8,0,8.1,2.2,10.5-0.2c0-0.1,0-0.2,0.1-0.2
	c2.1-0.1,4.3-0.7,6,3c1.5,0,3.1,0,4.6,0c0-0.8,0-1.6,0-2.4c6.5,0.1,8.5-7.1,14-8.6c1.5-0.4,2.8-2.1,4.6-2.2c0.9-3.5,2-7.1,1.6-10.8
	c-0.5-34.7,1.1-54.3,1.5-89c0-1,0-2,0-3.1c-2.1-10.4-2.8-13.3-4.7-23.7"/>
</svg>
