<?xml version="1.0" encoding="iso-8859-1"?>
<!-- Generator: Adobe Illustrator 21.0.0, SVG Export Plug-In . SVG Version: 6.00 Build 0)  -->
<svg version="1.2" baseProfile="tiny" id="Layer_1" xmlns="http://www.w3.org/2000/svg" xmlns:xlink="http://www.w3.org/1999/xlink"
	 x="0px" y="0px" viewBox="0 0 337.355 181.051" xml:space="preserve">
<g>
	<path fill="#FFFFFF" d="M123.7,3.636c0.099-0.224,0.179-0.361,0.223-0.51c0.394-1.347,1.422-2.014,2.677-2.276
		c1.275-0.264,2.571-0.116,3.698,0.601c0.509,0.325,0.904,0.833,1.333,1.278c0.173,0.179,0.292,0.409,0.489,0.692
		c0.107-0.212,0.172-0.348,0.242-0.483c0.698-1.315,1.734-2.129,3.255-2.312c1.241-0.149,2.467-0.069,3.576,0.46
		c1.408,0.67,2.719,1.526,3.199,3.172c0.028,0.099,0.086,0.191,0.17,0.364c0.185-0.265,0.324-0.471,0.468-0.673
		c1.176-1.639,2.733-2.571,4.783-2.563c0.766,0.003,1.554-0.048,2.289,0.114c1.064,0.236,1.891,0.906,2.42,1.879
		c0.218,0.404,0.358,0.848,0.557,1.262c0.06,0.121,0.201,0.204,0.303,0.305c0.091-0.096,0.221-0.176,0.267-0.291
		c0.154-0.369,0.25-0.761,0.414-1.125c0.413-0.914,1.05-1.627,1.957-2.085c1.615-0.82,3.3-0.776,5.008-0.408
		c0.447,0.095,0.837,0.303,1.111,0.698c0.218,0.311,0.495,0.584,0.71,0.896c0.719,1.039,0.716,2.201,0.488,3.373
		c-0.503,2.609-1.915,4.652-4.03,6.206c-1.264,0.931-2.708,1.517-4.24,1.849c-1.546,0.336-3.094,0.683-4.657,0.92
		c-3.278,0.498-6.573,0.837-9.896,0.777c-1.278-0.023-2.559,0.049-3.832-0.016c-2.252-0.115-4.501-0.419-6.75-0.425
		c-2.233-0.004-4.372-0.555-6.562-0.8c-1.628-0.182-3.242-0.566-4.833-0.976c-1.41-0.364-2.679-1.077-3.721-2.107
		c-0.376-0.372-0.687-0.868-0.873-1.365c-0.366-0.988-0.669-2.005-0.914-3.029c-0.229-0.956-0.08-1.934,0.258-2.833
		c0.316-0.843,1.035-1.419,1.801-1.865c0.647-0.375,1.345-0.666,2.039-0.95c0.495-0.203,1.01-0.424,1.532-0.473
		c1.362-0.13,2.487,0.442,3.47,1.35C122.617,2.721,123.132,3.144,123.7,3.636"/>
	<path fill="#FFFFFF" d="M8.486,145.082c-2.14-0.317-4.224-0.824-6.11-1.94c-0.562-0.336-1.172-0.628-1.49-1.268
		c-0.531-1.075-1.033-2.143-0.848-3.407c0.203-1.375,0.651-2.591,1.987-3.235c1.046-0.502,2.162-0.675,3.319-0.449
		c0.549,0.108,1.098,0.22,1.65,0.312c0.772,0.132,1.298,0.576,1.647,1.26c0.023,0.048,0.063,0.091,0.129,0.182
		c0.62-1.157,1.128-2.4,2.69-2.465c1.341-0.054,2.586,0.095,3.272,1.512c0.118-0.087,0.204-0.136,0.273-0.204
		c0.761-0.73,1.659-1.076,2.704-0.876c0.923,0.176,1.848,0.371,2.741,0.651c1.017,0.322,1.509,1.101,1.603,2.159
		c0.063,0.713-0.093,1.364-0.363,2.019c-0.813,1.978-2.146,3.472-4.158,4.216c-1.845,0.683-3.705,1.372-5.696,1.54
		c-0.445,0.038-1.928,0.068-2.227,0.077C9.422,145.17,8.665,145.109,8.486,145.082"/>
	<path fill="#44413F" d="M293.256,159.015c3.599,3.383,7.032,6.615,10.469,9.837c1.127,1.057,2.301,2.053,3.375,3.178
		c0.197,0.204,0.185,1.087-0.023,1.324c-2.115,2.436-4.304,4.788-6.437,7.206c-0.605,0.684-0.859,0.662-1.489-0.115
		c-1.558-1.922-3.268-3.688-4.98-5.438c-1.859-1.905-3.788-3.717-6.05-5.924c0.12,2.48,0.104,4.475,0.337,6.432
		c0.453,3.833,0.51,3.798-2.786,3.926c-2.763,0.109-5.525,0.316-8.287,0.397c-0.286,0.009-0.823-0.531-0.844-0.852
		c-0.274-4.03-0.57-8.063-0.672-12.102c-0.164-6.466,0.289-12.958-0.863-19.376c-0.394-2.196-0.551-4.45-0.758-6.684
		c-0.023-0.248,0.331-0.766,0.526-0.778c1.381-0.083,2.765-0.04,4.147-0.09c2.493-0.094,4.983-0.239,7.475-0.329
		c1.297-0.048,1.149,1.104,1.203,2.049c0.141,2.435,0.271,4.871,0.42,7.549c1.816-1.614,3.355-3.12,5.017-4.428
		c2.798-2.205,5.663-4.299,8.535-6.378c0.23-0.166,0.892-0.002,1.063,0.259c1.612,2.443,3.168,4.939,4.706,7.444
		c0.08,0.129-0.069,0.6-0.225,0.738c-1.698,1.495-3.441,2.926-5.129,4.436c-1.757,1.569-3.447,3.235-5.202,4.807
		C295.688,157.084,294.53,157.969,293.256,159.015"/>
	<path fill="#44413F" d="M202.426,60.398c0.229,7.574,0.465,14.652,0.643,21.732c0.048,1.916,0.017,3.85-0.143,5.756
		c-0.174,2.087-1.777,1.598-2.602,1.635c-2.564,0.111-5.14,0.224-7.71,0.202c-1.006-0.009-1.248-0.314-1.242-1.457
		c0.026-3.815-0.083-8.571-0.099-12.388c-0.004-0.988-0.319-1.448-1.185-1.432c-2.249,0.043-1.828,0.052-4.076,0.102
		c-0.735,0.017-1.074,0.295-1.007,1.365c0.261,4.195,0.403,8.403,0.517,12.609c0.009,0.302-0.552,0.888-0.86,0.897
		c-2.309,0.071-4.621,0.041-6.932,0.02c-1.182-0.01-2.366-0.026-3.542-0.141c-0.242-0.024-0.641-0.498-0.644-0.767
		c-0.063-7.173-0.1-14.344-0.105-21.515c-0.002-5.227,0.033-10.455,0.117-15.68c0.006-0.363,0.551-1.023,0.845-1.023
		c4.617-0.002,5.977,0.121,10.593,0.116c0.913-0.001,1.352,0.252,1.4,1.303c0.203,4.385,0.461,8.769,0.581,13.157
		c0.027,1.007,5.009,0.7,5.022,0.382c0.198-4.472,0.34-9.888,0.555-14.358c0.012-0.274,0.507-0.735,0.783-0.738
		c2.804-0.052,5.609-0.054,8.411,0.017c0.285,0.007,0.8,0.579,0.802,0.89C202.554,54.034,202.474,57.927,202.426,60.398"/>
	<path fill="#44413F" d="M244.566,50.611c0,3.306-0.071,6.336,0.017,9.362c0.117,4.148-0.644,8.313-0.22,12.426
		c0.352,3.403,0.184,5.212,2.78,3.581c1.155-0.727,2.288-2.735,2.386-4.254c0.354-5.407,0.252-10.855,0.34-16.286
		c0.025-1.431,0.084-2.865,0.214-4.287c0.027-0.285,0.431-0.734,0.678-0.748c2.959-0.166,5.511-0.278,8.473-0.359
		c0.424-0.011,0.853,0.218,1.029,0.268c0,2.504,0.395,4.835,0.409,7.166c-0.07,3.966,0.337,5.612-0.325,9.843
		c0.051,1.561-0.561,5.794-0.289,7.347c0.244,1.394,3.505,5.224,4.441,5.938c2.345,1.792,2.36,2.065,0.429,4.463
		c-0.939,1.164-2.442,2.865-3.467,3.917c-0.302,0.311-1.193,0.344-1.519,0.059c-1.475-1.286-1.226-1.504-2.295-2.915
		c-0.233-0.073-1.279-2.48-2.407-2.223c-1.81,2.497-2.708,3.351-5.148,4.263c-4.109,1.538-4.576,2.162-8.812,0.458
		c-4.66-1.873-7.453-5.381-7.84-11.305c-0.41-6.275-0.299-12.521-0.757-18.792c-0.183-2.516-0.12-5.067-0.044-7.596
		c0.053-1.773,1.449-0.954,2.075-0.957c3.109-0.021,5.494,0.216,8.602,0.389C243.814,50.395,244.304,50.557,244.566,50.611"/>
	<path fill="#44413F" d="M274.546,16.704c1.6,0.24,3.235,0.359,4.819,0.755c1.791,0.45,2.716,2.093,3.37,3.907
		c1.114,3.083,1.417,6.332,1.407,9.639c-0.009,2.989,0.009,5.978,0.02,8.968c0.003,0.819-0.244,0.841-1.056,0.788
		c-1.683-0.109-3.372-0.105-5.051-0.261c-0.248-0.024-0.633-0.653-0.647-1.018c-0.111-3.1-0.136-5.769-0.223-8.871
		c-0.018-0.577-0.114-1.203-0.344-1.707c-0.19-0.42-0.629-0.961-0.951-0.955c-0.322,0.005-0.898,0.614-0.911,0.976
		c-0.131,3.67-0.209,6.91-0.2,10.583c0.002,0.84-0.046,1.052-0.832,1.012c-1.704-0.085-3.417-0.069-5.118,0.047
		c-0.969,0.066-1.333-0.083-1.349-1.377c-0.078-5.533-0.335-10.63-0.43-16.164c-0.055-3.28,0.171-6.566,0.084-9.844
		c-0.092-3.544-0.429-7.947-0.573-11.491c-0.016-0.386,0.529-1.127,0.84-1.146c1.716-0.107,3.449-0.157,5.151,0.047
		c0.456,0.054,1.134,1.035,1.181,1.643C274.081,6.837,274.3,12.316,274.546,16.704"/>
	<path fill="#44413F" d="M277.829,62.785c0.054,1.578,1.665,1.68,3.139,1.52c5.043-0.539,9.041,2.03,11.258,6.893
		c2.942,6.445,1.643,12.718-4.72,16.227c-3.128,1.725-6.407,1.542-9.658,1.742c-2.816,0.174-5.653,0.005-8.475-0.171
		c-0.514-0.031-1.268-0.727-1.429-1.298c-0.276-0.976-0.199-2.094-0.214-3.155c-0.023-1.59,0.08-3.184-0.018-4.767
		c-0.099-1.597,0.293-2.285,1.805-2.229c3.086,0.114,6.179,0.034,9.27,0.034c0.107,0,0.212,0.009,0.32,0.007
		c2.052-0.008,3.356-0.907,3.478-2.393c0.11-1.336-1.153-2.516-3.157-2.765c-1.253-0.157-2.542-0.276-3.786-0.112
		c-3.204,0.42-6.242-0.873-7.809-3.934c-1.803-3.519-2.527-7.574-1.665-11.624c0.541-2.551,2.663-4.522,4.909-5.03
		c2.68-0.608,5.437-0.842,8.172-1.04c3.376-0.243,6.765-0.295,10.149-0.394c0.238-0.007,0.689,0.299,0.686,0.451
		c-0.042,2.93-0.096,5.861-0.29,8.782c-0.02,0.285-0.954,0.644-1.485,0.703c-2.68,0.292-5.374,0.44-8.051,0.766
		C279.461,61.093,277.973,61.682,277.829,62.785"/>
	<path fill="#44413F" d="M325.786,138.436c1.801,0,3.603-0.029,5.405,0.03c0.298,0.009,0.834,0.385,0.841,0.608
		c0.079,2.839,0.096,5.68,0.095,8.521c-0.002,0.817-0.336,0.864-1.068,0.781c-2.459-0.276-4.986-1.125-7.382,0.111
		c-0.993,0.512-1.983,1.407-2.589,2.43c-0.886,1.492-0.01,3.144,1.692,3.587c1.876,0.491,3.901,0.596,5.608,1.5
		c3.976,2.105,5.938,2.412,6.266,8.616c0.123,2.343,0.156,4.78-0.271,7.048c-0.564,3.003-1.951,5.4-4.869,6.37
		c-4.466,1.48-8.938,2.237-13.586,1.594c-1.036-0.143-2.127,0.223-3.195,0.34c-0.721,0.079-1.089-0.175-1.104-1.144
		c-0.048-3.192-0.197-6.379-0.245-9.571c-0.005-0.261,0.444-0.755,0.691-0.762c1.682-0.055,3.375,0.123,5.046-0.03
		c2.372-0.214,4.733-0.617,7.092-0.997c1.331-0.216,1.787-1.458,1.596-2.68c-0.153-0.975-0.721-2.266-1.42-2.647
		c-1.773-0.968-3.745-1.449-5.604-2.228c-2.551-1.068-5.185-2.036-6.271-5.395c-1.284-3.967-0.263-7.485,1.615-10.787
		c2.077-3.65,5.337-4.683,8.869-5.025c0.928-0.09,1.853-0.233,2.779-0.353L325.786,138.436z"/>
	<path fill="#44413F" d="M300.628,17.387c1.184-0.067,5.414-0.415,6.513-0.141c2.914,0.72,4.052,1.612,4.371,4.707
		c0.468,4.526,0.543,9.105,0.776,13.664c0.066,1.304-0.032,2.21,0.189,3.477c0.266,1.533-0.332,1.739-1.4,1.659
		c-1.553-0.117-3.109-0.145-4.659-0.297c-0.225-0.023-0.583-0.503-0.596-0.79c-0.194-4.318-0.326-9.074-0.519-13.392
		c-1.743-1.016-2.873-1.232-3.575-0.19c-0.138,0.384-0.406,0.772-0.396,1.149c0.056,2.05,0.272,4.097,0.259,6.143
		c-0.015,2.143-0.22,4.718-0.379,6.855c-0.012,0.152-0.353,0.386-0.543,0.386c-1.484,0.007-2.969-0.015-4.453-0.082
		c-0.214-0.01-0.597-0.299-0.602-0.468c-0.086-3.3-0.144-7.035-0.168-10.335c-0.021-2.557-0.017-5.115,0.03-7.67
		c0.039-2.153,0.135-4.303,0.265-6.449c0.012-0.196,0.431-0.475,0.684-0.51c0.525-0.071,1.063,0.002,1.597,0.003
		C300.302,15.117,300.302,15.115,300.628,17.387"/>
	<path fill="#44413F" d="M321.51,130.893c-1.987,0-3.976,0.022-5.963-0.029c-0.233-0.007-0.656-0.422-0.659-0.654
		c-0.029-2.222-0.015-4.446,0.05-6.668c0.037-1.263,0.979-1.025,1.626-1.028c1.631-0.008,3.272,0.244,4.89,0.106
		c0.968-0.083,1.938-0.619,2.841-1.108c0.875-0.475,0.907-1.782,0.082-2.372c-0.794-0.57-1.619-1.137-2.496-1.495
		c-3.145-1.284-4.476-4.068-4.162-7.456c0.171-1.836,1.233-3.558,2.916-4.429c4.137-2.141,8.462-2.771,12.934-2.082
		c0.332,0.052,0.8,0.701,0.85,1.127c0.167,1.472,0.179,2.969,0.248,4.455c0.045,0.964-0.239,1.511-1.194,1.429
		c-0.913-0.076-1.858-0.181-2.744,0.005c-0.657,0.138-1.775,0.761-1.756,1.103c0.046,0.91,0.452,1.935,0.994,2.626
		c0.443,0.563,1.283,0.727,1.955,1.041c3.201,1.491,4.411,4.911,2.972,8.519c-0.532,1.335-0.888,3.031-1.809,3.832
		c-1.4,1.218-3.155,2.138-4.878,2.568c-2.168,0.543-4.454,0.465-6.689,0.655C321.515,130.99,321.513,130.941,321.51,130.893"/>
	<path fill="#44413F" d="M176.402,123.068c1.898-0.146,4.109-0.284,6.312-0.517c0.313-0.033,0.849-0.553,0.829-0.802
		c-0.037-0.494-0.325-1.301-0.622-1.375c-1.27-0.317-2.575-0.5-3.875-0.57c-2.554-0.138-4.439-2.609-4.919-5.464
		c-0.665-3.964,1.136-6.355,3.417-8.52c2.213-2.105,4.905-2.397,7.657-1.967c1.396,0.219,2.777,0.594,4.158,0.936
		c0.185,0.045,0.469,0.305,0.472,0.474c0.034,1.655,0.027,3.311,0.017,4.966c-0.006,1.493-1.032,1.466-1.885,1.551
		c-1.727,0.173-3.475,0.141-5.187,0.426c-0.614,0.102-1.143,0.873-1.712,1.339c0.646,0.487,1.261,1.312,1.948,1.398
		c1.925,0.247,3.874,0.074,5.657,1.283c2.329,1.58,3.078,4.056,3.023,6.907c-0.051,2.593-1.12,4.646-3.207,5.79
		c-2.775,1.522-5.661,2.364-8.801,1.956c-1.717-0.222-3.472-0.058-5.207-0.138c-0.262-0.012-0.724-0.398-0.731-0.624
		c-0.069-2.189-0.093-4.382-0.027-6.571c0.006-0.225,0.662-0.531,1.045-0.607C175.188,122.856,175.644,122.995,176.402,123.068"/>
	<path fill="#44413F" d="M231.379,35.713c0.113-7.042,0.334-14.085,0.302-21.127c-0.021-4.607,0.294-7.442,0.045-12.046
		c-0.099-1.871,0.274-2.192,1.853-2.048c1.753,0.161,2.776-0.05,4.536,0.028c0.287,0.014,0.783,0.555,0.795,0.871
		c0.223,6.181-0.141,10.595-0.153,16.779c-0.014,6.282-0.427,20.458-0.49,21.265c-0.071,0.913,0.131,1.901-1.34,1.333
		c-1.211-0.468-2.65-0.219-3.983-0.14c-1.031,0.061-1.542-0.244-1.477-1.574c0.053-1.108-0.039-2.224-0.065-3.335
		C231.394,35.717,231.386,35.716,231.379,35.713"/>
	<path fill="#44413F" d="M258.107,24.307c0.596,0.258,1.175,0.591,1.789,0.76c1.947,0.538,3.486,1.763,4.502,3.707
		c1.7,3.25,0.475,8.924-3.706,10.663c-3.087,1.286-6.206,1.6-9.405,1.106c-0.391-0.059-0.969-0.811-0.994-1.275
		c-0.091-1.607,0.002-3.232,0.086-4.846c0.009-0.178,0.408-0.444,0.641-0.468c1.745-0.171,3.499-0.245,5.24-0.451
		c0.597-0.071,1.253-0.297,1.724-0.698c0.438-0.372,1.025-1.226,0.905-1.588c-0.183-0.553-0.871-1.028-1.429-1.245
		c-1.615-0.627-3.395-0.842-4.881-1.723c-1.517-0.898-2.376-2.635-2.288-4.767c0.086-2.063,0.819-3.497,2.493-4.574
		c2.801-1.802,5.753-1.849,8.782-1.64c0.209,0.013,0.559,0.304,0.576,0.494c0.113,1.384,0.257,2.78,0.186,4.159
		c-0.048,0.912-0.544,1.493-1.545,1.448c-0.865-0.039-1.742,0.287-2.612,0.451C258.149,23.983,258.13,24.144,258.107,24.307"/>
	<path fill="#44413F" d="M219.578,106.868c1.9-2.085,4.153-3.064,6.539-3.175c1.975-0.092,4.042,0.413,6.072,1.385
		c2.747,1.313,3.727,4.009,3.958,6.967c0.326,4.243,0.237,9.407,0.337,13.676c0.021,0.88,0.069,1.761,0.153,2.637
		c0.269,2.822,0.069,3.053-2.441,2.732c-0.307-0.04-0.615-0.052-0.925-0.057c-3.612-0.063-2.575,0.316-2.914-3.651
		c-0.265-3.102,0.077-7.145-0.021-10.274c-0.111-3.624-2.93-6.539-6.429-5.143c-1.724,0.686-2.186,2.516-2.28,4.12
		c-0.223,3.812-0.144,8.094-0.065,11.918c0.068,3.171,0.147,3.144-2.531,3.171c-1.262,0.012-2.527-0.358-3.783-0.223
		c-1.235,0.133-1.712-0.128-1.697-1.847c0.042-5.122-0.223-10.247-0.294-15.372c-0.046-3.371,0.024-5.866,0.086-9.238
		c0.003-0.199,0.381-0.551,0.585-0.551c1.63-0.006,3.263,0.029,4.89,0.135c0.224,0.015,0.572,0.464,0.606,0.753
		C219.539,105.762,219.534,105.834,219.578,106.868"/>
	<path fill="#44413F" d="M310.81,50.303c0,2.26,0.041,4.251-0.041,6.234c-0.015,0.34-0.569,0.932-0.868,0.928
		c-2.382-0.036-4.765-0.179-7.147-0.313c-1.037-0.057-1.731,0.228-1.644,1.672c0.062,1.027,0.012,3.119,0.012,4.482
		c2.783-0.252,4,0.415,6.632,0.061c1.268-0.172,1.729,0.204,1.647,1.69c-0.096,1.776,0.014,3.572-0.137,5.339
		c-0.039,0.44-0.716,1.125-1.128,1.154c-2.408,0.176-3.389,0.169-5.8,0.299c-0.248,0.014-0.678,0.532-0.683,0.824
		c-0.05,3.088-0.03,5.707-0.03,8.505c2.93,0,7.516-0.023,10.471,0.01c1.048,0.012,2.476,0.109,3.512,0.28
		c0.266,0.043,0.67,0.501,0.687,0.793c0.122,2.172-0.187,3.881-0.185,6.058c0,0.317-0.433,0.888-0.69,0.907
		c-4.205,0.315-10.045-0.365-14.256-0.128c-1.51,0.085-3.029,0.007-4.536,0.13c-1.139,0.093-1.627-0.485-1.646-1.701
		c-0.129-7.919-0.225-15.839-0.374-23.758c-0.075-3.964-0.161-7.931-0.414-11.883c-0.082-1.275,0.442-1.5,1.173-1.517
		c4.872-0.116,9.744-0.178,14.616-0.237C310.363,50.132,310.748,50.289,310.81,50.303"/>
	<path fill="#44413F" d="M200.279,38.296c-1.319,1.675-2.073,2.511-3.69,2.465c-1.576-0.043-3.658,0.294-5.21,0.025
		c-2.87-0.496-3.908-3.08-4.569-6.166c-0.391-1.822-0.844-3.653-0.979-5.509c-0.17-2.306-0.307-10.58,0.508-11.589
		c0.833-0.56,3.896-0.282,6.093-0.2c0.184,0.007,0.506,0.75,0.495,1.142c-0.057,1.982-0.242,7.854-0.303,9.836
		c-0.029,0.966,0.015,1.963,0.197,2.903c0.384,1.981,1.519,3.249,2.91,1.926c1.543-1.467,2.133-3.456,2.096-5.693
		c-0.022-1.301-0.169-7.36-0.252-8.661c-0.055-0.906,0.188-1.403,1.111-1.296c1.313,0.152,3.448-0.273,4.75-0.052
		c0.718,0.076,0.718,0.457,0.812,3.685c0.031,2.237,0.037,3.073-0.176,6.437c-0.1,1.579-0.504,3.606-1.016,5.5
		c1.383,0.793,1.928,1.119,2.643,1.343c1.39,0.413,1.182,1.13,0.693,2.127c-0.555,1.135-1.11,2.274-1.724,3.366
		c-0.446,0.798-0.985,1.151-1.774,0.356C202.312,39.649,201.027,38.85,200.279,38.296"/>
	<path fill="#44413F" d="M275.435,107.893c2.927-3.418,6.654-4.747,10.817-4.671c1.211,0.023,2.397,0.005,2.002,2.205
		c-0.227,1.263-0.01,2.644,0.072,3.966c0.058,0.914-0.034,1.312-1.019,1.531c-2.26,0.499-4.543,1.116-6.667,2.11
		c-1.766,0.826-3.984,4.177-4.39,6.38c-0.745,4.026,0.416,6.566-0.248,10.609c-0.163,0.995-0.36,1.507-1.362,1.415
		c-1.532-0.142-3.838-0.034-5.367-0.217c-0.37-0.045-0.961-0.809-0.964-1.247c-0.037-4.692,0.036-9.381,0.063-14.071
		c0.02-3.58-0.024-7.16,0.082-10.738c0.013-0.489,0.666-1.13,1.147-1.372c0.39-0.195,0.968,0.122,1.464,0.176
		c1.17,0.128,2.56-0.164,3.441,0.477C275.15,104.916,275.125,106.599,275.435,107.893"/>
	<path fill="#44413F" d="M321.45,89.258c-0.381-0.004-1.076-0.375-1.1-0.6c-0.239-2.05-0.216-4.903,0.101-5.906
		c0.202-0.691,0.63-0.857,1.275-0.873c3.165-0.075,7.853,0.072,11.01-0.059c1.778-0.074,2.039,0.503,2.044,1.497
		c0.007,1.778,0.116,3.558,0.072,5.333c-0.008,0.254-0.603,0.686-0.969,0.703C332.616,89.413,323.813,89.277,321.45,89.258"/>
	<path fill="#44413F" d="M311.788,99.882c0.471-0.978,1.123-2.278,1.912-2.52c1.284-0.39,2.072,0.959,2.106,2.326
		c0.054,2.3-0.063,4.62-0.313,6.903c-0.063,0.579-0.871,1.429-1.374,1.465c-0.578,0.041-1.513-0.527-1.734-1.111
		C311.839,105.507,311.471,100.539,311.788,99.882"/>
	<path fill="#44413F" d="M285.968,31.981c0-3.991-0.027-8.818,0.043-13.644c0.006-0.434,0.644-1.237,0.967-1.223
		c1.618,0.07,3.234,0.322,4.838,0.606c0.235,0.042,0.563,0.579,0.575,0.902c0.162,4.036,0.25,8.079,0.407,12.117
		c0.117,3.018,0.339,6.029,0.426,9.046c0.011,0.33-0.542,0.969-0.839,0.974c-1.666,0.031-3.336-0.048-4.998-0.195
		c-0.299-0.025-0.781-0.517-0.815-0.842C286.338,37.433,286.199,35.128,285.968,31.981"/>
	<path fill="#44413F" d="M288.704,14.918c-1.489,0.004-2.542-1.146-2.539-2.768c0.001-1.341,1.172-2.999,2.097-2.61
		c1.036,0.436,2.405,1.288,2.683,2.302C291.4,13.498,290.091,14.915,288.704,14.918"/>
	<path fill="#44413F" d="M247.798,20.652c0.134,5.996,0.269,11.99,0.401,17.987c0.018,0.896,0.017,1.662-1.14,1.654
		c-1.124-0.009-2.245,0.357-3.376,0.463c-1.248,0.117-1.79-0.85-1.636-2.048c0.833-6.55-0.256-13.027-0.48-19.533
		c-0.048-1.416,0.077-2.19,1.605-1.851c0.931,0.208,1.949-0.044,2.923-0.152c0.967-0.107,1.817-0.199,1.549,1.457
		C247.537,19.283,247.741,20.652,247.798,20.652"/>
	<path fill="#44413F" d="M244.528,15.179c-1.215-0.018-2.354-1.122-2.357-2.283c-0.003-1.897,1.122-3.397,2.561-3.413
		c1.077-0.012,2.351,1.556,2.318,2.851C247.01,13.823,245.792,15.198,244.528,15.179"/>
	<path fill="#44413F" d="M196.641,157.567c0.978,0.512,2.483,1.213,3.908,2.06c2.873,1.71,3.586,4.745,4.248,7.644
		c0.368,1.614,0.054,3.38,0.037,5.077c-0.032,3.169-2.3,4.718-4.649,5.877c-4.411,2.177-9.165,2.697-14.091,2.084
		c-2.939-0.367-5.908-0.438-8.857-0.71c-0.71-0.068-1.543-0.24-2.049-0.681c-0.423-0.368-0.62-1.196-0.629-1.821
		c-0.047-3.838,0.066-7.678-0.022-11.516c-0.11-4.707-0.578-9.419-0.488-14.117c0.072-3.692,0.731-7.369,1.218-11.041
		c0.048-0.359,0.726-0.896,1.118-0.895c6.245,0.025,12.491,0.222,18.733,0.17c4.428-0.038,6.252,3.937,6.78,7.039
		c0.49,2.878-0.037,5.629-1.74,7.915C199.222,155.911,197.692,156.723,196.641,157.567"/>
	<path fill="#FFFFFF" d="M184.397,167.966c-0.045,0.002-0.089,2.497,0.107,3.717c0.062,0.392,0.695,1.012,1.044,1.002
		c2.926-0.092,5.85-0.257,8.766-0.496c2.416-0.199,3.71-1.759,3.753-4.32c0.043-2.529-0.94-3.841-3.542-4.074
		c-3.025-0.268-6.075-0.271-9.111-0.268c-0.389,0-1.05,0.695-1.099,1.129C184.194,165.74,184.352,166.86,184.397,167.966
		 M183.982,152.165c2.164-0.069,4.233,0.04,6.246-0.254c1.719-0.25,3.849,0.147,4.677-2.288c0.596-1.752,0.034-3.993-1.361-4.064
		c-2.954-0.154-5.918-0.154-8.88-0.169c-0.275-0.001-0.793,0.333-0.793,0.512C183.865,148.02,183.935,150.139,183.982,152.165z"/>
	<path fill="#44413F" d="M184.088,39.28c0.06,1.155-0.177,1.548-1.304,1.478c-2.507-0.159-5.729,0.101-8.242,0.008
		c-0.358-0.014-0.996-0.56-1.011-0.89c-0.284-6.368,0.033-12.881,0.028-19.251c-0.004-6.22-0.247-10.626-0.028-16.845
		c0.017-0.47-0.22-3.329,1.545-3.135c3.232-0.221,6.999-0.304,10.229-0.275c2.859,0.026,5.554-0.055,7.875,2.146
		c1.927,1.827,2.415,9.065-0.272,11.401c-2.325,2.019-5.299,2.635-8.217,2.357c-0.988-0.093-1.199,0.354-1.179,1.312
		C183.538,18.744,183.839,34.509,184.088,39.28"/>
	<path fill="#FFFFFF" d="M187.816,5.271c0.952,0.48,2.005,2.037,2.005,3.452c-0.05,1.858-0.171,1.444-1.808,2.2
		c-2.152,0.989-3.136,0.615-5.686,0.598c-0.303,0.068-1.146,0.005-1.084-1.19c-0.1-2.368-0.011-3.007-0.017-3.114
		c-0.144-2.357-0.051-2.473,1.975-2.449C184.316,4.851,186.084,4.398,187.816,5.271"/>
	<path fill="#44413F" d="M215.944,17.451c4.52-1.165,9.084,0.26,11.427,3.55c1.481,2.279,2.313,4.148,2.313,7.863
		c-0.002,3.786-2.082,7.653-3.028,8.957c-1.292,1.782-4.828,2.964-6.505,2.964c-2.422,0-4.176-2.481-4.782-4.068
		c-0.209-0.547-0.68-0.222-0.823,0.159c-0.069,0.187-0.074,0.945-0.051,1.814c0.036,1.353,0.284,2.015-0.688,2.094
		c-1.601,0.133-3.544,0.308-5.084,0c-0.62-0.123-0.668-1.894-0.695-2.864c-0.137-5.218,0.001-10.446-0.075-15.666
		c-0.08-5.344-0.324-8.952-0.446-14.296c-0.041-1.805,0.011-5.353,0.187-7.144c0.024-0.254,0.99-0.512,1.531-0.55
		c1.456-0.103,2.56,0.066,3.996-0.161c2.166-0.342,2.441,0.041,2.378,2.653C215.486,7.62,215.944,12.488,215.944,17.451"/>
	<path fill="#FFFFFF" d="M216.823,29.17c0.077-3.878,1.314-4.659,4.043-4.514c1.607,0.085,3.073,1.361,3.043,3.577
		c-0.028,2.153-1.775,4.02-3.693,3.945C217.958,32.092,216.787,31.052,216.823,29.17"/>
	<path fill="#FFFFFF" d="M266.323,95.354c-0.022-0.399,0.31-1.065,0-1.096c-1.73-0.169-5.84-0.245-7.577-0.233
		c-2.268,0.013-4.54,0.109-6.805,0.264c-0.229,0.015-0.605,0.695-0.605,1.066c-0.001,2.249,0.134,3.199,0.133,5.447
		c-0.002,3.757-0.142,3.772-3.068,3.957c-3.541,0.222-7.806,1.84-9.348,5.725c-1.662,4.185-1.544,8.488-0.678,12.823
		c0.553,2.774,2.755,5.582,4.996,7.221c3.294,2.409,11.385,0.425,11.931-4.321c0,1.17-0.065,2.2,0.029,3.209
		c0.048,0.534,0.296,1.401,0.591,1.483c0.886,0.249,1.841,0.271,2.763,0.228c1.909-0.088,3.813,0.073,5.718,0.033
		c1.647-0.035,2.203-1.106,1.921-2.975c-0.1-0.651,0.012-1.311,0-1.968c-0.091-4.154,0.161-5.281,0-9.43
		C266.024,109.208,266.721,102.927,266.323,95.354 M251.068,120.71c-2.308-0.037-4.28-1.327-4.133-3.736
		c0.149-2.433,1.897-4.176,4.56-4.196c2.402-0.019,3.24,1.063,3.259,4.208C254.771,119.528,253.58,120.752,251.068,120.71z"/>
	<path fill="#44413F" d="M219.987,139.071c1.803,0.431,5.234,0.652,8.069,2.1c2.56,1.306,4.577,3.848,6.639,6.035
		c2.468,2.616,2.999,6.126,3.587,9.534c0.608,3.521-0.26,6.818-1.531,10.097c-1.704,4.402-4.819,7.539-8.242,10.501
		c-4.175,3.612-13.373,3.617-16.952-0.527c-1.785-2.065-2.701-4.941-3.915-7.498c-2.571-5.414-2.468-11.284-2.36-17.062
		c0.063-3.411,1.053-6.56,3.999-9.013C212.078,140.908,214.889,139.224,219.987,139.071"/>
	<path fill="#FFFFFF" d="M220.411,152.718c-2.85-0.074-4.148,1.954-4.27,4.059c-0.173,2.97,1.856,5.206,4.574,5.263
		c2.234,0.045,4.897-2.846,4.907-5.326C225.627,155,222.652,152.718,220.411,152.718"/>
	<path fill="#FFFFFF" d="M220.411,152.718c2.241,0,5.216,2.281,5.211,3.997c-0.009,2.48-2.673,5.371-4.907,5.326
		c-2.718-0.057-4.747-2.293-4.574-5.263C216.263,154.673,217.561,152.644,220.411,152.718"/>
	<path fill="#44413F" d="M272.811,154.294c-0.858,4.371-1.346,8.867-2.692,13.071c-1.09,3.401-2.856,6.744-5.027,9.534
		c-1.229,1.581-3.791,2.334-5.897,2.866c-4.936,1.25-13.845-2.989-16.25-7.448c-2.096-3.886-3.519-8.021-2.54-12.466
		c1.007-4.56,1.871-9.333,3.914-13.421c2.335-4.68,6.631-8.03,12.07-7.282c4.359,0.601,8.888,1.74,12.131,5.495
		C270.888,147.383,272.643,151.386,272.811,154.294"/>
	<path fill="#FFFFFF" d="M253.342,157.507c-0.024,1.687,2.033,3.593,3.891,3.607c1.525,0.01,2.874-1.374,2.942-2.927
		c0.117-2.637-1.464-3.145-4.496-3.557C254.633,154.489,253.36,156.151,253.342,157.507"/>
	<path fill="#FFFFFF" d="M253.342,157.507c0.018-1.356,1.291-3.018,2.337-2.877c3.032,0.412,4.613,0.919,4.496,3.557
		c-0.068,1.553-1.417,2.937-2.942,2.927C255.376,161.1,253.318,159.194,253.342,157.507"/>
	<path fill="#44413F" d="M206.306,126.736c-1.098,2.849-4.158,4.524-7.472,4.508c-3.348-0.013-5.192-1.92-5.657-5.671
		c-0.661-5.336,0.812-8.332,4.798-10.378c1.632-0.838,3.432-0.427,5.223,0.179c0.546,0.301,1.366,0.919,1.852,0.541
		c0.361-0.597,0.222-3.867-0.233-5.389c-0.143-0.815-1.832-0.962-2.384-0.907c-0.379,0.038-0.877,1.027-0.964,1.5
		c0.071,1.436-0.357,1.869-1.127,1.982c-1.251-0.009-3.886,0.209-5.116-0.036c-0.716-0.008-1.056-1.811-0.656-3.718
		c0.43-2.046,1.432-3.9,3.01-4.757c1.899-1.033,4.092-1.194,6.252-1.017c2.953,0.24,6.26,1.829,7.059,5.129
		c1.256,5.192,0.931,10.473,0.633,15.925c-0.099,1.804,0.007,3.622-0.078,5.428c-0.016,0.352-0.448,0.907-0.747,0.966
		c-0.947,0.185-1.921,0.211-2.888,0.236c-1.411,0.04-1.866-0.639-1.588-2.281C206.249,128.825,206.268,127.042,206.306,126.736"/>
	<path fill="#FFFFFF" d="M200.408,124.993c-1.697,0.053-2.915-1.132-2.96-2.882c-0.034-1.357,1.521-2.867,3.006-2.905
		c2.133-0.052,2.887,0.951,3.146,3.352C203.755,123.982,202.413,124.929,200.408,124.993"/>
	<path fill="#FFFFFF" d="M307.451,107.459c-2.316-3.047-5.78-4.388-9.551-4.101c-1.49,0.309-3.381,0.071-4.386,1.042
		c-2.092,2.02-3.874,4.568-4.055,8.028c-0.057,1.085-0.174,2.171-0.326,3.245c-0.483,3.429-0.17,6.805,0.988,9.953
		c1.684,4.574,8.832,6.181,11.873,4.901c4.84-2.041,7.26-6.29,8.242-11.723C310.998,114.587,309.755,110.488,307.451,107.459
		 M302.98,116.47c-0.239,2.037-0.988,4.108-3.592,3.774c-2.24,0.073-3.453-1.266-3.213-4.311c0.074-0.946,1.45-2.315,2.379-2.499
		C300.515,113.049,303.217,114.452,302.98,116.47z"/>
	<path fill="#44413F" d="M231.122,69.964c0.125,3.407-0.403,7.94-2.629,12.046c-0.552,1.019-1.344,1.893-2.083,2.78
		c-4.404,5.279-10.747,6.015-15.665,1.382c-1.775-1.671-3.068-4.191-4.017-6.587c-1.168-2.951-2.319-6.151-2.438-9.291
		c-0.147-3.901,0.468-7.925,1.286-11.761c1.831-8.589,11.33-9.587,17.235-6.959c3.154,1.404,5.036,3.969,6.535,7.076
		C230.908,62.756,231.175,65.341,231.122,69.964"/>
	<path fill="#FFFFFF" d="M217.912,75.161c2.499,0.251,4.639-1.719,4.728-4.588c0.098-3.169-1.304-5.583-4.714-5.933
		c-2.347-0.242-5.397,1.992-5.351,4.163C212.638,71.9,213.458,75.32,217.912,75.161"/>
	<path fill="#44413F" d="M336.706,18.973c-0.921-1.028-1.957-1.922-2.902-2.926c-0.84-0.895-1.502-0.653-2.232,0.205
		c-0.987,1.156-2.047,2.229-3.01,3.268c-0.458-0.406-0.815-0.809-1.235-1.087c-2.173-1.426-4.5-1.443-6.825-0.732
		c-0.944,0.288-1.972,0.8-2.657,1.525c-3.379,3.582-4.58,7.789-3.839,12.371c0.326,2.017,1.628,4.3,2.961,5.898
		c-2.966,3.005-3.097,10.334-0.604,12.715c-1.425,1.177-3.124,1.28-4.38,5.301c-0.866,1.807-0.627,8.602,0.709,10.268
		c1.856,2.317,4.096,4.723,6.845,4.939c2.703,0.213,5.479,0.529,8.122,0.055c3.897-0.699,7.117-3.817,7.566-8.837
		c0.442-4.965-0.05-10.579-5.017-12.685c-1.544-0.655-2.439-0.936-4.045-1.415c-2.376-0.985-2.781-3.769-1.637-5.806
		c0.293-0.246,0.556-0.619,0.884-0.719c1.753-0.533,3.489-0.723,5.185-1.917c3.891-2.742,5.393-8.887,2.856-13.525
		c-0.079-0.146-0.099-0.463-0.016-0.572c1.045-1.386,1.966-2.983,3.223-4.049C337.81,20.269,337.325,19.666,336.706,18.973
		 M327.141,60.416c0.081,2.211-0.45,3.012-2.349,3.449c-0.612,0.14-4.842-0.096-6.212-0.648c-0.666-0.268-1.566-2.224-1.539-2.822
		c0.042-0.995,0.524-4.533,1.2-5.168c1.067-1.002,2.369-0.937,3.67-1.497C324.617,52.567,327.065,58.279,327.141,60.416z
		 M323.976,33.156c-1.561,0.021-3.285-1.989-3.348-3.902c-0.068-2.146,1.563-4.52,3.107-4.519c2.155,0.004,4.056,1.846,4.096,3.969
		C327.88,31.349,326.341,33.124,323.976,33.156z"/>
	<g>
		<path fill="#44413F" d="M74.803,11.629c-1.669,0.459-2.569,2.213-1.624,4.242c0.394,0.846,0.115,1.539-0.702,1.713
			c-0.243,0.053-0.462,0.26-0.691,0.397c0.107,0.238,0.228,0.471,0.319,0.716c0.059,0.153,0.077,0.326,0.113,0.489
			c-0.14,0.039-0.345,0.168-0.407,0.1c-0.251-0.272-0.603-0.574-0.651-0.918c-0.132-0.914,0.356-1.287,1.047-1.399
			c0.594-0.097,0.737-0.428,0.361-1.088c-0.609-1.065-0.451-2.86,0.416-3.912c0.62-0.756,1.378-1.399,2.328-0.662
			c0.341,0.265,0.628,0.641,0.907,1.002c0.054,0.069-0.039,0.305-0.066,0.464c-0.108-0.057-0.23-0.095-0.325-0.18
			C75.432,12.233,75.046,11.858,74.803,11.629"/>
		<path fill="#44413F" d="M78.106,24.427c-0.48,0.473-1.357,0.765-1.742,1.38c-0.421,0.875-0.009,1.291-0.154,1.882
			c-0.032,0.124-0.12,0.238-0.204,0.326c-0.019,0.019-0.165-0.079-0.198-0.157c-0.35-0.864-0.53-1.771,0.065-2.538
			C76.498,24.518,77.218,23.856,78.106,24.427"/>
		<path fill="#44413F" d="M168.645,125.036c-0.265-1.619-0.49-3.317-1.147-4.773c-0.813-1.798-2.001-3.427-3.129-5.05
			c-1.149-1.654-1.853-3.323-3.209-4.786c-1.62-1.746-2.05-3.282-3.795-4.898c-0.281-0.261-4.672-3.441-6.637-4.498
			c-1.634-0.877-3.449-1.374-5.166-2.089c-2.063-0.86-4.075-1.851-6.159-2.641c-2.068-0.783-4.201-1.374-6.3-2.07
			c-1.259-0.42-3.333-0.872-4.573-1.352c0,0-0.35-1.39-0.077-2.147c0.647-0.141,1.6-0.071,1.782-0.433
			c0.758-1.503,1.35-3.155-0.543-4.339c-0.359-0.226-0.818-0.271-1.198-0.471c-0.151-0.077-0.297-0.343-0.303-0.529
			c-0.032-0.877-0.013-1.758-0.013-2.639c0.598-0.515,1.216-1.203,1.31-1.963c0.096-0.779-0.34-1.623-0.508-2.448
			c-0.058-0.298-0.009-0.618-0.009-1.043c1.302-0.513,1.73-2.317,0.708-3.651c-0.064-0.084-0.041-0.25-0.041-0.38
			c-0.003-0.885-0.001-1.769-0.001-2.653c-0.064-0.478,0.206-1.031,0.122-1.517c-0.21-1.234-0.765-2.425-0.845-3.658
			c-0.118-1.832,0.116-3.688,0.077-5.53c-0.022-1.11-0.05-2.215,1.327-2.651c0.698-0.221,1.506-1.021,1.393-2.247
			c-0.1-1.054-0.663-2.011-1.104-2.962c-0.294-0.634-1.049-1.151-1.103-1.766c-0.119-1.389,0.178-2.811,0.105-4.209
			c-0.064-1.281-0.355-2.556-0.609-3.822c-0.42-2.075-1.12-4.029-3.041-5.066c-2.694-1.452-5.611-1.669-8.579-1.455
			c-0.161,0.011-0.333-0.125-0.501-0.191c0.094-0.131,0.166-0.294,0.284-0.392c0.74-0.606,0.666-1.407-0.142-1.949
			c-1.322-0.885-2.641-1.776-3.919-2.73c-0.672-0.501-1.171-1.417-1.893-1.652c-1.319-0.431-2.744-0.492-4.12-0.706
			c0.018-0.03,0.109-0.138,0.156-0.266c0.216-0.594,0.752-1.504,0.562-1.727c-0.416-0.493-1.394-1.052-1.799-0.844
			c-0.992,0.512-1.967,1.303-2.629,2.232c-1.147,1.613-2.113,3.384-3.042,5.152c-0.76,1.45-1.481,2.949-1.996,4.508
			c-0.773,2.345,0.47,4.542,0.76,6.81c0.116,0.909-0.184,1.233-1.033,1.471c-0.903,0.254-1.884,0.902-2.408,1.69
			c-0.355,0.532-0.016,1.61,0.084,2.432c0.151,1.217,0.281,2.45,0.584,3.628c0.16,0.622,0.995,1.171,0.959,1.709
			c-0.14,1.97-0.289,4.003-0.876,5.856c-0.513,1.624-1.306,3.315-3.102,3.988c-0.785,0.294-1.531,0.74-2.334,0.942
			c-1.661,0.415-3.382,1.118-5.021,0.975c-3.301-0.285-6.017-2.089-8.016-4.887c-0.576-0.805-0.878-1.862-1.17-2.847
			c-0.336-1.136-0.488-2.331-0.788-3.48c-0.168-0.635-0.71-1.247-0.667-1.837c0.07-0.979,0.513-1.92,0.727-2.898
			c0.319-1.46-0.306-3.999-1.75-4.859c-0.246-0.147-0.424-0.369-0.841-0.482c-0.473-0.17-0.829-0.093-1.138-0.124
			c0.056-0.515,0.015-1.111,0.105-1.619c0.175-1.078,0.608-2.126,0.661-3.216c0.013-0.237,0.706-0.622,1.077-0.612
			c1.188,0.038,2.434,0.554,3.544,0.288c2.198-0.525,4.206-2.743,4.236-5.22c0.006-0.622-0.093-2.117-0.297-3.217
			c0.253,0.099,0.379,0.018,0.576,0.023c0.052,0.006,0.256-0.087,0.311-0.082c0.111-0.066,0.217-0.134,0.315-0.21
			c0.671-0.748,0.322-1.1,0.4-1.252c0.061-0.114,0.261-0.012,0.43-0.054c0.158-0.023,0.289-0.101,0.362-0.194
			c0.143-0.153,0.175-0.447,0.217-0.54c0.056-0.457-0.021-0.721-0.232-1.114c-0.038-0.07-0.183-0.35-0.243-0.389
			c0.394-0.368,1.085-0.939,1.302-2.315c0.022-0.14,0.432-1.063,0.645-1.131c0,0,0.56,0.534,0.886,0.768
			c0.744,0.538,1.32,0.948,2.061,0.745c1.064-0.293,1.802-1.38,2-2.745c0.143-0.989,0.199-2.043,0.559-2.94
			c0.74-1.849,1.588-3.655,2.536-5.383c0.359-0.66,1.086-1.467,1.676-1.501c2.11-0.116,2.727-0.768,3.233-2.759
			c0.461-1.821-0.471-3.346-1.446-4.597c-0.886-1.131-2.101-1.952-3.217-2.837c-0.306-0.243-0.778-0.296-1.177-0.31
			c-1.531-0.051-3.015,0.916-4.602,0.115c-0.972-0.49-2.038-0.777-3.083-1.049c-1.62-0.419-3.262-1.029-4.89-1.016
			c-1.152,0.01-2.315,0.874-3.441,1.44c-1.642,0.825-4.16,0.501-5.676,1.557c-1.952,1.357-2.968,4.001-4.768,5.602
			c-0.642,0.571-1.433,1.472-1.46,2.255c-0.075,2.114,0.096,4.268,0.426,6.357c0.171,1.081,1.006,2.01,1.312,3.091
			c0.342,1.199,0.573,2.348,1.93,2.54c0.083,0.012,0.22,0.247,0.201,0.347c-0.074,0.377-0.229,0.73-0.306,1.107
			c-0.526,2.599-0.41,5.173,0.129,7.767c0.209,1.001,0.319,2.14,0.105,3.115c-0.366,1.671-1.045,3.254-1.543,4.891
			c-0.256,0.845-0.405,1.729-0.596,2.597c-0.078,0.365-0.094,0.778-0.171,1.14c-0.1-0.002-0.237,0.165-0.408,0.253
			c-0.143,0.058-0.403,0.339-0.473,0.42c-0.782,0.923-1.533,1.337-2.383,2.198c-0.444,0.451-0.658,1.038-1.524,1.021
			c-0.864-0.02-1.948,0.201-2.564,0.769c-1.157,1.065-2.316,2.313-2.984,3.74c-1.031,2.208-1.842,4.581-2.394,6.975
			c-0.545,2.343-0.704,4.794-0.931,7.208c-0.198,2.105-0.342,4.224-0.349,6.336c-0.005,1.351,0.35,2.699,0.424,4.054
			c0.066,1.238-0.095,2.489-0.042,3.728c0.113,2.585,0.287,5.166,0.474,7.745c0.027,0.363,0.22,0.968,0.426,1.016
			c0.82,0.182,1.675,0.187,2.602,0.265c0,1.35,0.001,2.656-0.002,3.963c-0.001,0.221,0.047,0.572-0.055,0.636
			c-0.246,0.157-0.684,0.347-0.844,0.227c-1.129-0.844-2.216-1.507-3.744-1.357c-1.691,0.168-3.245,1.082-3.74,2.783
			c-0.647,2.221,0.218,6.334,2.642,7.415c0.887,0.395,1.697,1.035,2.46,1.672c0.969,0.809,1.808,1.793,2.793,2.581
			c0.684,0.545,1.546,0.837,2.265,1.342c0.21,0.147,0.137,0.681,0.309,0.959c1.044,1.685,2.121,3.345,3.281,5.159
			c-3.947,5.465-6.31,9.934-9.292,16.919c-0.242,0.566-0.525,1.489-0.88,1.539c-0.704,0.1-1.542-0.149-2.198-0.509
			c-2.529-1.394-5.157-2.695-6.611-5.523c-0.998-1.942-1.975-3.896-2.976-5.875c1.719-0.196,3.052-0.313,4.372-0.513
			c0.727-0.112,1.662-0.136,2.098-0.611c0.605-0.669,1.005-1.683,1.19-2.618c0.461-2.329,0.835-4.687,1.081-7.053
			c0.128-1.224,0.157-2.576-0.205-3.716c-0.542-1.704-2.142-2.207-3.661-2.644c-0.21-0.059-0.49-0.147-0.571-0.312
			c-0.066-0.131,0.071-0.45,0.204-0.603c1.302-1.495,2.05-3.119,1.994-5.274c-0.058-2.149,0.366-4.31,0.538-6.471
			c0.151-1.879,0.319-3.763,0.336-5.646c0.008-0.925-0.276-1.885-0.976-1.905c-0.594-0.303-0.796-0.49-1.003-0.494
			c-0.514-0.012-1.111,0.247-1.529,0.053c-0.758-0.351-1.388-0.998-2.122-1.433c-0.369-0.221-1.182-0.179-1.216-0.371
			c-0.295-1.634-0.455-3.292-0.661-4.991c1.272,0.105,2.499,0.371,3.695,0.262c1.537-0.14,3.231-0.233,4.528-0.977
			c1.835-1.051,1.766-3.319,1.859-5.266c0.086-1.79,0.02-3.594-0.063-5.387c-0.091-2.007-0.19-4.022-0.451-6.01
			c-0.187-1.425-0.571-2.839-1.009-4.204c-0.281-0.879-0.821-1.667-1.222-2.45c0.863-1.082,1.844-2.322,2.84-3.553
			c1.572-1.942,1.697-4.057,0.73-6.327c-0.75-1.756-1.477-3.523-2.204-5.26c0.134-0.054,0.234-0.093,0.333-0.133
			c-0.185-0.345-0.3-0.907-0.567-1.002c-2.333-0.839-4.692-1.593-6.948-2.342c-0.044,0.086,0.045-0.152,0.185-0.348
			c1.095-1.504,2.23-2.978,3.295-4.506c1.254-1.794,1.168-2.047-0.581-2.234c-0.019-0.002-0.033-0.046-0.047-0.065
			c0.543-0.672,1.196-1.276,1.607-2.026c1.35-2.468,2.644-4.97,3.895-7.495c0.8-1.619,1.532-3.283,2.187-4.975
			c0.114-0.292-0.273-1.154-0.487-1.179c-1.556-0.177-3.126-0.177-4.685-0.308c-0.279-0.023-0.53-0.397-0.796-0.609
			c0.16-0.081,0.325-0.145,0.474-0.244c0.086-0.056,0.152-0.156,0.213-0.247c0.671-1.015,1.395-2,1.97-3.072
			c0.152-0.285-0.094-0.874-0.273-1.264c-0.069-0.149-0.461-0.14-0.708-0.192c-1.447-0.315-2.885-0.701-4.347-0.916
			c-1.574-0.233-3.174-0.266-4.755-0.46c-1.756-0.215-3.502-0.545-5.259-0.767c-1.567-0.198-3.139-0.401-4.714-0.438
			c-0.861-0.019-2-0.004-2.546,0.527c-1.176,1.145-2.052,2.628-3.046,3.979c-1.29,1.755-2.63,3.473-3.84,5.286
			c-0.686,1.03-1.437,2.165-1.647,3.352c-0.259,1.478,0.057,3.059,0.021,4.593c-0.01,0.459-0.367,0.909-0.562,1.354
			c-0.06,0.018-0.211,0.01-0.27,0.084c-0.474,0.578-0.914,1.19-1.396,1.76c-1.947,2.304-3.978,4.535-5.826,6.924
			c-0.838,1.08-2.458,2.159-0.857,3.994c0.491,0.566,0.553,1.52,0.943,2.214c0.812,1.432,1.294,3.208,3.016,3.812
			c1.091,0.386,2.23,0.618,3.493,0.958c-1.899,1.963-3.785,3.789-5.49,5.786c-0.298,0.349-0.038,1.893,0.314,2.057
			c0.867,0.401,1.972,0.189,2.904,0.485c0.543,0.172,1.029,0.786,1.369,1.322c0.172,0.276,0.081,0.882-0.089,1.229
			c-0.999,2.03-2.123,3.993-3.052,6.054c-0.294,0.646-0.61,1.798,0.544,2.045c0.845,0.179,1.794,0.076,2.653-0.117
			c1.441-0.324,2.488,0.205,2.598,1.544c0.108,1.31-0.005,2.666,0.277,3.928c0.27,1.212,0.111,1.688-1.052,2.238
			c-1.912,0.905-3.653,2.208-5.472,3.345c0.259,0.301,0.455,0.443,0.434,0.52c-0.171,0.623-0.21,1.471-0.617,1.799
			c-0.735,0.59-1.703,0.853-2.562,1.279c-1.053,0.524-2.632,0.699-2.217,2.494c0.455,1.965,1.049,3.919,1.813,5.773
			c0.868,2.112,1.948,4.134,3.025,6.145c0.607,1.131,1.278,2.275,2.127,3.201c1.234,1.348,2.345,3.117,4.606,2.504
			c0.347-0.095,1.068,0.061,1.11,0.238c0.143,0.583,0.291,1.578,0.01,1.788c-1.06,0.795-2.278,1.354-3.449,1.978
			c-1.251,0.668-2.236,1.79-2.262,3.142c-0.025,1.223,0.449,2.707,1.19,3.645c1.515,1.912,3.361,3.534,4.868,5.07
			c-0.087,0.714-0.149,1.122-0.184,1.534c-0.265,3.11-0.363,5.402,3.335,6.11c0.892,0.17,1.78,0.373,2.749,0.58
			c-0.022,0.009,0.078-0.087,0.16-0.073c1.03,0.159,2.052,0.383,3.084,0.493c1.656,0.177,3.321,0.267,4.98,0.422
			c0.397,0.036,1.025,0.075,1.133,0.316c0.407,0.915,0.673,1.903,0.932,2.881c0.393,1.481,0.54,3.073,1.149,4.443
			c0.686,1.546,1.743,2.917,2.692,4.325c0.438,0.65,0.924,1.32,1.526,1.777c1.308,0.993,2.675,1.911,4.077,2.747
			c0.945,0.564,2.001,0.913,2.984,1.408c0.314,0.157,0.829,0.585,0.785,0.709c-0.638,1.839-1.204,3.734-2.088,5.445
			c-1.645,3.19-3.394,6.335-5.274,9.379c-1.78,2.878-7.677,7.976-10.584,9.113c-1.361-1.57-2.581-3.171-3.991-4.558
			c-2.132-2.096-4.704-2.36-7.561-2.032c-3.449,0.398-6.072,1.984-8.14,4.807c-1.926,2.627-2.854,5.465-1.728,8.75
			c0.871,2.538,1.595,5.282,3.688,6.961c1.488,1.194,3.375,2.068,5.209,2.494c1.809,0.42,3.771,0.095,5.666,0.101
			c2.237,0.007,3.865-1.385,5.179-2.966c1.063-1.281,1.728-2.968,2.41-4.549c0.741-1.725,0.847-3.55,0.232-5.386
			c-0.087-0.256-0.044-0.773,0.108-0.872c1.498-0.96,6.962-4.191,8.214-5.411c2.24-2.184,3.543-4.574,5.4-7.123
			c1.558-2.136,2.727-4.597,3.985-6.963c1.301-2.445,2.573-4.91,3.724-7.436c0.99-2.17,1.727-4.468,2.695-6.649
			c1.262-2.839,2.651-5.033,3.987-7.835c0.51-1.064,1.167-2.12,1.707-3.168c0.665-1.289,1.992-3.946,2.788-5.139
			c1.16-1.746,2.51-2.58,3.606-4.364c0.628-1.023,1.045-1.037,2.206-0.851c3.24,0.52,7.089,1.095,10.447,1.635
			c3.135,0.506,6.262,1.072,9.389,1.634c0.087,0.016,0.225,0.352,0.179,0.459c-0.606,1.368-1.306,2.692-1.851,4.086
			c-0.733,1.87-1.312,3.809-2.033,5.686c-0.541,1.413-1.332,2.732-1.771,4.174c-0.434,1.43-0.653,2.954-0.808,4.453
			c-0.115,1.087-0.104,2.226,0.081,3.297c0.446,2.557,1.035,5.084,1.545,7.627c0.097,0.492,0.091,1.005,0.149,1.684
			c0.248,1.372,0.528,2.932,0.837,4.639c0.093,0.411,0.226,0.975,0.352,1.539c0.239,1.061,0.265,2.249,0.752,3.162
			c1.138,2.146,2.455,4.191,3.782,6.219c1.347,2.063,2.688,4.15,4.224,6.052c1.675,2.075,3.519,4.008,5.393,5.885
			c1.043,1.046,2.187,2.153,3.488,2.694c2.226,0.926,4.586,1.553,6.936,2.077c2.62,0.585,5.278,1.068,7.942,1.32
			c3.652,0.347,7.328,0.588,10.992,0.574c2.148-0.009,4.324-0.462,6.43-0.973c1.623-0.392,3.165-1.172,4.731-1.807
			c1.663-0.674,3.427-1.179,4.945-2.117c3.077-1.908,6.102-3.938,8.986-6.15c2.149-1.648,2.735-3.574,4.625-5.548
			c0.917-0.956,1.501-2.283,2.163-3.488c0.958-1.739,1.977-3.461,2.73-5.3c0.653-1.596,0.951-3.349,1.444-5.021
			c0.994-3.378,1.705-6.709,2.502-10.135c0.549-2.364,0.817-4.86,0.799-7.294C169.513,129.769,169.033,127.391,168.645,125.036
			 M43.275,86.997c0.042-0.269,0.366-0.492,0.61-0.801c1.297-0.021,1.642,0.742,1.535,2.114c-0.23,2.898-0.292,5.81-0.497,8.71
			c-0.068,0.946-0.372,1.87-0.557,2.807c-0.071,0.355-0.066,0.732-0.181,1.068c-0.234,0.675-0.524,1.329-0.955,1.86
			c0.157-1.128,0.334-2.254,0.465-3.385c0.156-1.36,0.277-2.725,0.4-4.089c0.135-1.501,0.224-3.009,0.403-4.504
			c0.08-0.674,0.333-1.326,0.502-1.988c0.033-0.123,0.097-0.325,0.054-0.36c-0.104-0.084-0.275-0.142-0.4-0.115
			C43.446,88.572,43.077,88.251,43.275,86.997z M43.053,98.414c-0.11,1.086-0.13,2.182-0.242,3.27
			c-0.033,0.299-0.254,0.578-0.372,0.828c0-0.754-0.047-1.518,0.009-2.273c0.138-1.854,0.288-3.708,0.504-5.554
			c0.213-1.828,0.513-3.647,0.788-5.467c0.013-0.088,0.165-0.154,0.252-0.23c0.049,0.259,0.167,0.529,0.139,0.778
			c-0.16,1.354-0.365,2.702-0.534,4.054C43.405,95.35,43.209,96.879,43.053,98.414z M42.371,93.545
			c0.224-1.549,0.477-3.094,0.89-4.627c-0.523,4.084-1.045,8.169-1.568,12.253c-0.079-0.001-0.157-0.001-0.236-0.004
			c0.094-0.977,0.17-1.954,0.287-2.926C41.937,96.672,42.145,95.107,42.371,93.545z M37.061,78.264
			c0.055-0.001,0.108-0.003,0.162-0.007l0.146,2.886c-0.057,0.001-0.113,0.005-0.171,0.007L37.061,78.264z M37.86,77.014
			c0.123,0.324,0.332,0.646,0.346,0.975c0.061,1.678,0.075,3.359,0.094,5.038c0.009,0.935-0.413,0.697-0.659,0.515
			C38.163,81.299,37.79,79.22,37.86,77.014z M49.033,45.435c0.56,1.427-0.011,3.452-1.213,4.407
			c-2.054,1.636-4.038,3.369-6.083,5.016c-1.317,1.059-2.691,2.037-4.134,3.12c0-0.878,0.127-1.625-0.027-2.298
			c-0.33-1.428-0.752-2.841-1.248-4.214c-0.233-0.641-0.75-1.167-1.081-1.777c-0.038-0.072,0.268-0.397,0.457-0.548
			c1.435-1.142,2.868-2.291,4.33-3.392c1.108-0.835,2.281-1.577,3.391-2.413c1.311-0.986,2.585-2.029,3.815-3
			C47.796,41.94,48.355,43.714,49.033,45.435z M36.191,79.847c-0.056-0.716-0.193-1.425-0.27-2.14
			c-0.028-0.253,0.017-0.512,0.044-0.767c0.001-0.014,0.209-0.037,0.217-0.014c0.086,0.24,0.196,0.484,0.212,0.73
			c0.071,1.138,0.116,2.277,0.162,3.415c0.006,0.175-0.035,0.352-0.054,0.529l-0.301,0.025
			C36.201,81.033,36.236,80.436,36.191,79.847z M18.013,57.632c-0.807,0.16-1.6,0.396-2.391,0.629
			c-0.154,0.048-0.271,0.238-0.497,0.45c0.05-0.359,0.07-0.688,0.16-0.996c0.023-0.088,0.246-0.128,0.383-0.159
			c2.655-0.632,5.297-1.342,7.97-1.863c2.281-0.443,4.6-0.668,6.902-0.99c1.342-0.189,2.683-0.38,4.025-0.564
			c0.212-0.028,0.428-0.026,0.642-0.036c0.01,0.093,0.02,0.189,0.028,0.282c-1.008,0.098-2.025,0.146-3.023,0.306
			c-2.571,0.417-5.146,0.625-7.653,1.632C22.517,57.141,20.2,57.203,18.013,57.632z M22.146,57.919
			c-1.56,0.21-3.119,0.422-4.678,0.634l-0.032-0.191c1.562-0.205,3.124-0.409,4.686-0.614L22.146,57.919z M34.32,52.032
			c0.036,0.059,0.116,0.191,0.193,0.32h-6.557c0-0.106,0-0.214-0.002-0.32H34.32z M32.049,51.678
			c0.003-0.046,0.004-0.089,0.007-0.135h1.507v0.135H32.049z M33.186,53.08c-2.393-0.023-4.708,0.51-7.024,1.17
			c-0.204,0.042-0.41,0.088-0.614,0.123c-0.981,0.17-1.957,0.369-2.945,0.494c-1.774,0.222-3.551,0.433-5.333,0.572
			c-0.482,0.039-0.984-0.196-1.429-0.524C21.638,53.958,27.364,52.85,33.186,53.08z M33.066,53.764
			c-1.265,0.135-2.529,0.272-3.793,0.408l-0.014-0.239c1.265-0.112,2.529-0.226,3.793-0.34
			C33.056,53.65,33.061,53.706,33.066,53.764z M18.309,53.373c-0.447,0.081-0.875,0.263-1.323,0.364
			c-0.326,0.074-0.665,0.095-1,0.14c0.041-0.35,0.083-0.701,0.121-1.023c0.011-0.004-0.195,0.056-0.203,0.037
			c-0.06-0.166-0.128-0.357-0.104-0.525c0.016-0.103,0.193-0.261,0.292-0.258c2.373,0.115,4.743,0.249,7.111,0.382
			c0.035,0.002,0.063,0.056,0.044,0.037C21.624,52.802,19.964,53.074,18.309,53.373z M20.289,56.039
			c-1.546,0.388-3.151,0.791-4.912,1.236c0.188-0.6,0.298-0.945,0.389-1.236H20.289z M31.831,55.399
			c-0.749,0.098-1.499,0.194-2.246,0.291c-0.006-0.039-0.011-0.077-0.016-0.116l2.25-0.329L31.831,55.399z M35.413,55.061
			c-0.052,0.084-0.139,0.39-0.276,0.42c-2.765,0.597-5.531,1.187-8.306,1.722c-1.392,0.268-2.802,0.42-4.249,0.362
			C26.84,56.735,31.099,55.904,35.413,55.061z M43.543,29.536c-2.57,3.53-5.096,7.101-7.759,10.551
			c-0.763,0.99-1.851,1.875-2.966,2.313c-0.469,0.185-1.549-0.779-2.079-1.457c-0.773-0.995-1.369-2.168-1.89-3.339
			c-0.149-0.335,0.223-0.925,0.258-1.054c0.818,1.241,1.559,2.678,2.588,3.83c0.76,0.851,1.606,0.214,2.165-0.614
			c0.959-1.428,1.892-2.876,2.853-4.303c0.758-1.128,1.816-2.133,2.248-3.382c0.507-1.471,1.749-1.262,2.626-1.842
			c0.187-0.123,0.542,0.046,0.82,0.079l-0.217-0.319c0.4-0.347,0.798-0.699,1.207-1.035c0.013-0.01,0.177,0.117,0.193,0.196
			C43.612,29.279,43.608,29.448,43.543,29.536z M31.181,38.835c-0.441-0.526-0.745-1.208-0.136-1.961
			c1.182-1.462,2.354-2.942,3.623-4.316c1.22-1.319,1.273-1.264,1.87-1.034C34.774,33.932,32.987,36.369,31.181,38.835z
			 M37.485,31.473c0.193-0.247,0.708-0.216,0.995-0.291c-1.983,2.881-3.983,5.789-5.983,8.696c-0.594-0.338-1.014-0.571-0.379-1.373
			C33.953,36.201,35.672,33.795,37.485,31.473z M30.239,36.9c-0.901-1.16,0.021-2.037,0.729-2.865
			c0.744-0.869,1.587-1.657,2.457-2.39c0.38-0.32,0.931-0.417,1.405-0.614c0.023,0.077,0.047,0.154,0.073,0.231
			C33.339,33.151,31.776,35.04,30.239,36.9z M50.104,13.581c0.099,0.016,0.27,0.419,0.213,0.524
			c-0.819,1.502-1.658,2.991-2.52,4.467c-0.771,1.322-1.553,2.639-2.372,3.929c-0.537,0.846-1.145,1.644-1.742,2.447
			c-0.048,0.066-0.164,0.073-0.203,0.066c-0.14,0.385-0.179,0.677-0.331,0.867c-0.63,0.774-1.248,1.569-1.976,2.226
			c-0.177,0.161-0.914-0.035-1.124-0.301c-0.957-1.227-1.909-2.479-2.689-3.833c-0.583-1.009-1-2.159-1.275-3.305
			c-0.101-0.408,0.431-0.982,0.751-1.639c0.22,1.508,0.204,2.884,0.657,4.061c0.373,0.963,1.25,1.747,1.999,2.504
			c1.117,1.128,1.959,0.366,2.678-0.611c1.63-2.213,3.268-4.416,4.837-6.677c0.808-1.168,1.507-2.427,2.136-3.711
			c0.06-0.12-0.746-0.711-1.154-1.079c-0.055-0.047-0.134-0.066-0.394-0.191C48.57,13.417,49.34,13.469,50.104,13.581z
			 M37.372,19.375c0.446-0.619,0.925-1.529,1.619-2.191c1.579-1.507,3.262-2.893,4.904-4.328l0.469,0.494
			C41.997,15.388,39.629,17.428,37.372,19.375z M40.807,25.239c0.248-0.336,0.466-0.699,0.746-1
			c0.427-0.461,0.896-0.881,1.348-1.317c0.036,0.026,0.071,0.05,0.107,0.077c-0.411,0.52-0.794,1.07-1.244,1.552
			C41.499,24.836,41.129,25.013,40.807,25.239z M45.076,19.637c1.055-1.711,2.109-3.424,3.166-5.135
			c0.11,0.07,0.221,0.142,0.333,0.212c-1.124,1.672-2.247,3.345-3.371,5.017C45.162,19.7,45.117,19.668,45.076,19.637z
			 M47.328,14.352c-0.739,1.274-1.376,2.441-2.081,3.564c-0.948,1.511-1.895,3.031-2.947,4.462c-0.595,0.813-1.378,1.482-2.13,2.151
			c-0.094,0.082-0.551-0.177-0.752-0.377c-0.14-0.138-0.25-0.569-0.168-0.657c0.819-0.878,1.715-1.679,2.516-2.574
			c0.746-0.835,1.403-1.757,2.101-2.641c0.931-1.186,1.854-2.378,2.805-3.548C46.816,14.555,47.085,14.488,47.328,14.352z
			 M46.539,14.003c0.026,0.016,0.054,0.035,0.083,0.051c-2.632,3.079-5.265,6.155-7.937,9.277c-0.741-1.198-0.25-2.068,1.061-3.101
			c1.472-1.161,2.782-2.551,4.168-3.835C44.784,15.592,45.662,14.8,46.539,14.003z M46.375,12.974
			c-0.124,0.233-0.199,0.526-0.38,0.688c-1.56,1.403-3.16,2.76-4.706,4.177c-1.139,1.044-2.217,2.161-3.32,3.245
			c-0.08-0.067-0.158-0.131-0.239-0.198c0.193-0.263,0.37-0.539,0.582-0.784c1.345-1.548,2.651-3.137,4.066-4.611
			c0.806-0.839,1.795-1.484,2.694-2.223c0.121-0.098,0.207-0.326,0.32-0.336C45.718,12.902,46.047,12.954,46.375,12.974z
			 M19.496,14.25c1.539-2.101,3.107-4.179,4.677-6.257C25,6.899,25.74,5.68,26.743,4.803c0.513-0.45,1.554-0.473,2.3-0.342
			c1.436,0.254,2.818,0.867,4.255,1.125c1.653,0.3,3.342,0.386,5.017,0.554c2.445,0.245,4.915,0.32,7.321,0.79
			c1.059,0.207-0.054,1.075-0.233,1.305c-1.419,1.817-2.904,3.585-4.468,5.266c-1.18,1.266-2.512,2.377-3.769,3.564
			c-0.664,0.625-1.243,1.401-2,1.842c-0.377,0.219-1.069-0.159-1.617-0.273c-2.792-0.583-5.579-1.206-8.383-1.735
			c-1.993-0.378-4.006-0.632-6.014-0.931c-0.13-0.019-0.27,0.052-0.665,0.137C18.882,15.368,19.126,14.758,19.496,14.25z
			 M18.502,17.463c2.278,0.387,4.508,0.755,6.732,1.151c2.364,0.42,4.719,0.909,7.089,1.284c1.112,0.175,1.732,0.599,2.314,1.765
			c1.166,2.336,2.734,4.45,4.149,6.648c0.193,0.298,0.467,0.538,0.818,0.939c-1.157,0-2.121,0.079-3.069-0.016
			c-3.168-0.309-6.335-0.647-9.491-1.042c-1.686-0.21-3.374-0.489-5.03-0.869c-2.089-0.482-3.058-2.073-3.016-4.388
			c0.015-0.825-0.39-1.65-0.476-2.488C18.435,19.597,18.502,18.728,18.502,17.463z M12.275,49.479
			c-0.297,0.015-0.839-0.333-0.87-0.571c-0.06-0.444,0.024-1.113,0.308-1.368c1.363-1.229,2.822-2.339,4.226-3.518
			c0.434-0.362,0.747-0.993,1.223-1.161c0.464-0.166,1.072,0.079,1.609,0.189c0.81,0.166,1.613,0.366,2.414,0.569
			c0.052,0.012,0.093,0.06,0.11,0.088c0.97,0.075,1.818,0.142,2.675,0.208c-0.005,0.026-0.01,0.052-0.014,0.079
			c1.021,0.064,2.106,0.008,3.138,0.224c2.731,0.565,5.39,0.779,7.691-1.282c0.725-0.648,1.328-1.446,1.992-2.173
			c0.06-0.065,0.125-0.123,0.16-0.151c0.325-0.545,0.487-0.868,0.697-1.154c0.807-1.1,1.569-2.249,2.485-3.238
			c0.23-0.248,0.983-0.026,1.478,0.072c1.251,0.245,2.496,0.531,3.736,0.827c0.387,0.093,0.758,0.27,1.036,0.371
			c-0.835,1.035-1.585,2.123-2.489,3.045c-1.783,1.825-3.619,3.599-5.501,5.313c-1.217,1.11-2.52,2.123-3.857,3.066
			c-0.317,0.224-0.923-0.033-1.396-0.021c-2.324,0.063-4.646,0.185-6.972,0.202c-2.692,0.017-5.384-0.128-8.075-0.069
			C16.143,49.072,14.212,49.368,12.275,49.479z M14.455,50.428c6.152,0.17,11.867,0.326,17.577,0.483
			c0.003,0.119,0.006,0.24,0.011,0.359c-2.556,0.157-5.111,0.386-7.667,0.445c-1.36,0.03-2.722-0.301-4.086-0.351
			c-1.394-0.053-2.796,0.114-4.186,0.035C15.64,51.373,15.199,50.883,14.455,50.428z M16.06,59.666
			c-1.003,0.049-2.026-0.35-3.037-0.565c-0.011-0.002-0.006-0.296,0.054-0.422c0.698-1.489,1.408-2.972,2.391-4.364
			c-0.285,1.257-0.549,2.52-0.854,3.771c-0.208,0.842-0.201,1.357,0.888,1.198c2.754-0.407,5.52-0.732,8.278-1.098
			c1.804-0.24,3.612-0.441,5.405-0.749c2.104-0.363,4.19-0.822,6.296-1.241c0.474,1.888-0.618,2.927-2.663,2.549
			c-0.843-0.156-1.758,0.173-2.64,0.189c-2.319,0.044-4.641-0.052-6.953,0.073C20.832,59.138,18.452,59.551,16.06,59.666z
			 M19.908,60.845c0.592,2.273,1.184,4.544,1.786,6.856c-0.215,0.078-0.435,0.16-0.694,0.255
			C19.363,65.866,20.045,63.28,19.908,60.845z M20.617,61.332c-0.012-0.131,0.273-0.294,0.421-0.441
			c0.102,0.131,0.265,0.249,0.295,0.396c0.413,2.07,0.807,4.142,1.206,6.215l-0.331,0.371c-0.025-0.204-0.014-0.423-0.08-0.612
			c-0.364-1.047-0.818-2.066-1.102-3.137C20.783,63.223,20.713,62.269,20.617,61.332z M20.002,67.513
			c0.195,1.027,0.651,1.856,1.842,0.941c0.15-0.115,0.386-0.112,1.07-0.291c-0.828,1.352-1.453,2.37-2.077,3.385l-0.503-0.077
			c-0.473-1.532-1.085-3.037-1.383-4.608c-0.327-1.73-0.378-3.519-0.512-5.286c-0.012-0.182,0.232-0.387,0.358-0.58
			c0.095,0.219,0.246,0.429,0.283,0.659C19.393,63.608,19.636,65.573,20.002,67.513z M22.787,66.433l-0.868-5.499
			c0.077-0.014,0.152-0.029,0.229-0.044c0.307,1.83,0.615,3.662,0.925,5.494C22.977,66.4,22.881,66.417,22.787,66.433z
			 M11.295,77.595c0.532,2.82,1.072,5.687,1.559,8.269C11.341,82.705,10.536,78.508,11.295,77.595z M14.397,90.193
			c-0.022,0.014-0.044,0.03-0.067,0.044c-0.579-1.06-1.292-2.065-1.712-3.191c-0.951-2.553-1.764-5.164-2.612-7.76
			c-0.087-0.268-0.031-0.588-0.027-0.884c0-0.021,0.201-0.066,0.204-0.056c0.115,0.307,0.237,0.611,0.32,0.928
			c0.427,1.651,0.718,3.358,1.299,4.945C12.547,86.26,13.521,88.205,14.397,90.193z M14.553,92.766
			c-1.757-1.151-2.539-3.071-3.385-4.912c-0.655-1.425-1.262-2.894-1.705-4.404c-0.507-1.737-1.028-3.527-1.125-5.318
			c-0.074-1.332,1.364-1.548,2.35-1.951c0.165-0.068,0.35-0.079,0.758,0.098c-0.469,0.467-0.882,1.241-1.417,1.347
			c-1.849,0.367-0.645,1.555-0.509,2.199c0.39,1.834,0.939,3.644,1.584,5.397c0.467,1.264,1.172,2.436,1.799,3.63
			c0.653,1.24,1.345,2.458,2.02,3.686C14.799,92.615,14.677,92.69,14.553,92.766z M15.141,86.26l-2.311-13.137
			c0.121-0.82,1.323-1.464,2.033-2.186c1.191-0.478,2.26-0.905,3.113-1.247c0.612,1.009,0.973,2.273,1.771,2.774
			c1.32,0.832,2.898,1.249,4.405,1.702c3.21,0.964,6.445,1.83,9.659,2.783c0.109,0.031,0.11,0.576,0.106,0.879
			c-0.019,1.108-0.032,2.217-0.103,3.322c-0.107,1.688-1.523,1.348-2.458,1.613c-3.129,0.885-6.292,1.634-9.426,2.502
			c-2.028,0.563-4.022,1.266-6.05,1.823C15.707,87.135,15.25,86.601,15.141,86.26z M17.967,94.604
			c-0.183,0.05-0.642-0.303-0.706-0.546c-0.459-1.751-0.848-3.524-1.202-5.045c1.737-0.611,3.317-1.331,4.967-1.709
			c2.587-0.596,5.257-0.818,7.83-1.473c1.843-0.468,3.631-1.284,5.348-2.15c0.806-0.407,1.775-0.145,2.405,1.009
			c0.926,1.703-0.612,1.903-1.372,2.309c-3.639,1.958-7.295,3.896-11.038,5.618C22.222,93.525,20.06,93.995,17.967,94.604z
			 M23.38,99.427c0.013,0.393-0.267,0.813-0.476,1.184c-0.226,0.403-0.519,0.762-0.821,1.194c-1.827-1.914-1.075-4.246-1.096-6.479
			c0.804-0.35,1.624-0.705,2.406-1.045c-0.125,0.97-0.336,1.937-0.347,2.909C23.038,97.931,23.356,98.678,23.38,99.427z
			 M26.187,115.14c-1.509-1.212-2.895-2.28-4.23-3.411c-1.714-1.45-3.446-2.888-5.057-4.459c-0.878-0.856-2.028-1.728-1.509-3.348
			c0.107-0.335,0.225-0.663,0.327-0.965c2.429,1.715,4.877,3.457,7.342,5.179c0.888,0.621,1.917,1.072,2.673,1.83
			c0.388,0.389,0.391,1.278,0.435,1.952C26.235,112.914,26.187,113.918,26.187,115.14z M26.656,108.416
			c-1.406-0.811-2.826-1.608-4.168-2.529c-1.603-1.1-3.131-2.322-4.692-3.492c-0.383-0.288-0.777-0.562-1.133-0.884
			c-0.089-0.081-0.129-0.419-0.068-0.467c0.837-0.663,1.694-1.298,2.603-1.982c-0.18,2.933,1.837,4.795,4.187,5.21
			c2.554,0.45,5.119,0.884,7.699,1.106c2.185,0.187,4.399,0.161,6.588,0.039c1.702-0.093,3.385-0.524,5.086-0.688
			c0.25-0.025,0.554,0.593,0.834,0.914c-0.281,0.184-0.551,0.506-0.841,0.529c-2.577,0.207-5.165,0.293-7.736,0.549
			c-2.504,0.25-4.947,0.828-7.245,1.982C27.498,108.838,26.987,108.609,26.656,108.416z M29.825,111.627
			c0.703-0.045,1.543,0.009,2.332-0.17c2.57-0.585,5.124-1.256,7.684-1.895c0.657-0.164,1.305-0.38,1.971-0.479
			c0.221-0.033,0.48,0.215,0.72,0.336c-0.193,0.201-0.358,0.525-0.584,0.585c-1.899,0.488-3.799,1.007-5.724,1.369
			c-2.439,0.459-4.904,0.784-7.359,1.156c-0.264,0.04-0.538,0.007-0.832,0.007v-0.646C28.601,111.808,29.163,111.724,29.825,111.627
			z M28.157,110.841c0.165-1.024,0.477-1.097,1.86-1.303c3.701-0.55,7.383-1.221,11.074-1.84c0.43-0.072,0.866-0.121,1.654-0.228
			c-0.441,0.541-0.636,0.99-0.947,1.114c-0.424,0.17-0.948,0.032-1.411,0.132c-2.72,0.581-5.426,1.25-8.159,1.769
			C30.896,110.737,29.516,110.731,28.157,110.841z M35.235,112.07c2.256-0.427,4.492-0.986,6.733-1.501
			c0.187-0.044,0.346-0.258,0.529-0.275c0.156-0.018,0.327,0.135,0.492,0.212c-0.103,0.119-0.19,0.31-0.315,0.347
			c-2.127,0.62-4.239,1.317-6.393,1.8c-2.563,0.574-5.163,0.979-7.756,1.388c-0.182,0.028-0.446-0.515-0.667-0.786
			C30.504,112.837,32.881,112.518,35.235,112.07z M37.942,113.38c-2.097,0.625-4.21,1.206-6.343,1.679
			c-1.248,0.278-2.546,0.31-3.821,0.452c-0.037-0.18-0.071-0.362-0.107-0.543c0.672-0.177,1.337-0.372,2.011-0.527
			c1.573-0.36,3.147-0.715,4.725-1.044c1.984-0.413,3.979-0.76,5.954-1.214c1.062-0.245,2.103-0.618,3.109-1.049
			c0.105-0.046-0.053-0.886-0.165-1.338c-0.093-0.383-0.297-0.737-0.452-1.103l0.35-0.247c0.579,0.786,1.157,1.571,1.735,2.357
			c-0.217,0.168-0.413,0.41-0.656,0.494C42.173,112.013,40.072,112.746,37.942,113.38z M31.018,171.778
			c-0.772,2.68-2.314,4.783-4.55,6.191c-1.909,1.203-4.078,1.306-6.317,1.261c-2.291-0.047-4.272-0.82-5.977-2.183
			c-1.113-0.889-2.045-2.227-2.66-3.567c-0.85-1.849-1.634-3.853-1.855-5.861c-0.152-1.408,0.437-3.089,1.142-4.376
			c1.116-2.033,2.639-3.832,4.826-4.709c3.321-1.333,6.683-1.633,9.877,0.306c1.071,0.648,1.924,1.725,2.799,2.683
			c0.515,0.56,0.908,1.255,1.286,1.933c0.072,0.126-0.13,0.604-0.294,0.666c-1.621,0.613-3.25,1.212-4.906,1.711
			c-0.245,0.073-0.689-0.342-0.951-0.625c-1.223-1.32-2.747-1.08-3.944-0.36c-0.746,0.448-1.35,1.719-1.437,2.761
			c-0.127,1.517,0.396,3.32,1.545,3.841c1.275,0.576,2.688,0.235,3.842-1.182c0.331-0.406,0.48-1.051,0.878-1.308
			c0.534-0.349,1.239-0.39,1.846-0.632c1.578-0.627,3.139-1.293,4.736-1.953C31.501,168.171,31.545,169.955,31.018,171.778z
			 M144.29,103.413c2,1.027,4.089,1.866,6.067,2.935c1.301,0.704,2.474,1.668,3.697,2.523c0.04,0.028,0.056,0.184,0.023,0.22
			c-1.364,1.583-2.749,3.14-4.097,4.737c-1.47,1.742-2.933,3.495-4.349,5.289c-1.823,2.307-3.587,4.67-5.399,6.991
			c-0.487,0.623-1.057,1.179-1.416,1.576c-0.671-0.764-1.215-1.49-1.867-2.095c-0.661-0.614-1.425-1.105-2.16-1.661
			c1.041-1.405,2.1-2.69,2.967-4.109c0.204-0.332-0.083-1.253-0.418-1.648c-0.801-0.941-1.849-1.651-2.615-2.614
			c-0.285-0.354-0.184-1.191-0.045-1.75c0.538-2.175,1.165-4.324,1.749-6.486c0.638-2.354,1.261-4.711,1.922-7.176
			C140.362,101.257,142.301,102.392,144.29,103.413z M134.332,138.294c-0.612,0.254-1.202,0.512-1.811,0.712
			c-0.026,0.008-0.283-0.506-0.303-0.788c-0.047-0.644-0.015-1.295,0.322-2.17C133.081,136.725,133.621,137.404,134.332,138.294z
			 M133.772,128.591c0.116,0.12,0.18,0.294,0.27,0.443c-0.152,0.055-0.303,0.111-0.54,0.194c0.091,1.097,0.455,2.289,0.184,3.288
			c-0.219,0.808-1.164,1.884-1.862,1.951c-1.156,0.108-0.994,0.808-1.231,1.489c-0.218,0.625-0.565,1.219-0.934,1.766
			c-0.394,0.585-0.882,1.1-1.392,1.721c0.405-1.524,0.714-3,1.19-4.413c0.829-2.469,1.755-4.901,2.673-7.336
			c0.041-0.103,0.469-0.176,0.598-0.082C133.109,127.888,133.439,128.246,133.772,128.591z M133.406,125.849
			c0.272-0.38,0.618-0.699,0.786-0.881c0.59,0.506,1.042,1.019,1.594,1.341c0.965,0.56,1.462,1.501,0.76,2.288
			c-0.55,0.612-1.621,0.312-2.242-0.533c-0.364-0.492-0.783-0.944-1.092-1.469C133.121,126.44,133.264,126.048,133.406,125.849z
			 M134.071,134.543h-1.428c0.323-0.383,0.686-0.81,1.044-1.238C133.809,133.697,133.932,134.094,134.071,134.543z M130.647,140.835
			c-0.107,0.259-0.203,0.641-0.398,0.72c-0.455,0.184-0.964,0.219-1.5,0.324c0.471-0.396,0.896-0.764,1.334-1.114
			c0.132-0.104,0.303-0.159,0.457-0.238C130.578,140.632,130.675,140.761,130.647,140.835z M127.923,138.308v-8.921
			c0.681,0.377,1.458,0.806,2.14,1.182C129.317,133.265,128.514,136.164,127.923,138.308z M130.35,137.592
			c0.156,2.311-0.488,3.264-2.89,4.152C128.503,140.245,129.384,138.977,130.35,137.592z M138.251,134.249
			c-0.221-0.086-0.254-0.709-0.419-1.222c0.922,0.607,1.708,1.126,2.493,1.643C139.628,134.549,138.904,134.499,138.251,134.249z
			 M128.232,106.771c-0.068-1.636,0.072-3.282,0.156-4.923c0.063-1.206,0.157-2.141,0.262-3.537
			c2.931-0.007,7.188,1.007,8.018,1.357c1.036,0.238,1.234,0.882,0.745,2.047c-0.265,0.634-0.369,1.343-0.579,2.007
			c-0.056,0.18-1.21,3.97-1.639,5.746c-0.419,1.74-0.849,3.478-1.286,5.262c-1.634-1.594-3.146-3.308-4.892-4.691
			C127.774,109.053,128.277,107.87,128.232,106.771z M127.334,84.488c-0.072,0.62-0.075,1.3-0.254,1.921
			c-0.102,0.354-0.492,0.614-0.752,0.919c-0.204-0.345-0.579-0.687-0.584-1.033c-0.015-1.257,0.068-2.52,0.187-3.772
			c0.014-0.143,0.491-0.308,0.764-0.326c0.137-0.011,0.388,0.264,0.422,0.445C127.229,83.236,127.265,83.845,127.334,84.488z
			 M129.039,68.366c0.003,0.368,0.094,0.835-0.083,1.077c-0.213,0.289-0.662,0.385-1.345,0.736
			c-0.646-0.116-1.529-0.261-2.401-0.452c-0.13-0.028-0.338-0.338-0.302-0.415c0.193-0.422,0.44-0.82,0.704-1.198
			c0.021-0.028,0.324,0.14,0.479,0.244c0.843,0.555,1.668,0.765,2.505-0.03C128.675,68.252,129.039,68.347,129.039,68.366z
			 M128.359,50.567c0.014,0.004,0.034-0.002,0.045,0.004c0.943,0.518,1.405,1.212,1.812,1.927c0.705,1.233,0.651,1.87,0.436,2.782
			c-0.119,0.504-1.259,0.956-1.755,1.328c-1.16,0.865-0.498,2.087-0.571,3.151c-0.113,1.646-0.13,3.298-0.181,4.947
			c-0.028,0.969-0.022,1.936-0.09,2.901c-0.012,0.2-0.259,0.485-0.446,0.536c-0.158,0.045-1.19-0.329-1.158-1.103
			c0.056-1.478-0.067-1.907,0.003-3.1c0.046-0.783-0.017-3.994-0.017-3.994s0.747-0.562,1.145-1.823
			c0.426-1.36,0.538-2.291,0.7-3.723c0.033-0.287-0.607-1.25-1.009-1.285c-0.589-0.053-0.951,0.179-1.321,0.62
			c-0.355,0.426-0.361,1.171-0.571,1.968c-0.317-0.581-1.017-1.48-0.984-2.571c0.031-0.972,0.513-1.473,1.171-2.077
			C126.191,50.484,127.408,50.35,128.359,50.567z M101.678,31.605c1.063-1.897,2.242-3.731,3.499-5.488
			c0.275-0.385,1.102-0.335,1.675-0.485c-0.133,0.434-0.182,0.93-0.416,1.292c-0.733,1.138-1.535,2.226-2.309,3.331
			c0.735,1.037,0.989,0.078,1.344-0.366c0.997-1.257,2.199-1.787,3.739-1.255c0.277,0.095,0.579,0.111,0.863,0.162
			c-0.94,0.332-1.909,0.583-2.8,1.015c-0.859,0.413-1.639,1.014-2.714,1.697c0.636,0.142,0.863,0.194,1.11,0.248
			c2.073-2.027,5.562-3.25,8.075-0.287c-3.443-1.057-6.775-2.064-8.582,2.471c0.529-0.48,1.018-1.028,1.601-1.42
			c0.542-0.364,1.201-0.826,1.777-0.783c2.243,0.165,4.479,0.463,6.702,0.832c0.567,0.093,1.066,0.625,1.673,1.005
			c-1.477,0.746-2.791,0.432-4.136-0.063c-1.716-0.633-3.415-1.241-5.201-0.009c-1.24,0.855-1.598,3.328-0.548,5.072
			c0.705,1.173,2.74,1.806,4.276,1.653c0.859-0.084,1.768,0.358,2.647,0.598c0.038,0.011-0.019,0.385-0.03,0.592
			c-0.138-0.07-0.271-0.158-0.418-0.205c-0.495-0.159-1.225-0.592-1.439-0.397c-0.471,0.428-0.679,1.174-1.053,1.905
			c-1.131,0-2.588,0.044-4.045-0.016c-1.038-0.042-1.886,0.18-2.482,1.165c-0.794,1.311-2.074,0.739-3.176,0.835
			c-0.223,0.022-0.452,0.004-0.516,0.004c-0.292-1.606-0.382-3.278-0.915-4.779C98.723,36.67,100.249,34.152,101.678,31.605z
			 M110.714,39.5c-0.95-0.197-2.036-0.085-2.557-0.604c-1.129-1.126-1.149-2.726-0.174-4.302c1.044-1.688,2.339-0.93,3.636-0.307
			C110.171,36.087,110.169,38.089,110.714,39.5z M113.204,41.947c-0.315,0.276-0.63,0.555-1.019,0.898
			c-0.154-0.254-0.386-0.508-0.34-0.588c0.174-0.308,0.397-0.641,0.684-0.793C112.646,41.4,112.971,41.771,113.204,41.947z
			 M101.585,51.58c0.234-0.275,0.428-0.706,0.708-0.781c0.312-0.085,0.701,0.157,1.056,0.256c-0.028,0.208-0.058,0.415-0.088,0.621
			C102.703,51.645,102.146,51.611,101.585,51.58z M80.689,74.401c1.06,0.543,2.281,0.747,3.438,1.072
			c2.367,0.666,4.791,0.914,7.159,0.243c3.524-0.996,6.665-2.674,8.982-5.866c1.754-2.413,2.642-5.145,3.017-8.026
			c0.306-2.357,0.124-4.786,0.179-7.18c0.003-0.154,0.142-0.385,0.272-0.441c2.822-1.23,2.869-1.231,2.444-4.547
			c-0.177-1.38-0.483-2.772-0.948-4.073c-0.542-1.522-0.269-2.091,1.695-2.198c1.506-0.082,3.034,0.052,4.534,0.248
			c1.114,0.144,3.548-1.803,3.513-2.991c0-0.007-0.002-0.016-0.003-0.023c0.006,0.018,0.012,0.033,0.022,0.056
			c0.672-0.979,1.143-1.848,1.795-2.525c0.281-0.296,0.965-0.352,1.413-0.251c1.641,0.367,3.359,0.612,4.863,1.334
			c2.915,1.397,3.838,3.616,3.386,7.019c-0.104,0.786-0.065,1.608-0.002,2.402c0.077,0.956-0.115,1.161-1.08,1.693
			c-2.027,1.114-2.234,3.301-0.861,5.159c0.814,1.105,0.558,2.536-0.688,3.11c-1.284,0.592-2.645,1-3.975,1.488l-0.11-0.383
			c0.295-0.051,0.6-0.073,0.886-0.159c0.322-0.095,0.878-0.221,0.893-0.382c0.042-0.421-0.021-1.03-0.284-1.268
			c-0.591-0.532-1.292-0.977-2.014-1.292c-1.188-0.518-1.308-1.691-1.717-2.711c-0.17-0.419-0.417-0.804-0.652-1.189
			c-0.391-0.643-0.675-1.485-1.234-1.858c-0.736-0.489-1.695-0.606-2.477-0.856c0.137-0.494,0.278-1.194,0.529-1.849
			c0.357-0.927-0.226-1.436-0.828-1.525c-0.538-0.077-1.432,0.191-1.677,0.618c-1.73,3.015-3.748,5.964-3.86,9.661
			c-0.08,2.642,0.116,5.296,0.17,7.945c0.008,0.411-0.088,0.825-0.137,1.238c-0.973-0.315-2.044,0.405-2.556,1.858
			c-0.43,1.23-1.251,2.828-1.168,3.608c0.047,0.443,0.747,0.738,0.892,1.03c0.328,0.671-1.598,3.46-2.669,4.516
			c-1.458,1.441-4.553,3.296-8.413,4.348c-2.857,0.779-5.827,0.968-8.681-0.009c-1.816-0.62-3.504-1.642-5.264-2.45
			c-0.687-0.315-1.523-0.383-2.095-0.838c-0.48-0.38-0.879-1.13-0.961-1.764c-0.204-1.614-0.209-3.257-0.291-4.833
			C77.743,72.585,79.156,73.622,80.689,74.401z M119.229,64.087c-0.834-0.287-2.03-0.235-2.487,0.065
			c-0.554,0.52-0.602,0.916-0.417,1.364c-1.761,0.091-3.909-0.711-5.143,1.744c-0.345-0.126-0.856-0.44-1.38-0.475
			c-1.18-0.078-1.491-0.622-1.499-1.856c-0.008-1.56-0.512-3.119-0.528-4.679c-0.016-1.381,0.201-2.812,0.571-4.141
			c0.582-2.096,1.371-4.129,2.102-6.176c0.044-0.123,0.363-0.145,0.559-0.196c0.997-0.259,1.575-0.807,1.297-1.995
			c-0.037-0.163,0.038-0.357,0.058-0.538c0.23,0.18,0.683,0.459,0.655,0.524c-0.421,1.047-0.904,2.068-1.379,3.093
			c-0.03,0.067-0.122,0.105-0.144,0.172c-0.149,0.414-0.288,0.831-0.429,1.25c0.37-0.238,0.779-0.427,1.099-0.721
			c1.017-0.935,1.926-0.273,2.818,0.2c0.369,0.194,0.634,0.603,1.067,1.035c-1.399,0-2.647-0.207-3.788,0.072
			c-0.771,0.187-1.4,1.049-2.069,1.639c-0.047,0.04,0.098,0.317,0.153,0.485c0.317-0.123,0.628-0.272,0.951-0.363
			c1.211-0.333,2.423-0.876,3.64-0.904c1.153-0.024,2.159,0.708,2.561,2.158c-0.262-0.072-0.497-0.079-0.676-0.191
			c-1.942-1.221-4.524-0.772-5.91,1.071c-0.087,0.113,0.043,0.406,0.072,0.614c0.179-0.051,0.46-0.047,0.518-0.163
			c0.74-1.527,2.055-1.761,3.4-1.45c1.451,0.338,2.86,0.921,4.247,1.506c0.725,0.306,1.362,0.846,2.039,1.278l-0.316,0.704
			c-1.143-0.373-2.271-0.816-3.433-1.1c-1.26-0.307-2.568-0.683-3.819-0.572c-0.44,0.038-0.953,1.387-1.116,2.206
			c-0.306,1.555,1,3.827,2.308,4.114c0.512,0.114,1.063,0.027,1.6-0.032c0.382-0.133,0.79-0.198,1.184-0.25
			c0.283-0.037,0.592-0.172,0.86-0.148c0.765-0.045,1.138-0.14,1.526,0.056c0.474,0.419,0.462,1.373,0.047,1.475
			C119.825,64.61,119.496,64.243,119.229,64.087z M119.32,65.454c-0.726,0.035-1.186,0.119-1.625,0.058
			c-0.319-0.046-0.779-0.04-0.915-0.448c-0.007-0.016,0.031-0.185,0.061-0.221c0.375-0.462,0.997-0.51,1.468-0.462
			C118.628,64.412,119.7,64.803,119.32,65.454z M110.835,49.041c0.21-0.428,0.419-0.855,0.63-1.28
			c0.111,0.058,0.224,0.116,0.336,0.176c-0.216,0.425-0.432,0.851-0.647,1.276C111.047,49.155,110.94,49.098,110.835,49.041z
			 M115.229,63.416c-0.381-0.238-0.912-0.381-1.108-0.731c-0.41-0.738-0.829-1.561-0.92-2.387c-0.282-2.572,0.837-2.612,2.676-2.1
			C113.56,60.315,113.416,61.138,115.229,63.416z M73.519,46.323c2.126,1.15,2.286,5.509-0.107,8.202
			c-1.009-1.131-2.022-2.266-3.069-3.44c-0.132-0.1-0.251-0.22-0.369-0.353c0.364-0.123,0.728-0.237,1.1-0.324
			c1.515-0.708,1.295-2.426,1.256-3.935C72.345,46.085,73.342,46.188,73.519,46.323z M82.617,30.413
			c-0.18,0.27-0.655,0.256-0.959,0.303c-0.113-0.028-0.231-0.053-0.242-0.061c-0.143-0.104-0.258-0.184-0.347-0.268
			c-0.095-0.089-0.319-0.288-0.326-0.296c-0.747-0.76-0.961-1.227-1.386-1.9c-0.064-0.103-0.215-0.343-0.138-0.527
			c0.069-0.112,0.244-0.037,0.327,0.017c0.876,0.566,1.733,1.165,2.613,1.717C82.549,29.643,82.882,30.021,82.617,30.413z
			 M83.534,29.046c-0.207,0.345-0.623,0.084-0.736,0.042c-1.044-0.769-1.915-1.411-2.785-2.057
			c-0.071-0.055-0.168-0.088-0.177-0.217c-0.006-0.07,0.138-0.096,0.198-0.086c0.925,0.175,1.914,0.047,2.696,0.639
			c0.072,0.055,0.183,0.182,0.251,0.245c0.091,0.088,0.198,0.169,0.281,0.275C83.452,28.13,83.689,28.563,83.534,29.046z
			 M88.72,17.922c-2.317,0.189-4.865-2.556-4.712-5.139c0.032-0.548,0.295-1.081,0.452-1.62c0.206,0.084,0.488,0.101,0.603,0.265
			c0.67,0.949,1.199,2.052,1.975,2.871c1.163,1.233,2.546,2.119,4.275,1.921C91.102,17.288,90.317,17.791,88.72,17.922z
			 M88.115,14.264c0.689,0.343,1.366-0.14,1.544-0.888c0.182,0.224,0.616,0.719,1,1.261c0.165,0.226,0.226,0.546,0.333,0.823
			c-0.294,0.009-0.603,0.089-0.878,0.018c-1.821-0.473-3.031-1.814-3.968-3.531c-0.104-0.193-0.223-0.372-0.573-0.95
			c1.14,0.45,1.972,0.779,2.802,1.106c-0.135,0.062-0.725,0.012-0.907,0.771C87.344,13.387,88.115,14.264,88.115,14.264z
			 M91.729,14.865c-0.828-0.96-1.613-2.205-2.668-3.007c-1.044-0.793-2.362-1.136-3.411-1.611c1.195-0.713,3.848-0.62,4.713,0.22
			C92.595,12.636,92.328,13.157,91.729,14.865z M92.395,13.837c-0.05-0.655-0.193-1.364-0.436-2.023
			c-0.471-0.809-0.84-1.651-2.992-2.234c-0.047-0.014-2.521-0.291-3.587,0.353c-1.18,0.716-1.571,1.923-1.681,3.326
			c0.005,0.016,0.011,0.027,0.013,0.045c0.056,0.688,0.16,1.431,0.386,2.097c0.259,0.432,0.532,0.991,0.917,1.346
			c0.441,0.41,0.879,0.699,1.317,1.107c1.105,1.029,2.849,0.341,4.086,0.018c0.234-0.062,0.364,0.336,0.129,0.397
			c-1.265,0.333-2.946,0.973-4.155,0.149c-0.369-0.177-0.783-0.497-1.173-0.888c-0.695-0.387-1.138-1.063-1.422-1.84
			c-0.218-0.366-0.356-0.77-0.432-1.236c-0.276-1.676-0.064-3.429,1.074-4.653c0.702-0.753,1.507-1.032,2.355-1.075
			c0.027-0.024,1.025-0.116,1.486-0.023c0.312,0.063,1.505,0.31,1.536,0.349c0.71,0.204,1.349,0.696,1.844,1.31
			c0.8,0.995,1.017,2.147,1.115,3.443C92.793,14.075,92.414,14.108,92.395,13.837z M88.08,7.112c1.675-0.068,2.957,0.9,4.129,1.979
			c0.849,0.779,1.454,1.888,2.165,2.853c0.028,0.04,0.042,0.146,0.017,0.172c-0.391,0.441-0.788,0.874-1.236,1.362
			c0.349-2.338-1.899-4.73-3.852-5.139c-0.563-0.12-0.779-0.242-1.939-0.224c-1.068,0.016-2.022,0.385-3.234,1.27
			c-0.248,0.18-0.579-0.308-1.014-0.506C84.592,7.044,86.35,7.185,88.08,7.112z M82.866,9.286c0.27,0.196,0.54,0.392,0.808,0.59
			c-0.075,0.109-0.151,0.217-0.226,0.326c-0.229-0.261-0.46-0.52-0.689-0.779C82.796,9.377,82.832,9.331,82.866,9.286z
			 M67.782,42.751c0.126-0.766,0.416-1.499,0.644-2.242c0.465-1.502,0.936-3.003,1.408-4.503c0.73-2.319-0.495-3.707-0.76-5.824
			c-0.275-2.189-0.611-4.547,0.442-6.385c1.106-1.93,0.078-3.73,0.136-5.677c0.043-1.352,0.972-2.551,1.554-3.847
			c0.397-0.882,0.964-2.892,1.644-3.221c1.165-0.561,2.352-1.322,3.491-0.606c0.766,0.359,0.964,1.561,0.815,1.955
			c-0.323,0.846-0.851,1.592-1.254,2.404c-0.185,0.375-0.272,0.809-0.436,1.319c0.047-0.038,1.537,0.863,2.223,1.219
			c0.535,0.28,1.118,0.484,1.701,0.587c0.138,0.026,0.392-0.454,0.526-0.741c0.477-1.021,0.969-2.04,1.372-3.097
			c0.477-1.244,0.872-2.527,1.302-3.793c1.154,0.36,0.494,1.35,0.336,1.947c-0.447,1.694,0.374,4.577,1.987,5.618
			c2.385,1.535,2.351,1.6,5.463,1.146c-0.515,1.585-0.95,3.118-1.526,4.578c-0.16,0.402-0.779,0.87-1.132,0.821
			c-0.597-0.084-1.328-1.08-1.328-1.08c0.428-0.329,0.394-1.12-0.083-1.518c-0.767-0.1-1.138,0.384-1.241,0.857
			c-0.244-0.294-0.778-0.41-1.162-0.916c-0.077-0.101-0.363-0.418-0.154-0.807c0.102-0.191,0.62-0.139,0.82-0.191
			c0.176-0.045,0.363-0.065,0.523-0.144c0.054-0.026,0.088-0.28,0.055-0.304c-0.185-0.138-0.456-0.303-0.583-0.327
			c-0.703-0.13-1.487,0.205-1.736,1.271c-0.03,0.121,0.237,0.884,0.519,1.17c0.556,0.564,1.215,0.998,1.639,1.333
			c-0.29,0.629-0.23,1.354-0.742,2.299c-0.168,0.286-0.298,0.494-0.459,0.608c-0.213,0.154-0.371,0.275-0.626,0.382
			c-0.547-0.25-1.818-0.776-2.713-0.802c-0.232-0.007-0.514-0.107-0.749-0.1c-0.718,0.024-1.025,0.417-1.057,1.086
			c-0.093,1.926,1.066,2.431,2.066,3.464c0.081,0.084,0.18,0.147,0.283,0.205c0.136,0.149,0.276,1.094,0.268,1.602
			c-0.015,1.105,0.085,1.616-0.279,3.168c-0.306,1.308-1.243,2.09-2.631,2.742c-0.763,0.36-1.856,0.029-2.876,0.06
			c-0.802,0.029-1.646-0.403-2.403-0.238c-0.377,0.084-0.7,1.014-0.871,1.623c-0.7,2.517-0.812,5.11-0.661,7.722
			c0.08,1.394-0.676,2.426-1.774,2.335c-0.559-0.047-1.543,0.005-1.6-0.221c-0.27-1.059-0.652-2.663-0.66-3.775
			C67.493,44.855,67.612,43.789,67.782,42.751z M65.206,46.516c0.054-0.074,0.289-0.309,0.397-0.398
			c0.215-0.177,0.425-0.41,0.687-0.529c-0.001,0.303,0.011,0.58,0,0.885c-0.045,1.105,0.231,2.221,0.52,3.287
			c0.316,1.175,1.079,1.152,1.872,1.096c-0.036,0.124-0.063,0.254-0.063,0.394c0,0.063-0.021,0.112-0.047,0.153
			c-0.137,1.238-0.267,2.456-0.418,3.67c-0.028,0.235-0.166,0.453-0.256,0.679c-0.253-0.179-0.597-0.298-0.743-0.544
			c-0.546-0.932-0.917-2-1.563-2.841C64.725,51.237,64.379,47.65,65.206,46.516z M52.094,102.757
			c-0.287-0.131-0.731-0.185-0.834-0.409c-0.452-0.999-0.868-2.024-1.171-3.082c-0.208-0.73-0.389-1.564-0.262-2.286
			c0.215-1.226,2.86-2.21,4.081-1.04C52.198,98.257,51.294,101.719,52.094,102.757z M64.947,110.664
			c-0.041,0.084-0.165,0.125-0.205,0.21c-0.656,1.484-1.315,1.627-2.055,0.047c-0.391-0.837-0.847-1.641-1.452-2.799
			c0.643-0.151,1.201-0.483,1.57-0.327c0.958,0.406,1.85,1.003,2.711,1.613C65.572,109.445,65.155,110.231,64.947,110.664z
			 M81.997,94.767c-0.589,0.196-1.338-0.166-2.017-0.25c-2.462-0.298-3.435-2.245-4.324-4.375c1.174,0.379,2.091,0.072,2.647-1.132
			c0.027-0.056,0.229-0.046,0.344-0.029c1.513,0.232,3.022,0.637,4.538,0.674c3.262,0.078,6.548,0.204,9.78-0.151
			c2.098-0.227,4.12-1.254,6.17-1.94c1.132-0.38,2.304-0.687,3.37-1.222c2.091-1.052,4.24-2.074,5.462-4.36
			c0.614-1.154,1.339-2.258,1.843-3.461c0.416-0.988,0.479-2.138,0.896-3.124c0.214-0.511,0.912-0.772,1.297-1.233
			c0.932-1.117,1.879-4.254,0.703-5.815c-0.176-0.235-0.79-0.612-1.019-0.818c0.036-0.034,0.405-0.573,0.405-0.573
			c0.364-0.275,0.554-0.627,0.934-0.653c1.421-0.098,2.851-0.046,4.276-0.046c0.708-0.001,1.496,0.099,2.088-0.064
			c0.652-0.176,1.141-0.384,1.455-1.11c0.116-0.268,0.251-1.233-0.444-1.956c-0.064-0.061-0.329-0.329-0.34-0.341
			c-0.074-0.083-0.066-0.181-0.022-0.255c0.171-0.353,1.042-0.497,1.166-0.532c1.485-0.41,2.088-0.613,3.543-1.16
			c0.204-0.075,0.922-0.46,1.239-0.616l-0.04,7.321c-1.407-0.129-1.385,1.107-1.668,1.95c-0.078,0.231,0.485,0.701,0.578,0.826
			c-0.163,0.899-0.269,1.711-0.477,2.494c-0.066,0.247-0.488,0.37-0.618,0.622c-0.688,1.334-0.931,2.557,0.7,3.182
			c-0.482,0.479-0.771,1.089-0.08,2.038c-0.719,0.256-0.885,1.67-0.391,2.448c0.273,0.429,0.507,0.366,0.688,0.621
			c0.221,0.312,0.482,0.703,0.482,1.058c-0.003,0.883-0.176,1.763-0.221,2.648c-0.035,0.676-0.192,0.918-0.949,0.923
			c-2.981,0.016-5.967,0.07-8.939,0.299c-2.772,0.215-5.535,0.62-8.289,1.038c-2.592,0.393-4.829,0.965-7.385,1.561
			c-1.744,0.408-3.763,1.055-5.491,1.56c-2.8,0.82-5.648,1.469-8.434,2.334C84.253,93.52,83.191,94.372,81.997,94.767z
			 M124.197,106.393c-2.513-2.35-5.113-4.78-8.016-7.491c2.253-0.235,4.259-0.247,6.174-0.695c2.011-0.471,1.895,0.648,1.855,2.051
			C124.156,102.282,124.197,104.309,124.197,106.393z M124.136,140.413c-0.76-1.112-1.537-2.224-2.29-3.354
			c-1.603-2.411-3.14-4.875-4.807-7.232c-1.757-2.485-3.722-4.809-5.421-7.334c-0.639-0.949-0.768-2.275-1.16-3.415
			c-0.419-1.224-0.859-2.439-1.321-3.644c-0.482-1.26-1.014-2.497-1.501-3.753c-1.074-2.758-3.094-4.208-5.822-4.658v-0.558
			c1.345-0.084,2.708-0.364,4.017-0.189c1.024,0.137,2.174,0.608,2.924,1.327c2.142,2.047,4.162,4.245,6.127,6.482
			c1.984,2.261,3.868,4.623,5.754,6.977c0.92,1.148,1.964,2.275,2.549,3.607c0.51,1.163,0.502,2.592,0.636,3.914
			c0.166,1.632,0.287,3.271,0.343,4.91c0.048,1.509-0.018,3.024-0.028,4.536C124.131,138.807,124.136,139.583,124.136,140.413z
			 M118.089,146.496c0.041-1.552,1.239-1.364,2.149-1.415c0.832-0.047,1.676,0.142,2.577,0.233
			c-1.598,1.763-3.133,3.457-4.735,5.225C118.081,149.114,118.053,147.804,118.089,146.496z M122.557,142.954
			c-1.353,0.135-2.725,0.052-4.079,0.175c-0.797,0.072-1.592,0.286-1.817,1.375c-0.255,1.219-1.486,0.804-2.212,1.255
			c-0.583,0.363-1.375,0.371-2.083,0.463c-0.279,0.036-0.584-0.13-0.876-0.203l0.079-0.338c0.857-0.196,1.739-0.322,2.556-0.634
			c0.217-0.085,0.319-0.743,0.325-1.14c0.036-1.659,0.016-3.319,0.016-5.044c1.159,0.382,2.408,0.801,3.664,1.202
			c1.115,0.355,2.237,0.688,3.355,1.035c0.523,0.163,1.044,0.333,1.559,0.52c0.064,0.023,0.148,0.205,0.121,0.259
			C122.976,142.261,122.791,142.93,122.557,142.954z M109.541,149.039c-0.99-0.834-0.987-2.023-2.021-2.949
			c1.133-0.566,2.045-0.352,2.573-0.167c0.427,0.315,0.867,1.159,0.875,1.193c0.121,0.583,0.201,1.175,0.289,1.765
			C111,148.836,109.719,149.188,109.541,149.039z M112.303,155.194c0.162-0.358,0.341-0.755,0.549-1.214
			c0.485,0.289,1.058,0.631,1.781,1.062C113.678,155.103,112.889,155.155,112.303,155.194z M112.103,146.923
			c1.428-0.396,2.841-0.786,4.307-1.191v4.091C115.167,148.505,112.919,149.002,112.103,146.923z M122.477,140.947
			c-2.719-0.856-5.437-1.707-8.123-2.665c-0.233-0.082-0.241-0.902-0.331-1.385c-0.293-1.604-0.538-3.218-0.869-4.814
			c-0.425-2.055-0.943-4.092-1.361-6.149c-0.117-0.58-0.019-1.207-0.019-1.812l0.276-0.209c3.956,5.674,7.909,11.348,12.069,17.314
			C123.354,141.101,122.899,141.082,122.477,140.947z M89.531,95.186c0.183-0.1,0.354-0.236,0.548-0.29
			c1.689-0.475,3.372-0.974,5.075-1.387c1.323-0.323,2.667-0.568,4.01-0.794c3.187-0.534,6.366-1.162,9.573-1.513
			c2.494-0.273,5.025-0.177,7.542-0.256c1.626-0.052,3.257-0.051,4.876-0.208c1.942-0.191,2.745,0.257,2.742,1.877
			c0,0.268-0.57,0.749-0.893,0.765c-1.627,0.083-3.273-0.086-4.888,0.081c-1.681,0.175-3.361,0.538-4.995,1.001
			c-1.124,0.321-2.137,1.095-3.261,1.389c-0.655,0.171-1.434-0.259-2.163-0.322c-2.061-0.175-4.126-0.298-6.19-0.448
			c-1.013-0.074-2.024-0.171-3.038-0.24c-0.387-0.026-3.577,0.038-4.755,0.114C92.339,95.042,90.97,95.247,89.531,95.186z
			 M90.322,130.889c0.176-2.424,0.48-4.843,0.861-7.243c0.145-0.904,0.57-1.769,0.937-2.618c0.743-1.72,1.534-3.417,2.512-5.581
			c1.157,1.478,2.365,2.698,3.17,4.164c0.51,0.931,0.377,2.238,0.615,3.359c0.49,2.315,1.049,4.616,1.551,6.928
			c0.34,1.576,0.633,3.164,1.023,5.14c-2.285-0.614-4.283-1.167-6.289-1.681c-1.281-0.329-2.565-0.704-3.87-0.869
			C89.464,132.317,90.293,131.293,90.322,130.889z M96.775,160.602c-0.639-0.78-1.363-1.496-1.909-2.339
			c-0.831-1.279-1.545-2.644-2.304-3.975c-0.099-0.175-0.158-0.375-0.27-0.541c-0.906-1.369,0.256-1.228,0.934-1.398
			c3.67-0.919,7.344-1.814,11.011-2.741c0.787-0.197,1.556-0.471,2.324-0.739c0.165-0.056,0.754-0.315,0.896-0.438
			c-0.203-0.086-0.261-0.445-0.426-0.395c-1.006,0.296-2.62,0.943-3.631,1.21c-2.229,0.589-4.471,1.117-6.709,1.665
			c-1.263,0.31-2.544,0.548-3.788,0.928c-0.973,0.298-1.476,0.087-1.67-1.019c-0.319-1.804-0.838-3.573-1.069-5.385
			c-0.215-1.683-0.204-3.401-0.221-5.105c-0.02-1.87,0.04-3.743,0.078-5.614c0.012-0.639,0.064-1.278,0.084-1.664
			c1.686,0.338,3.402,0.662,5.11,1.029c1.7,0.365,3.408,0.704,5.068,1.223c0.32,0.101,0.565,0.967,0.601,1.499
			c0.13,1.967,0.125,3.942,0.237,5.911c0.057,1,0.119,2.038,0.422,2.973c0.418,1.294,1.546,0.788,2.428,0.739
			c0.541-0.027,1.07-0.243,1.614-0.327c1.211-0.188,1.08,1.146,1.655,1.693c0.429,0.408,0.666,1.042,0.982,1.58
			c0.047,0.081,0.094,0.189,0.08,0.275c-0.212,1.329-0.433,2.658-0.656,3.986c-0.182,1.101,0.421,1.956,1.463,1.975
			c0.822,0.016,0.863,0.561,0.92,1.204c0.032,0.343,0.151,0.762,0.374,0.983c0.653,0.642,0.38,1.188-0.091,1.688
			c-1.474,1.564-2.959,3.119-4.473,4.639c-1.059,1.066-2.172,2.074-3.477,3.31C100.549,165.215,98.663,162.906,96.775,160.602z
			 M116.472,175.053c-1.783-0.58-3.594-1.179-5.245-2.074c-2.067-1.121-3.987-2.543-5.972-3.833
			c-0.474-0.31-0.932-0.653-1.426-0.919c-1.023-0.548-0.413-1.091,0.021-1.543c1.595-1.658,3.25-3.25,4.829-4.921
			c0.854-0.904,1.593-1.924,2.405-2.872c0.082-0.095,0.325-0.123,0.449-0.068c1.527,0.655,2.769,0.476,4.067-0.808
			c0.796-0.786,1.413-1.391,1.182-2.62c0.686,0,1.265-0.007,1.848,0.002c1.364,0.021,1.917-0.898,1.262-2.322
			c-0.335-0.73-0.935-1.325-1.439-2.012c1.543-1.798,3.164-3.688,4.765-5.558c0.083,0.023,0.108,0.023,0.126,0.033
			c2.332,1.277,0.596,3.01,0.319,4.429c-0.628,3.19-1.597,6.306-2.328,9.475c-0.77,3.346-1.422,6.718-2.135,10.077
			c-0.357,1.679-0.768,3.348-1.085,5.036C117.862,175.904,116.938,175.205,116.472,175.053z M123.309,175.603
			c-1.491,0.156-3.024-0.083-4.53-0.213c-0.026-0.001-0.063-0.908,0.044-1.357c0.213-0.907,0.573-1.777,0.787-2.686
			c0.289-1.241,0.514-2.499,0.744-3.757c0.438-2.383,0.797-4.785,1.306-7.153c0.55-2.543,1.213-5.059,1.867-7.576
			c0.526-2.029,1.075-4.052,1.717-6.043c0.077-0.238,0.794-0.248,1.319-0.393c1.519,4.478,3.038,8.893,4.513,13.323
			c1.502,4.511,2.962,9.038,4.438,13.552C131.73,175.082,127.482,175.163,123.309,175.603z M136.325,173.091
			c-0.936-2.387-1.876-4.606-2.676-6.88c-0.672-1.919-1.138-3.916-1.764-5.851c-0.896-2.766-1.843-5.514-2.797-8.258
			c-0.653-1.882-1.394-3.732-1.994-5.631c-0.08-0.253,0.446-0.719,0.653-1.029c8.064,6.392,16.139,12.792,24.334,19.288
			C146.58,167.649,141.438,170.377,136.325,173.091z M159.018,155.559c-1.209,2.835-1.898,4.951-3.977,7.049
			c-0.662,0.669-1.482,1.187-2.293,1.655c-0.21,0.121-0.716-0.139-0.986-0.359c-2.001-1.627-3.964-3.31-5.969-4.937
			c-2.697-2.193-5.395-4.385-8.14-6.513c-2.381-1.846-4.837-3.583-7.236-5.404c-0.76-0.578-1.449-1.262-2.148-1.928
			c-0.113-0.106-0.138-0.36-0.13-0.544c0.002-0.061,0.226-0.116,0.256-0.13c1.638,0.356,3.171,0.69,4.705,1.019
			c2.51,0.54,5.045,0.971,7.522,1.639c2.831,0.765,5.606,1.751,8.41,2.62c1.695,0.524,3.306,1.34,4.96,1.979
			c2.281,0.881,3.243,1.499,5.463,2.548C159.493,154.268,159.205,155.121,159.018,155.559z M162.266,147.456
			c-0.686,2.133-1.554,4.201-2.323,6.25c-9.941-4.425-18.749-7.498-29.141-9.185c0.484-0.461,0.973-0.927,1.462-1.394
			c-0.072-0.08-0.144-0.161-0.217-0.243c2.008-0.284,4.011-0.583,6.019-0.842c0.839-0.106,1.684-0.129,2.528-0.182
			c2.145-0.137,4.295-0.205,6.433-0.415c2.62-0.258,5.231-0.633,7.846-0.956c2.604-0.322,3.352-0.643,5.956-0.968
			c0.992-0.123,1.983-0.268,2.978-0.369c0.088-0.011,0.306,0.262,0.282,0.35C163.348,142.159,163.114,144.835,162.266,147.456z
			 M164.192,137.949c-0.009,0.28-1.047,0.671-1.642,0.753c-2.906,0.399-3.969,0.704-6.882,1.053
			c-3.606,0.432-7.206,0.934-10.816,1.29c-2.102,0.205-4.234,0.077-6.333,0.29c-2.148,0.221-4.275,0.676-6.453,1.035
			c0.083-0.891,0.162-1.715,0.21-2.235c0.849-0.599,1.531-1.203,2.311-1.569c0.353-0.166,0.926,0.077,1.369,0.238
			c1.454,0.527,2.854,0.217,4.028-0.625c0.889-0.639,1.525-2.579,0.383-3.494c1.227,0.151,2.48,0.54,3.674,0.389
			c2.017-0.254,2.31-1.587,1.182-3.446c-1.156-1.905-2.974-2.41-4.794-3.021c-0.333-0.112-0.653-0.27-0.98-0.406
			c0.119-0.299,0.18-0.653,0.369-0.892c1.162-1.469,2.354-2.91,3.537-4.36c1.679-2.057,3.364-4.112,5.039-6.174
			c1.695-2.085,3.37-4.187,5.074-6.264c0.346-0.423,0.774-0.77,1.163-1.15c3.362,1.914,3.574,4.951,4.912,8.586
			c0.911,2.473,1.705,4.996,2.523,7.505c0.05,0.151-0.088,0.503-0.218,0.56c-3.357,1.476-4.846,2.985-8.239,4.363
			c-2.289,0.928-4.65,1.657-6.969,2.504c-0.21,0.077-0.348,0.376-0.521,0.572c0.217,0.012,0.452,0.093,0.642,0.028
			c2.292-0.792,4.595-1.554,6.86-2.427c2.747-1.061,3.609-2.21,6.33-3.346c0.841-0.352,1.648-0.794,2.639-1.275
			c0.468,1.983,1.071,3.967,1.375,5.999C164.24,134.244,164.257,136.112,164.192,137.949z"/>
	</g>
</g>
</svg>
