<?xml version="1.0" encoding="iso-8859-1"?>
<!-- Generator: Adobe Illustrator 21.0.0, SVG Export Plug-In . SVG Version: 6.00 Build 0)  -->
<svg version="1.2" baseProfile="tiny" id="Layer_1" xmlns="http://www.w3.org/2000/svg" xmlns:xlink="http://www.w3.org/1999/xlink"
	 x="0px" y="0px" viewBox="0 0 25.518 45.492" xml:space="preserve">
<path fill="#C0BFBF" d="M26.663-2.457C21.68-2.342,16.565-1.506,12.329,1.121S4.896,8.447,5.131,13.426
	c-2.847,0.661-5.694,1.321-8.54,1.982c0.004,4.16,0.008,8.32,0.012,12.48c2.417,0.029,4.833,0.057,7.25,0.086
	c-0.862,7.628-0.69,13.573-0.354,21.242c5.295-0.005,10.591-0.01,15.886-0.016c1.37-7.485,1.68-13.332,1.795-20.941
	c2.38,0.113,4.772-0.003,7.13-0.345c0.305-4.056,0.416-8.127,0.332-12.194c-2.164-0.446-4.327-0.893-6.491-1.339
	c-0.23-4.17,3.815-3.718,5.374-6.338C28.16,6.976,27.053-2.466,26.663-2.457z"/>
<path fill="#FFFFFF" d="M17.145,1.305c0.862-0.171,1.676-0.341,2.5-0.503c0.339-0.066,0.698-0.095,1.037-0.161
	c1.027-0.218,2.035-0.484,3.072-0.635c0.31-0.047,0.669,0.209,0.998,0.36c0.32,0.152,0.407,0.417,0.455,0.797
	c0.223,1.878,0.271,3.765,0.31,5.653c0,0.18-0.213,0.455-0.397,0.541c-0.572,0.285-1.173,0.503-1.773,0.721
	c-1.066,0.408-2.161,0.797-2.994,1.584c-0.562,0.531-1.027,1.157-1.454,1.793c-0.485,0.721-0.901,1.489-1.289,2.267
	c-0.174,0.332-0.223,0.74-0.281,1.11c-0.116,0.711-0.203,1.413-0.271,2.124c-0.01,0.085,0.194,0.266,0.31,0.275
	c1.192,0.066,2.384,0.019,3.566-0.171c0.717-0.114,1.444-0.161,2.171-0.19c0.184,0,0.368,0.161,0.552,0.256
	c0.087,0.038,0.165,0.104,0.242,0.104c0.446,0.019,0.543,0.247,0.523,0.635c-0.019,0.408,0.078,0.806,0.078,1.214
	c0,0.379-0.087,0.768-0.087,1.148c0.019,1.119,0.048,2.248,0.097,3.376c0.019,0.408-0.174,0.531-0.543,0.56
	c-1.182,0.095-2.403,0.066-3.547,0.322c-1.056,0.228-2.093,0.218-3.14,0.247C17,24.74,16.855,24.826,17.01,25.129
	c0.029,0.057,0.029,0.142,0.029,0.218c0.039,1.091,0.097,2.181,0.097,3.282c0,1.356-0.058,2.722-0.087,4.088
	c-0.01,0.322,0.01,0.635-0.01,0.958c-0.058,1.385-0.126,2.76-0.184,4.145c-0.039,0.616-0.078-1.982-0.097-1.366
	c-0.039,1.119-0.078,2.248-0.097,3.376c-0.01,0.531,0,1.072,0,1.612c0,0.901-0.019,1.811,0,2.712
	c0.01,0.379-0.136,0.588-0.465,0.787c-0.659,0.408-1.357,0.465-2.093,0.465c-1.938,0.019-3.876,0.076-5.814,0.085
	c-0.3,0-0.591-0.133-0.892-0.171c-0.145-0.019-0.3,0.038-0.455,0.057c-0.242,0.028-0.455,0.028-0.465-0.303
	c-0.019-1.252-0.078-2.504-0.087-3.756c0-0.711,0.078-1.432,0.087-2.143c0.019-0.816,0.019-1.622,0-2.437
	c-0.019-1.404-0.087,0.408-0.087-0.996c0.01-2.124,0.058-4.249,0.097-6.364c0.019-1.252,0.058-2.494,0.097-3.737
	c0-0.038-0.01-0.066,0-0.095c0.039-0.91,0.039-0.929-0.921-0.91c-1.628,0.047-3.246,0.123-4.865,0.19
	C0.09,24.854,0.1,24.873,0.081,24.143c-0.019-1.252-0.097-2.504-0.078-3.756c0.01-1.271,0.116-2.542,0.184-3.813
	c0.01-0.332,0.281-0.37,0.523-0.37c0.766-0.019,1.531-0.019,2.287-0.009c0.494,0.009,0.979,0.076,1.463,0.095
	c0.523,0.009,1.047,0.009,1.57,0c0.397-0.019,0.795-0.095,1.182-0.076c0.378,0.019,0.533-0.104,0.533-0.455
	c-0.039-1.688,0.291-3.329,0.707-4.932c0.252-0.967,0.785-1.868,1.26-2.76c0.465-0.844,0.969-1.679,1.541-2.456
	c0.93-1.261,1.851-2.551,3.411-3.177c0.32-0.123,0.63-0.332,0.872-0.569c0.359-0.351,0.785-0.446,1.26-0.465
	C16.893,1.39,16.99,1.334,17.145,1.305 M18.551,9.082c0.465-0.398,0.882-0.892,1.424-1.176c1.017-0.541,2.103-0.977,3.178-1.413
	c0.3-0.123,0.417-0.237,0.388-0.55c-0.048-0.683-0.087-1.366-0.097-2.049c0-0.569,0.068-1.138,0.087-1.717
	c0.019-0.322-0.165-0.512-0.504-0.484c-0.533,0.047-1.085,0.066-1.599,0.218c-0.892,0.275-1.773,0.607-2.636,0.967
	c-1.56,0.645-3.072,1.385-4.39,2.418c-0.698,0.55-1.289,1.214-1.909,1.849c-0.174,0.171-0.233,0.446-0.388,0.645
	c-0.533,0.692-0.93,1.423-0.979,2.305c-0.058,1.167-0.145,2.333-0.184,3.5c-0.01,0.569,0.116,1.148,0.078,1.717
	c-0.048,0.977-0.165,1.954-0.281,2.931c-0.029,0.237-0.136,0.465-0.485,0.417c-0.572-0.076-1.143-0.161-1.715-0.18
	c-0.591-0.019-1.202,0.047-1.793,0.085c-1.143,0.066-2.277,0.104-3.411,0.199c-0.533,0.038-1.056,0.171-1.57,0.285
	c-0.087,0.019-0.213,0.152-0.213,0.237c0.019,0.579,0.078,1.157,0.078,1.736c-0.01,0.873-0.039,1.745-0.097,2.608
	c-0.019,0.313,0.087,0.37,0.368,0.341c0.552-0.038,1.105-0.057,1.657-0.095c0.678-0.057,1.366-0.104,2.045-0.199
	c0.756-0.104,1.502-0.341,2.268-0.171c0.262,0.057,0.678,0.199,0.707,0.36c0.174,0.768,0.31,1.565,0.3,2.343
	c-0.01,0.996-0.213,1.973-0.252,2.969c-0.078,1.593-0.048,3.196-0.116,4.799c-0.058,1.461-0.213-0.303-0.271,1.157
	c-0.029,0.616,0.048,1.242,0.087,1.859c0.019,0.417,0.048,0.825,0.097,1.242c0.155,1.375,0.3,2.75,0.494,4.116
	c0.048,0.341,0.019,0.825,0.601,0.873c1.143,0.085,2.277,0.199,3.421,0.275c0.514,0.038,1.047-0.019,1.56,0.019
	c0.407,0.028,0.533-0.142,0.514-0.503c-0.039-0.635-0.097-1.271-0.097-1.897c0.01-0.892,0.048-1.783,0.097-2.665
	c0.048-1.081,0.126-2.162,0.194-3.244c0.058-0.91,0.174,1.413,0.184,0.503c0.019-2.381,0-4.761,0.291-7.132
	c0.048-0.417-0.029-0.854-0.029-1.28c0-0.332,0.068-0.664,0.029-0.977c-0.107-0.778-0.233-1.546,0.019-2.305
	c0.048-0.133,0.32-0.247,0.494-0.247c0.407-0.009,0.814,0.133,1.211,0.085c0.727-0.076,1.434-0.247,2.161-0.36
	c0.911-0.133,1.831-0.266,2.752-0.37c0.213-0.028,0.271-0.066,0.252-0.266c-0.068-0.92-0.107-1.849-0.213-2.76
	c-0.029-0.209-0.252-0.55-0.417-0.56c-0.911-0.085-1.841-0.095-2.762-0.123c-0.271-0.009-0.543,0.009-0.814,0.009
	c-0.785,0-1.57-0.066-2.335,0.009c-0.533,0.057-0.862,0.009-1.017-0.465c-0.068-0.218-0.097-0.455-0.097-0.673
	c0.019-0.844,0.039-1.688,0.097-2.523c0.068-0.844,0.058-1.726,0.32-2.523c0.339-1.072,0.862-2.096,1.667-2.921
	C17.436,9.869,17.959,9.499,18.551,9.082"/>
</svg>
