<?xml version="1.0" encoding="iso-8859-1"?>
<!-- Generator: Adobe Illustrator 21.0.0, SVG Export Plug-In . SVG Version: 6.00 Build 0)  -->
<svg version="1.2" baseProfile="tiny" id="Layer_1" xmlns="http://www.w3.org/2000/svg" xmlns:xlink="http://www.w3.org/1999/xlink"
	 x="0px" y="0px" viewBox="0 0 50.298 55.312" xml:space="preserve">
<g>
	<path fill="#C0BFBF" d="M2.73,5.549c-1.975,3.64-2.098,7.964-2.174,12.105c-0.183,9.89-0.366,19.781-0.548,29.671
		c-0.015,0.81-0.028,1.634,0.19,2.414c0.834,2.974,4.445,4.031,7.502,4.468c11.483,1.644,23.228,1.452,34.651-0.566
		c2.256-0.399,4.67-0.964,6.172-2.693c1.652-1.902,1.739-4.661,1.742-7.181c0.011-11.341,0.022-22.682,0.032-34.023
		c0.001-1.463-0.013-2.993-0.697-4.286c-1.252-2.367-4.228-3.122-6.87-3.558c-7.879-1.301-15.867-1.935-23.852-1.897
		C12.961,0.03,5.991-0.46,2.73,5.549z"/>
	<path fill="#FFFFFF" d="M20.284,25.076c-0.267-0.644-0.656-1.228-0.725-1.85c-0.1-0.924-0.058-1.885,0.072-2.81
		c0.115-0.887,0.449-1.75,1.056-2.411c0.504-0.555,1.082-1.058,1.722-1.438c0.43-0.252,1.016-0.306,1.545-0.347
		c0.651-0.05,1.319-0.033,1.971,0.022c0.613,0.061,1.236,0.148,1.831,0.342c0.846,0.268,1.641,0.693,2.266,1.315
		c0.532,0.524,0.911,1.185,0.981,1.985c0.044,0.611,0.008,1.182-0.126,1.794c-0.172,0.774-0.143,1.602-0.196,2.41
		c-0.055,0.652-0.185,1.273-0.614,1.807c-0.409,0.506-0.709,1.123-1.19,1.532c-0.449,0.385-1.051,0.677-1.631,0.823
		c-1.455,0.362-2.869,0.089-4.247-0.451c-0.752-0.296-1.306-0.822-1.779-1.455C20.923,25.933,20.402,25.688,20.284,25.076
		 M23.065,25.076c0.422,0.182,0.842,0.385,1.279,0.529c1.207,0.38,2.397-0.113,3.187-0.966c0.697-0.772,0.619-1.82,0.62-2.754
		c0.001-0.63-0.324-1.261-0.541-1.884c-0.218-0.602-0.54-1.098-1.177-1.421c-0.554-0.274-1.105-0.412-1.7-0.533
		c-0.776-0.15-1.762,0.28-2.27,0.9c-0.636,0.768-0.75,1.707-0.869,2.585C21.419,22.906,21.817,24.167,23.065,25.076"/>
	<path fill="#FFFFFF" d="M4.825,33.376c0.031-0.087,0.1-0.124,0.091-0.153c-0.129-0.691,0.407-1.221,0.451-1.85
		c0.06-0.89,0.458-1.744,0.257-2.66c-0.053-0.224,0.099-0.482,0.095-0.734c-0.014-1.483-0.056-2.977-0.079-4.47
		c-0.021-0.757-0.003-1.522-0.053-2.269c-0.07-1.136-0.179-2.263-0.288-3.39c-0.127-1.205-0.341-2.393-0.39-3.586
		c-0.044-1.028,0.203-2.031,0.662-2.98c0.184-0.383,0.282-0.856,0.273-1.292c-0.02-1.212,0.575-2.177,1.131-3.172
		C7.246,6.341,7.564,6,8.072,5.828c0.137-0.045,0.293-0.08,0.448-0.086c0.824-0.019,1.659-0.048,2.492-0.038
		c1.657,0.029,3.303,0.088,4.96,0.117c1.705,0.021,3.411,0.051,5.108,0.014c1.426-0.034,2.853-0.156,4.271-0.239
		c0.388-0.02,0.776-0.011,1.163-0.011c1.512,0.007,3.014,0.013,4.517,0.01c1.018-0.005,2.047-0.068,3.063-0.015
		c1.355,0.08,2.698,0.257,4.053,0.367c0.29,0.026,0.592-0.044,0.884-0.066c0.884-0.076,1.71,0.234,2.539,0.448
		c0.973,0.246,1.957,0.444,2.9,0.766c0.827,0.281,1.374,0.914,1.645,1.764c0.054,0.166,0.177,0.314,0.28,0.472
		c0.392,0.639,0.452,1.377,0.513,2.096c0.076,0.884,0.084,1.786,0.034,2.676c-0.035,0.668-0.312,1.33-0.299,1.999
		c0.023,1.086,0.192,2.156,0.282,3.244c0.046,0.495,0.015,1.008,0.071,1.504c0.203,1.662,0.407,3.315,0.367,5.001
		c-0.035,1.502,0.016,3.005-0.029,4.507c-0.016,0.688-0.178,1.363-0.213,2.05c-0.032,0.552,0.032,1.096,0.068,1.649
		c0.006,0.136,0.061,0.273,0.058,0.408c0.013,1.086,0.017,2.172,0.03,3.258c0.009,0.863,0.008,1.726,0.036,2.589
		c0.025,0.999,0.108,1.999,0.114,2.998c0.006,0.989-0.411,1.822-0.993,2.642c-0.532,0.763-1.156,1.359-1.942,1.796
		c-0.373,0.204-0.736,0.38-1.237,0.233c-0.414-0.126-0.912,0.046-1.358,0.026c-0.775-0.038-1.548-0.124-2.322-0.181
		c-0.087-0.002-0.194,0.005-0.263,0.052c-0.355,0.253-0.762,0.253-1.169,0.244c-0.775-0.018-1.549-0.066-2.325-0.045
		c-0.62,0.005-1.255,0.203-1.864,0.121c-1.652-0.233-3.252,0.224-4.89,0.214c-0.96-0.003-1.915,0.246-2.866,0.281
		c-0.815,0.029-1.625-0.126-2.43-0.125c-0.785,0.001-1.563,0.099-2.349,0.129c-1.552,0.041-3.103,0.053-4.655,0.084
		c-0.281,0.003-0.562-0.023-0.843-0.02c-1.599-0.009-3.199,0.031-4.797-0.036c-0.881-0.03-1.78-0.139-2.628-0.362
		c-0.742-0.192-1.371-0.662-1.999-1.142c-0.666-0.51-0.951-1.176-1.097-1.974c-0.119-0.691-0.375-1.356-0.524-2.048
		c-0.079-0.331-0.052-0.68-0.063-1.019c-0.028-0.466-0.075-0.942-0.064-1.417c0.029-1.647,0.087-3.294,0.107-4.941
		C4.864,35.025,4.835,34.22,4.825,33.376 M45.767,19.462c-0.06-0.35-0.148-0.692-0.169-1.041c-0.069-1.591-0.109-3.182-0.188-4.773
		c-0.027-0.514-0.121-1.04-0.235-1.547c-0.158-0.711-0.295-1.451-0.561-2.126c-0.238-0.597-0.437-1.212-0.958-1.699
		c-0.427-0.388-0.898-0.574-1.398-0.711c-0.943-0.274-1.906-0.578-2.873-0.678c-1.122-0.114-2.268-0.024-3.402-0.012
		c-0.417,0.01-0.871-0.04-1.262,0.087c-1.328,0.415-2.679,0.16-4.019,0.245c-0.873,0.047-1.749-0.235-2.629-0.314
		c-1.199-0.125-2.398-0.25-3.599-0.279c-1.57-0.027-3.142,0.052-4.722,0.073c-1.018,0.015-2.036,0.02-3.054,0.025
		c-0.979,0.006-1.959,0.051-2.937,0.018c-0.891-0.031-1.746,0.046-2.615,0.316c-1.308,0.405-2.429,1.048-3.23,2.144
		c-0.35,0.476-0.52,1.083-0.813,1.6c-0.556,0.956-0.649,2.02-0.645,3.087c-0.009,0.795,0.108,1.592,0.118,2.387
		c0.01,0.814-0.058,1.627-0.048,2.442c0.009,1.658,0.058,3.307,0.067,4.964c0.007,0.921-0.043,1.841-0.055,2.761
		c-0.005,0.223-0.011,0.446,0.004,0.669C6.6,28,6.685,28.903,6.722,29.806c0.023,0.679-0.032,1.356-0.019,2.025
		c0.049,1.62,0.137,3.231,0.167,4.85c0.017,0.941-0.054,1.889-0.057,2.839c-0.01,0.843,0.057,1.688,0.028,2.531
		c-0.052,1.404,0.071,2.755,0.68,4.058c0.267,0.598,0.763,0.939,1.312,1.097c0.597,0.169,1.247,0.126,1.886,0.17
		c0.232,0.015,0.495-0.037,0.716,0.036c0.923,0.313,1.893,0.277,2.78,0.095c0.916-0.192,1.816-0.132,2.72-0.265
		c0.127-0.026,0.26,0.055,0.395,0.087c0.482,0.108,0.981,0.324,1.466,0.316c1.047-0.004,2.088-0.183,3.135-0.188
		c1.144,0.008,2.279-0.043,3.417-0.201c0.943-0.123,1.911-0.042,2.87-0.049c0.136-0.006,0.281-0.013,0.418-0.039
		c0.653-0.13,1.305-0.26,1.958-0.39c0.604-0.121,1.217-0.243,1.822-0.384c0.438-0.096,0.868-0.232,1.316-0.318
		c0.876-0.144,1.743-0.356,2.626-0.384c1.3-0.047,2.607,0.032,3.905,0.073c0.174,0.004,0.337,0.095,0.502,0.08
		c0.738-0.06,1.486-0.13,2.225-0.238c0.477-0.066,0.971-0.074,1.246-0.62c0.223-0.431,0.505-0.851,0.852-1.182
		c0.823-0.805,1.012-1.818,1.037-2.874c0.026-1.521,0.178-3.049-0.067-4.577c-0.127-0.769-0.109-1.563-0.148-2.34
		c-0.074-1.378-0.178-2.747-0.184-4.124c-0.022-2.356,0.034-4.72,0.05-7.075C45.782,21.731,45.769,20.645,45.767,19.462
		 M44.111,7.501c-0.019-0.01-0.038-0.03-0.057-0.04C44.053,7.49,44.052,7.519,44.111,7.501"/>
	<path fill="#FFFFFF" d="M12.514,44.414c-0.948-0.081-1.623-0.659-2.379-1.045c-0.594-0.295-1.109-0.637-1.307-1.291
		c-0.171-0.547-0.226-1.12-0.397-1.667c-0.324-1.054-0.28-2.12-0.196-3.184c0.087-1.219,0.28-2.436,0.396-3.655
		c0.065-0.716,0.102-1.432,0.109-2.149c0.012-0.911-0.035-1.813-0.023-2.724c0.013-0.562,0.114-1.122,0.127-1.684
		c0.02-1.279-0.066-2.561,0.023-3.838c0.06-0.89,0.091-1.801,0.499-2.654c0.133-0.278,0.231-0.334,0.473-0.309
		c0.406,0.039,0.802,0.096,1.209,0.125c0.987,0.062,1.974,0.134,2.962,0.157c0.668,0.025,1.349-0.065,2.017-0.03
		c0.891,0.04,1.771,0.139,2.659,0.266c0.174,0.023,0.402,0.213,0.466,0.379c0.164,0.44,0.337,0.919,0.355,1.385
		c0.036,0.96-0.133,1.935-0.019,2.878c0.104,0.943,0.284,1.945,0.72,2.779c0.751,1.433,1.99,2.364,3.649,2.674
		c0.859,0.156,1.695,0.447,2.564,0.623c0.916,0.196,1.741-0.259,2.562-0.55c0.694-0.255,1.418-0.509,1.983-1.068
		c0.685-0.682,1.235-1.415,1.548-2.358c0.396-1.193,0.416-2.423,0.648-3.629c0.176-0.907,0.149-1.799-0.033-2.695
		c-0.096-0.468,0.103-0.657,0.588-0.665c1.028-0.034,2.057-0.107,3.085-0.111c0.97-0.016,1.928,0.045,2.897,0.059
		c0.552,0.003,1.105-0.013,1.659-0.068c0.359-0.03,0.597,0.189,0.727,0.424c0.531,0.904,0.828,1.89,0.667,2.943
		c-0.218,1.429-0.572,2.875-0.343,4.276c0.312,1.975-0.094,4.001,0.48,5.953c0.17,0.586,0.136,1.234,0.16,1.855
		c0.038,0.864,0.085,1.727,0.026,2.589c-0.065,1.094-0.207,2.186-0.368,3.268c-0.045,0.27-0.257,0.605-0.483,0.745
		c-1.023,0.616-2,1.368-3.262,1.464c-0.34,0.021-0.664,0.198-1.004,0.257c-0.886,0.154-1.772,0.327-2.666,0.412
		c-1.399,0.132-2.806,0.205-4.214,0.298c-0.476,0.028-0.951,0.065-1.426,0.063c-2.074-0.01-4.137-0.068-6.213-0.03
		c-0.882,0.008-1.77,0.259-2.653,0.286c-0.931,0.036-1.859-0.073-2.779-0.114c-0.126-0.003-0.251-0.035-0.377-0.038
		c-1.541,0.002-3.06-0.121-4.542-0.582C12.921,44.385,12.736,44.419,12.514,44.414 M28.184,43.717
		c1.154-0.021,2.304,0.142,3.463-0.093c0.847-0.174,1.729-0.163,2.594-0.249c1.37-0.152,2.742-0.381,4.131-0.465
		c0.893-0.056,1.606-0.263,2.062-1.115c0.366-0.709,0.577-1.46,0.576-2.235c0.003-0.94-0.14-1.893-0.205-2.835
		c-0.029-0.427-0.038-0.844-0.077-1.272c-0.093-1.01-0.214-2.031-0.306-3.041c-0.038-0.456-0.046-0.912-0.065-1.368
		c-0.069-1.611-0.167-3.212-0.167-4.821c0.001-1.279,0.109-2.556,0.178-3.834c0.015-0.213-0.012-0.301-0.264-0.307
		c-0.426-0.01-0.851-0.098-1.267-0.107c-0.368-0.018-0.727-0.017-1.086,0.033c-0.923,0.104-1.795,0.491-2.742,0.352
		c-0.155-0.023-0.222-0.044-0.189,0.209c0.073,0.612,0.087,1.233,0.053,1.843c-0.011,0.465-0.206,0.926-0.198,1.391
		c0.009,1.26-0.52,2.333-1.174,3.346c-0.624,0.974-1.513,1.69-2.459,2.336c-0.709,0.487-1.391,1.043-2.201,1.257
		c-1.355,0.346-2.728,0.585-4.134,0.62c-0.233,0.004-0.478,0.124-0.69,0.071c-1.002-0.256-2.014-0.513-2.995-0.846
		c-0.683-0.239-1.354-0.555-1.755-1.205c-0.252-0.413-0.405-0.901-0.628-1.333c-0.51-0.991-0.893-1.998-0.992-3.135
		c-0.098-1.175-0.352-2.335-0.285-3.525c0.032-0.542-0.11-0.681-0.662-0.684c-0.436,0.009-0.884,0.076-1.32,0.056
		c-0.397-0.029-0.781-0.183-1.178-0.202c-0.978-0.052-1.967-0.046-2.945-0.089c-0.291-0.007-0.379,0.04-0.377,0.35
		c0.01,0.814-0.019,1.628-0.057,2.432c-0.053,1.414-0.154,2.827-0.178,4.241c-0.014,1.017,0.029,2.046,0.122,3.066
		c0.061,0.709,0.131,1.447,0.377,2.103c0.401,1.076,0.277,2.217,0.533,3.299c0.115,0.468,0.035,0.97,0.092,1.456
		c0.089,0.758,0.265,1.509,0.305,2.275c0.064,1,0.659,1.654,1.627,1.686c0.736,0.027,1.471,0.093,2.197,0.149
		c0.445,0.04,0.889,0.128,1.335,0.119c0.912-0.017,1.825-0.112,2.736-0.11c0.824,0,1.645,0.107,2.468,0.145
		c0.823,0.029,1.647,0.049,2.461,0.029c0.679-0.003,1.35-0.094,2.019-0.108C27.305,43.59,27.691,43.676,28.184,43.717 M8.666,39.04
		c0.019,0.01,0.038,0.03,0.057,0.04C8.714,39.051,8.715,39.022,8.666,39.04 M27.587,44.381c0.01-0.019,0.02-0.038,0.04-0.057
		C27.598,44.323,27.569,44.332,27.587,44.381 M41.23,35.155c-0.019-0.01-0.038-0.03-0.057-0.04
		C41.172,35.144,41.171,35.173,41.23,35.155 M33.432,26.684c-0.02,0.019-0.03,0.038-0.04,0.057
		C33.421,26.742,33.451,26.733,33.432,26.684"/>
</g>
</svg>
