<?xml version="1.0" encoding="iso-8859-1"?>
<!-- Generator: Adobe Illustrator 21.0.0, SVG Export Plug-In . SVG Version: 6.00 Build 0)  -->
<svg version="1.2" baseProfile="tiny" id="Layer_1" xmlns="http://www.w3.org/2000/svg" xmlns:xlink="http://www.w3.org/1999/xlink"
	 x="0px" y="0px" viewBox="0 0 94.036 95.463" xml:space="preserve">
<g>
	<path fill="#454240" d="M24.423,60.216c-0.71-2.64-2.06-3.59-4.6-3.27c-0.16,0.02-0.33,0.01-0.5,0c-6.85-0.22-9.93-2.13-10.19-6.31
		c-0.28-4.7,3.71-8.78,9.5-9.7c0.79-0.13,1.59-0.14,2.24-0.19c1.5-5.36,2.92-10.43,4.42-15.81c17.17,7.3,21.38,36.56,8.04,47.68
		C28.883,70.476,25.743,65.156,24.423,60.216z"/>
	<path fill="#E8E7E7" d="M19.461,56.752c2.54-0.32,3.89,0.63,4.6,3.27c1.32,4.94,4.46,10.26,8.91,12.4
		c13.34-11.12,9.13-40.38-8.04-47.68c-1.5,5.38-2.92,10.45-4.42,15.81c-0.65,0.05-1.45,0.06-2.24,0.19c-5.79,0.92-9.78,5-9.5,9.7
		c0.26,4.18,3.34,6.09,10.19,6.31C19.131,56.762,19.301,56.772,19.461,56.752z M87.971,35.422c2.3,8.26,3,20,0,29
		c-3.09,9.26-6.77,16.23-16,21c-7.77,4.23-14.75,4.18-24,6c-10.89,2.15-31.04-6.03-35.76-16.06c-4.82-10.22-8.08-21-8.14-32.49
		c-0.1-7.45,2.27-15.29,5.73-21.85c4.93-9.35,12.2-15.65,24.2-16.43c10.55-0.69,21.91-2.61,30.97,2.83
		C74.971,13.422,85.671,27.162,87.971,35.422z"/>
	<path fill="#454240" d="M34.227,95.034c-18.37-4.84-27.27-18.96-33-36c-2.49-7.4-0.43-27.44-0.36-27.72
		c4.81-18.22,16.97-27.87,35.28-30.49c2.4-0.34,16.08-1.79,21.61,0.22c12.46,4.53,21.68,8.97,28.47,21.99c7.52,14.42,9,25,7,39
		c-0.51,3.54-5,11.77-7,15c-6.3,10.18-15.38,14.77-26,17C55.057,95.114,40.227,96.034,34.227,95.034z M12.467,75.974
		c4.72,10.03,24.87,18.21,35.76,16.06c9.25-1.82,16.23-1.77,24-6c9.23-4.77,12.91-11.74,16-21c3-9,2.3-20.74,0-29
		c-2.3-8.26-13-22-23-28c-9.06-5.44-20.42-3.52-30.97-2.83c-12,0.78-19.27,7.08-24.2,16.43c-3.46,6.56-5.83,14.4-5.73,21.85
		C4.387,54.974,7.647,65.754,12.467,75.974z"/>
	<path fill="#454240" d="M52.254,32.43l3.547,3.819c2.08,1.832,7.471,6.924,10.355,10.029c0.993,1.069,2.081,2.342,3.215,3.767
		c1.419,1.833,3.074,3.92,5.059,6.058c0.615,0.662,1.324,1.222,2.081,1.935c0.898,0.764,1.938,1.782,2.742,2.647
		c0.946,1.018,0.709,2.698-0.095,3.564c-1.844,1.985-5.721-2.189-10.403-7.229l-3.783-5.193c-2.885-3.106-5.911-5.957-9.835-9.367
		l-1.655-1.782c-0.426-0.458-0.898-0.865-1.371-1.273c-1.182-0.968-2.459-2.138-3.83-3.615c-0.804-0.865-2.033-2.596-0.615-4.124
		C49.512,29.681,51.119,31.209,52.254,32.43"/>
	<path fill="#454240" d="M65.592,41.349c1.702-1.528,3.641-3.309,5.627-5.447c0.615-0.662,1.135-1.425,1.797-2.24
		c0.709-0.967,1.655-2.087,2.459-2.952c0.946-1.018,2.506-0.764,3.31,0.102c1.844,1.985-2.033,6.16-6.715,11.2l-4.823,4.073
		c-2.885,3.106-5.532,6.364-8.7,10.589l-1.655,1.782c-0.426,0.458-0.804,0.967-1.182,1.476c-0.899,1.273-1.986,2.647-3.357,4.124
		c-0.804,0.865-2.412,2.189-3.83,0.662c-1.844-1.985-0.426-3.716,0.709-4.938l3.547-3.819c1.702-2.24,6.431-8.043,9.315-11.149
		C63.086,43.742,64.268,42.571,65.592,41.349"/>
</g>
</svg>
