<?xml version="1.0" encoding="iso-8859-1"?>
<!-- Generator: Adobe Illustrator 21.0.0, SVG Export Plug-In . SVG Version: 6.00 Build 0)  -->
<svg version="1.2" baseProfile="tiny" id="Layer_1" xmlns="http://www.w3.org/2000/svg" xmlns:xlink="http://www.w3.org/1999/xlink"
	 x="0px" y="0px" viewBox="0 0 305.554 544.593" xml:space="preserve">
<g>
	<path fill-rule="evenodd" fill="#C5C6C8" d="M191.188,316.673c20.392,0,45.358,0.462,65.703,0.623
		c4.396,15.427-6.896,38.955-6.606,57.114c0.828,51.951,3.797,105.405,3.469,153.828c-21.18,0.136-42.72,0.197-63.765-0.148
		c-10.689-53.736-11.461-132.749-3.039-179.8C187.192,346.935,190.859,330.117,191.188,316.673"/>
	<path fill-rule="evenodd" fill="#FFFFFF" d="M232.284,31.78c-0.415-4.267,1.516-8.39-0.359-11.52
		c-4.503-7.517-18.386,1.777-24.12-2.88c-6.609-5.368,2.477-13.447,8.28-14.76c7.809-1.024,14.679,3.072,22.319,2.88
		c4.761-0.12,10.07-2.279,14.4,0c4.901,6.35,5.42,14.086,4.32,23.76c-0.546,4.8-1.382,11.803-1.8,16.92
		c-0.057,0.689,0.496,3.607,0.359,4.68c-0.089,0.704-0.893,1.576-1.08,2.52c-0.67,3.387-0.962,8.579-3.96,7.92
		c-3.528-0.776-1.22-8.493-0.359-11.52c0.878-3.09,3.204-6.408,3.239-10.44c0.064-7.241-3.332-18.264-10.439-18.36
		c-2.105-0.028-4.217,1.277-5.04,2.16C236.17,25.15,236.958,33.884,232.284,31.78z"/>
	<path fill-rule="evenodd" d="M131.844,8.379c1.13-0.429,1.133-1.986,2.52-2.16c6.205-0.346,7.314,7.087,5.76,12.24
		c-8.378,7.284-27.353,8.48-38.16,3.24c-2.916-2.221-8.811-13.34-3.6-15.84c1.654-0.794,5.554,0.166,6.48,2.16
		c2.755-1.417,2.13-2.709,4.68-2.88c2.381-0.16,3.706,2.828,5.04,2.88c1.571,0.061,1.886-2.907,3.6-2.52
		c2.161-0.83,2.344,2.558,3.96,2.52c1.026-0.024,1.872-2.498,2.88-2.88C127.878,4.05,130.194,5.474,131.844,8.379z M127.884,6.22
		c-3.618,0.084-4.144,3.146-5.04,5.04c-2.021-0.859-1.953-3.808-4.68-3.96c-1.969,0.311-1.359,3.201-3.24,3.6
		c-1.723-4.963-8.156-5.291-9.36,0.36c-1.849-1.631-2.306-4.654-6.48-3.96c-3.468,6.827,3.661,14.775,10.44,15.84
		c10.564,1.659,24.051-0.928,29.52-5.4c0.908-4.438,0.343-10.06-4.32-10.08c-1.531,0.989-1.712,3.328-2.52,5.04
		C130.594,10.709,130.455,7.249,127.884,6.22z"/>
	<path fill-rule="evenodd" fill="#FFFFFF" d="M132.204,12.7c0.808-1.712,0.989-4.051,2.52-5.04c4.663,0.02,5.228,5.642,4.32,10.08
		c-5.469,4.472-18.955,7.059-29.52,5.4c-6.779-1.065-13.908-9.013-10.44-15.84c4.174-0.694,4.631,2.329,6.48,3.96
		c1.204-5.651,7.637-5.323,9.36-0.36c1.881-0.399,1.271-3.289,3.24-3.6c2.728,0.152,2.659,3.101,4.68,3.96
		c0.896-1.894,1.422-4.956,5.04-5.04C130.455,7.249,130.594,10.709,132.204,12.7z"/>
	<path fill-rule="evenodd" d="M243.085,66.7c-3.84,0.477-6.524-2.111-5.4-5.4c2.338-0.178,1.578,2.742,3.24,3.24
		c2.516-0.687,0.377-4.778,0.36-7.2c-0.046-6.333,9.289-18.926,4.319-25.56c-2.25-3.004-6.744-1.461-5.399,3.96
		c1.796-0.602,0.12-3.067,1.439-3.6c2.692,0.604,2.229,7.125,0.36,8.28c-7.063-0.622-5.362-13.158,1.439-12.24
		c2.104,0.284,5.277,3.372,5.761,5.4c1.673,7.028-4.748,14.018-5.4,22.68C243.481,60.553,245.928,64.264,243.085,66.7z"/>
	<path fill-rule="evenodd" d="M234.804,44.38c-4.769,0.957-10.323,4.799-16.92,2.88c-2.379-2.061-5.512-3.369-7.2-6.12
		c2.981-1.458,5.733-3.146,8.64-4.68C225.428,36.839,237.12,36.874,234.804,44.38z M213.925,42.22c0.28,0.08,0.418,0.301,0.359,0.72
		c0.474,0.462,1.327,0.462,1.801,0c-0.313,2.123,3.032,2.474,3.96,2.16c-2.576-1.132-1.406-4.385-1.44-6.12
		C217.209,40.224,214.882,40.537,213.925,42.22z M220.404,40.42c1.812-0.309,3.358-0.558,4.32,0.72
		c0.446,2.006-0.896,2.224-1.8,2.88c-1.317-0.603-1.614-2.225-2.521-3.24c-1.214,2.07,1.206,3.254,2.521,3.96
		C228.557,43.26,223.426,36.141,220.404,40.42z M226.165,45.1c2.344-0.536,3.679-2.081,5.76-2.88
		c-0.547-1.974-2.807-2.234-4.32-3.24C227.775,41.671,227.57,43.986,226.165,45.1z"/>
	<path fill-rule="evenodd" fill="#FFFFFF" d="M218.604,38.98c0.034,1.735-1.136,4.988,1.44,6.12c-0.928,0.314-4.273-0.037-3.96-2.16
		c-0.474,0.462-1.327,0.462-1.801,0c0.059-0.419-0.079-0.641-0.359-0.72C214.882,40.537,217.209,40.224,218.604,38.98z"/>
	<path fill-rule="evenodd" fill="#FFFFFF" d="M222.925,44.74c-1.314-0.706-3.734-1.89-2.521-3.96
		c0.906,1.015,1.203,2.637,2.521,3.24c0.904-0.656,2.246-0.874,1.8-2.88c-0.962-1.278-2.509-1.029-4.32-0.72
		C223.426,36.141,228.557,43.26,222.925,44.74z"/>
	<path fill-rule="evenodd" fill="#FFFFFF" d="M227.604,38.98c1.514,1.006,3.773,1.267,4.32,3.24c-2.081,0.799-3.416,2.344-5.76,2.88
		C227.57,43.986,227.775,41.671,227.604,38.98z"/>
	<path fill-rule="evenodd" d="M242.724,43.3c0.467,1.045,0.467,2.555,0,3.6c-1.645-0.228-3.665,1.854-4.68,0
		c-0.101-1.301,1.576-0.823,2.16-1.44c-0.296-1.145-2.378-0.502-2.16-2.16C239.202,42.495,241.435,43.102,242.724,43.3z"/>
	<path fill-rule="evenodd" fill="#FFFFFF" d="M92.244,62.38c-0.229,0.824-0.714,2.171,0,2.88c0.754,0.401,2.548-0.645,2.521-2.16
		c2.875,3.796,5.244,6.575,5.76,11.52c0.499,4.783-2.809,10.238-1.08,14.4c4.898-3.163,2.847-13.112,2.16-18.72
		c0.868,1.586,1.839,2.986,2.16,4.68c0.891,4.707-2.219,9.959,1.08,13.32c2.356-4.362,0.046-10.936-0.36-15.84
		c3.9,2.746-0.174,13.892,4.68,14.04c3.981,0.121,3.694-6.563,3.24-9.72c1.101-0.261,1.059,0.621,2.16,0.36
		c1.999,13.164-6.337,20.924-6.84,33.84c-5.158-1.051-9.777-1.83-15.48-0.72c-0.563-4.433-4.602-4.986-8.64-6.48
		c-6.092-2.254-10.43-5.677-12.96-11.52c2.821-2.535,2.678-8.376-2.88-7.92c-0.21-1.41,1.481-0.919,1.8-1.8
		c5.17,4.027,8.849,12.98,17.64,10.08c4.933-3.789,8.564-14.493,6.12-21.96c-2.263-6.911-9.82-3.518-14.4,0
		c-1.952,1.5-5.221,7.7-7.56,3.24c4.593,0.88,5.85-3.615,3.96-6.12C80.832,65.847,84.411,61.987,92.244,62.38z M91.524,96.22
		c3.042,1.492,4.247-3.235,3.96-5.04c-0.36,0-0.72,0-1.08,0C94.302,93.718,91.971,94.027,91.524,96.22z"/>
	<path fill-rule="evenodd" fill="#FFFFFF" d="M90.804,69.22c3.01,10.265-1.483,27.433-13.32,19.44
		c-0.438-1.481-1.002-2.838-1.44-4.32c3.865-0.529,12.373,1.157,11.88-4.32c-0.185-2.054-2.379-2.574-3.96-3.961
		c-1.433,0.488-2.974,0.866-3.6,2.16c-1.433-0.728-2.66-1.66-3.6-2.88C80.378,72.255,85.177,65.92,90.804,69.22z"/>
	<path fill-rule="evenodd" fill="#FFFFFF" d="M74.604,69.94c0.105,1.785-0.735,2.625-2.52,2.52
		C72.172,70.959,73.028,68.81,74.604,69.94z"/>
	<path fill-rule="evenodd" fill="#FFFFFF" d="M114.204,72.82c0.832,0.368,0.745,1.655,0.72,2.88
		C112.81,76.205,113.374,73.307,114.204,72.82z"/>
	<path fill-rule="evenodd" fill="#FFFFFF" d="M138.324,72.82c0.218,2.019-1.457,3.656-3.24,2.52
		C135.555,73.891,136.135,72.55,138.324,72.82z"/>
	<path fill-rule="evenodd" fill="#FFFFFF" d="M148.044,74.62c2.323,8.786-4.592,19.849-11.16,12.24
		c5.862,0.555,9.367-6.128,3.6-8.28C141.137,75.425,144.776,71.869,148.044,74.62z"/>
	<path fill-rule="evenodd" fill="#FFFFFF" d="M62.724,74.62c1.397,0.883,1.119,3.44,2.16,4.68c1.138-3.917,5.764-3.038,7.2,0
		c1.937,0.017,2.147-1.693,3.96-1.8c2.126,0.034,1.784,2.536,3.96,2.521c1.208-0.112,1.436-1.205,1.8-2.16
		c1.316,0.484,3.068,0.532,4.32,1.08c2.381,3.483-5.462,5.166-10.08,3.96c-2.545-0.665-3.558-3.739-5.04-3.24
		c-1.506,0.894-3.523,1.277-4.68,2.52c-5.296-1.033-12.533,1.748-14.76-3.96c1.71-3.246,5.363-0.21,6.84,1.08
		C58.998,76.894,59.024,73.92,62.724,74.62z"/>
	<path fill-rule="evenodd" fill="#FFFFFF" d="M283.045,82.18c0.389-4.841,6.685-5.695,6.84,0c1.529-0.271,0.853-2.747,2.16-3.24
		c2.523,0.116,2.882,2.398,4.32,3.6c1.811-4.916,8.122-4.886,7.56,2.16c-2.324,2.813-16.56,5.658-22.32,2.52
		c-2.405-1.311-5.043-5.536-5.04-6.84C276.582,73.856,281.905,79.852,283.045,82.18z"/>
	<path fill-rule="evenodd" fill="#FFFFFF" d="M130.764,78.58c2.735-0.334,3.614,1.187,4.32,2.88c2.263-1.276,7.484-2.784,7.2,1.8
		c-0.35,0.01-0.28,0.44-0.36,0.72c-3.919,1.928-9.489,1.231-14.04,0.72c-2.662-0.299-5.138-0.905-5.76-3.24
		c1.207-1.811,1.891-1.932,4.32-2.52c1.015,0.425,1.206,1.674,1.8,2.52C130.052,81.467,129.643,79.259,130.764,78.58z"/>
	<path fill-rule="evenodd" fill="#FFFFFF" d="M67.404,86.14c1.714-0.154,2.692,0.428,3.6,1.08c-0.064,1.616-0.623,2.737-1.44,3.6
		C68.589,89.515,67.453,88.371,67.404,86.14z"/>
	<path fill-rule="evenodd" fill="#FFFFFF" d="M132.564,90.82c0.277,1.356-0.439,1.721-0.36,2.88c-2.449-0.137-4.384-2.486-4.32-3.96
		C129.581,88.689,131.732,89.852,132.564,90.82z"/>
	<path fill-rule="evenodd" d="M94.404,91.18c0.36,0,0.72,0,1.08,0c0.287,1.805-0.918,6.532-3.96,5.04
		C91.971,94.027,94.302,93.718,94.404,91.18z"/>
	<path fill-rule="evenodd" d="M155.604,91.54c1.361-0.308,1.274,1.612,0.72,2.16C154.963,94.008,155.05,92.088,155.604,91.54z"/>
	<path fill-rule="evenodd" d="M160.284,92.62c0.948-0.108,1.181,0.498,1.08,1.44C160.416,94.169,160.183,93.561,160.284,92.62z"/>
	<path fill-rule="evenodd" d="M149.124,93.7c-0.871,1.409-2.095,2.465-4.32,2.52C144.884,94.168,147.35,92.89,149.124,93.7z"/>
	<path fill-rule="evenodd" d="M231.564,94.42c4.014,3.358,4,13.142,2.52,19.8c-0.526,2.369-1.952,5.605-3.96,5.76
		C232.153,114.557,234.882,101.968,231.564,94.42z"/>
	<path fill-rule="evenodd" fill="#FFFFFF" d="M221.484,106.66c-4.713,0.725-8.591,1.767-12.6-0.36
		C210.402,101.675,218.662,104.031,221.484,106.66z"/>
	<path fill-rule="evenodd" fill="#FFFFFF" d="M219.684,108.82c-2.017,2.129-9.811,7.774-10.439,0.72
		C212.101,109.617,216.867,110.353,219.684,108.82z"/>
	<path fill-rule="evenodd" fill="#FFFFFF" d="M168.204,115.3c0.53,5.178,0.1,10.354-2.16,13.68
		c-5.997,3.188-17.346,2.616-21.24-2.16c-0.133-3.947-1.011-7.149-0.72-11.52C150.517,111.815,163.632,108.936,168.204,115.3z
		 M159.564,122.5c-0.222,2.506,1.517,6.16,5.76,5.4c1.078-1.202,1.302-3.258,1.8-5.04
		C166.217,120.465,160.714,119.762,159.564,122.5z"/>
	<path fill-rule="evenodd" fill="#FFFFFF" d="M103.764,131.14c-5.602,0.202-9.648-1.151-13.32-2.88
		c-1.531-4.655-2.108-14.745,2.52-16.2c2.16-0.68,5.226,0.547,7.2,0.72c5.898,0.517,10.919-0.775,11.52,4.68
		C112.294,122.999,107.459,128.498,103.764,131.14z M99.804,121.06c-1.665,3.598-0.012,8.465,5.04,7.56
		C109.452,125.675,105.302,117.779,99.804,121.06z"/>
	<path fill-rule="evenodd" d="M104.844,128.62c-5.051,0.906-6.705-3.961-5.04-7.56C105.302,117.779,109.452,125.675,104.844,128.62z
		 M102.684,126.1c0.6,0,1.2,0,1.8,0c-0.115-0.835,0.058-1.382,0.36-1.8c-0.749-0.211-1.164-0.756-1.8-1.08
		C102.134,124.106,102.48,125.214,102.684,126.1z"/>
	<path fill-rule="evenodd" d="M167.124,122.86c-0.498,1.782-0.722,3.838-1.8,5.04c-4.244,0.76-5.982-2.894-5.76-5.4
		C160.714,119.762,166.217,120.465,167.124,122.86z M164.244,126.1c0.456-1.897-0.934-1.946-2.52-1.8
		C161.711,125.753,162.791,126.114,164.244,126.1z"/>
	<path fill-rule="evenodd" fill="#FFFFFF" d="M103.044,123.22c0.636,0.324,1.051,0.869,1.8,1.08c-0.302,0.418-0.475,0.965-0.36,1.8
		c-0.6,0-1.2,0-1.8,0C102.48,125.214,102.134,124.106,103.044,123.22z"/>
	<path fill-rule="evenodd" fill="#FFFFFF" d="M161.724,124.3c1.585-0.146,2.976-0.096,2.52,1.8
		C162.791,126.114,161.711,125.753,161.724,124.3z"/>
	<path fill-rule="evenodd" fill="#FFFFFF" d="M52.644,132.94c1.974-0.162,1.85-2.409,4.32-2.16c2.011,0.203,1.793,2.619,3.96,2.88
		c1.689-0.831,1.965-3.074,5.04-2.52c0.01,0.35,0.44,0.28,0.72,0.36c3.268,7.181-5.043,9.036-11.88,8.28
		c-2.162-0.239-4.52-1.367-7.2-0.72c-8.398,2.026-21.325,5.057-25.92-2.88c-0.615-1.062-1.246-3.522-1.08-4.68
		c0.932-6.496,9.226-4.397,11.519,0.36c1.256-2.104,2.448-4.272,5.4-4.68c2.362,0.638,2.018,3.982,4.32,4.68
		c0.208-4.306,1.795-5.693,4.68-5.04C49.734,127.547,50.144,131.962,52.644,132.94z"/>
	<path fill-rule="evenodd" fill="#FFFFFF" d="M148.044,131.86c4.744,0.94,10.672,2.438,15.84,0.36
		c-0.584,8.769-0.476,17.222-0.36,24.12c0.114,6.771-1.914,14.248-2.88,21.6c-1.359,10.347,0.328,23.115-1.08,33.48
		c0.517,5.326,0.267,11.502,0.72,17.28c0.471,6.005,2.079,11.671,3.24,17.64c1.109,5.705,2.107,11.71,4.32,17.28
		c2.036,5.124,4.566,10.978,7.92,14.039c2.436,2.225,10.719,6.245,14.4,6.841c4.384,0.708,11.403-0.889,16.199-2.88
		c3.007-1.249,7.369-4.66,10.44-7.561c4.86-4.589,7.188-10.246,9.36-17.28c1.929-6.247,3.116-13.953,2.88-21.96
		c-0.365-12.368-2.429-25.566,4.319-34.2c11.13-0.914,9.091,11.145,8.28,20.88c-0.613,7.362-1.067,15.087-1.8,22.32
		c-0.852,8.409-3.706,15.731-7.2,22.68c-3.981,7.919-6.555,13.75-11.52,20.16c-3.479,4.492-5.409,5.63-11.16,8.28
		c-3.026,1.396-5.184,3.32-8.641,3.96c-11.742,2.173-25.804,1.028-32.76-6.84c-0.958-1.083-1.014-2.587-1.8-3.6
		c-2.108-2.718-5.236-4.162-7.56-7.2c-0.477-4.069-3.697-6.868-5.04-10.8c-2.345-6.864-4.747-15.803-5.4-23.76
		C145.807,210.702,150.631,166.22,148.044,131.86z M161.724,144.1c-0.446-1.834-0.261-4.299-2.16-4.68
		C159.546,141.718,160.071,143.473,161.724,144.1z M156.324,141.94c-1.439,0.119-1.999-0.642-3.6-0.36
		c-0.824,0.928-2.348,4.581-0.36,5.04C152.788,143.84,153.588,141.483,156.324,141.94z M154.885,168.58
		c1.277-3.522,2.14-7.46,4.32-10.08C156.863,159.556,152.497,166.343,154.885,168.58z M151.644,188.38
		c0.782,2.422,2.253,5.439,4.68,7.2c0.172-3.532-2.719-4.001-2.88-7.2C152.549,188.34,152.33,187.706,151.644,188.38z
		 M150.924,220.06c2.434-2.127,2.759-6.361,3.96-9.72c-0.36,0-0.72,0-1.08,0C153.069,213.596,150.3,216.633,150.924,220.06z
		 M236.604,227.62c-1.229-2.006-1.401-6.188-1.44-8.28c-0.36,0-0.721,0-1.08,0C233.886,222.866,232.967,227.148,236.604,227.62z
		 M159.925,249.58c-0.779-1.981-2.268-3.252-4.32-3.96C154.68,247.954,158.039,248.879,159.925,249.58z M233.005,255.34
		c-0.463-2.337,1.494-6.035,0.359-9c-0.359,0-0.72,0-1.08,0C232.888,249.816,229.552,254.409,233.005,255.34z M160.644,264.34
		c-0.995-1.886-3.49-2.271-5.04-3.6C155.567,263.479,158.72,264.741,160.644,264.34z M224.005,273.7
		c0.109-2.65,1.717-3.803,1.8-6.479c-0.36,0-0.72,0-1.08,0C224.756,270.078,220.576,272.555,224.005,273.7z M212.484,285.94
		c-0.621-2.379-3.252-2.748-5.399-3.6C207.473,284.952,210.044,285.38,212.484,285.94z M175.764,293.501
		c-1.72-1.738-2.073-6.927-0.36-9c-0.479,0-0.96,0-1.439,0C173.18,287.756,171.484,292.734,175.764,293.501z M193.045,290.98
		c0.209,1.488,2.613,3.744,3.6,2.16C195.206,292.779,195.015,289.656,193.045,290.98z"/>
	<path fill-rule="evenodd" d="M97.644,136.18c1.421,0.379,2.983,0.617,3.24,2.16C99.012,138.412,97.289,138.336,97.644,136.18z"/>
	<path fill-rule="evenodd" d="M159.564,139.42c1.899,0.381,1.714,2.846,2.16,4.68C160.071,143.473,159.546,141.718,159.564,139.42z"
		/>
	<path fill-rule="evenodd" d="M101.244,153.46c-0.603,1.407-2.217-0.48-3.6,0.36c-0.19-0.29-0.375-0.585-0.36-1.08
		C98.756,151.62,100.058,153.159,101.244,153.46z"/>
	<path fill-rule="evenodd" d="M159.204,158.5c-2.18,2.62-3.042,6.558-4.32,10.08C152.497,166.343,156.863,159.556,159.204,158.5z"/>
	<path fill-rule="evenodd" d="M99.804,164.98c0.442,0.157,0.739,0.461,0.72,1.08c-2.486,0.994-2.97,3.99-5.4,5.04
		C95.207,167.583,98.232,167.008,99.804,164.98z"/>
	<path fill-rule="evenodd" d="M255.325,167.5c1.927-3.129,4.597,0.294,6.479,0.72c1.048,0.237,4.664-1.566,5.04,1.08
		c3.223-1.534,9.528-2.393,9.72,1.8c0.243,5.316-11.437,7.548-18.359,6.48c-5.806-0.896-8.84-5.143-9-10.8
		C250.977,165.08,253.541,166.358,255.325,167.5z M274.764,170.74c-1.4-2.591-5.875-0.903-7.56,0.36
		c-1.185-0.736-1.752-2.088-3.601-2.16c-1.032,0.408-0.39,2.49-2.16,2.16c-0.514-2.006-1.643-3.398-3.96-3.6
		c-1.158,0.521-0.851,2.509-1.44,3.6c-2.099-0.782-1.677-4.084-4.681-3.96C249.464,178.322,271.089,180.049,274.764,170.74z"/>
	<path fill-rule="evenodd" fill="#FFFFFF" d="M251.364,167.14c3.004-0.124,2.582,3.178,4.681,3.96c0.589-1.091,0.281-3.079,1.44-3.6
		c2.317,0.203,3.446,1.594,3.96,3.6c1.771,0.33,1.128-1.753,2.16-2.16c1.849,0.072,2.416,1.424,3.601,2.16
		c1.685-1.264,6.159-2.951,7.56-0.36C271.089,180.049,249.464,178.322,251.364,167.14z"/>
	<path fill-rule="evenodd" fill="#FFFFFF" d="M219.684,168.58c0.392,2.926-0.32,4.873,0.36,7.2c-3.549,1.852-6.989,3.811-10.8,5.4
		C209.923,174.178,213.387,169.963,219.684,168.58z"/>
	<path fill-rule="evenodd" fill="#FFFFFF" d="M234.804,170.02c4.653,5.666-1.005,16.043-6.48,18.36
		c-2.014-2.425-2.116-6.763-3.6-9.72C231.414,180.026,235.131,176.709,234.804,170.02z"/>
	<path fill-rule="evenodd" fill="#FFFFFF" d="M221.484,178.3c3.393,3.204,0.002,8.667-1.08,13.68
		c-0.745,3.457-2.01,6.831-2.159,10.08c-1.301-0.14-0.905-1.976-2.881-1.44c-0.473,0.127-0.566,0.634-1.08,0.72
		c-0.721,3.511,2.977,2.746,3.601,2.16c-0.397,3.443-0.602,7.079-1.08,10.44c-0.199,1.592-1.468-1.206-3.24-0.36
		c-1.117,0.523-1.263,2.416-0.72,3.6c1.715,0.961,3.141-0.101,4.32-0.72c-0.236,6.173,1.592,17.87,0.72,29.88
		c-0.053,0.725-0.36,1.67-0.36,2.52c0,6.028,1.517,12.723,0.721,17.64c-0.844,5.208-6.7,7.465-8.641,10.44
		c0.668-4.409,0.24-8.697,0.36-13.32c0.061-2.388,1.399-6.42-0.36-8.28c1.96-10.184,0.982-20.086,1.44-28.8
		c0.26-4.953-0.488-10.21,0.359-14.76c0.824-4.423,2.393-11.413,3.96-18.36C216.699,187.508,218.785,182.051,221.484,178.3z
		 M215.364,232.3c0.254-1.632,1.432-3.145,0.721-4.68C211,224.016,210.63,233.93,215.364,232.3z M215.724,243.46
		C204.761,242.581,218.921,253.634,215.724,243.46L215.724,243.46z M211.764,260.38c0.844,0.716,2.291,0.829,3.96,0.72
		c0.811-1.257,0.245-3.696-0.36-4.68C212.502,254.802,210.505,257.876,211.764,260.38z"/>
	<path fill-rule="evenodd" fill="#FFFFFF" d="M217.885,180.1c0.408,0.068,0.2,0.361,0,0.36c-3.069,6.015-4.327,12.242-5.4,18.72
		c-1.276,7.71-3.871,14.534-4.319,22.32c-1.036,17.953,1.069,37.633-0.36,56.52c-3.006,2.274-7.289,3.271-11.521,4.32
		c-0.332-25.645,4.534-42.077,7.561-66.24c1.457-11.633,3.539-22.375,7.2-32.4C212.999,182.174,215.454,181.15,217.885,180.1z
		 M208.165,197.38c-0.016,0.496,0.169,0.791,0.359,1.08c1.321,0.121,1.848-0.553,2.16-1.44
		C209.728,197.024,208.629,196.884,208.165,197.38z M206.364,240.94c-0.976-0.464-1.999-0.881-3.6-0.72
		C202.49,242.391,205.931,242.414,206.364,240.94z M201.684,248.5c2.478,5.512,5.727,1.618,0.72-0.36
		C202.325,248.421,202.103,248.559,201.684,248.5z M203.844,262.9c-0.204-2.083-2.447-4.024-3.96-3.6
		C200.963,260.741,201.118,263.107,203.844,262.9z M206.364,270.461c-0.215-1.465-0.572-2.788-2.159-2.88
		C203.672,268.559,204.608,270.628,206.364,270.461z M200.965,276.581c1.148-0.214,1.113,0.675,1.8,0
		c-0.399-2.362-0.717-4.804-2.52-5.761C200.364,273.401,201.582,274.018,200.965,276.581z"/>
	<path fill-rule="evenodd" fill="#FFFFFF" d="M238.045,180.82c0.306-0.066,0.339,0.141,0.359,0.36
		c5.741,9.151,7.059,20.572,10.08,32.04c3.503,13.291,4.76,24.552,5.04,39.96c0.422,23.17-0.616,46.259-2.16,68.76
		c-10.903-2.216-19.701-1.55-30.239-3.6c0.436-5.853,0.174-13.265,0.72-20.88c0.159-2.227-0.381-5.418,0-6.84
		c0.437-1.63,2.893-3.157,3.96-4.681c4.344-6.196,7.289-11.234,10.44-19.08c1.703-4.241,4.081-9.064,5.04-13.32
		c0.577-2.566,0.548-5.497,1.079-8.28c1.239-6.482,3.145-14.359,2.881-22.68c-0.061-1.897-0.873-3.713-1.08-5.76
		c-0.82-8.108,2.161-16.901-7.2-19.08c-8.607,1.246-9.259,10.375-9.72,19.08c-0.262,4.922-1.384,10.337-1.44,14.4
		c-0.146,10.544,1.383,20.6-4.68,31.68c-0.935-12.175-1.691-25.526-1.08-39.24c0.59-13.236-0.45-26.692,4.319-37.8
		c1.42,1.701,1.969,4.271,4.32,5.04C233.34,189.075,235.618,184.874,238.045,180.82z M230.844,193.78
		c4.621,0.678,7.791,4.664,11.52,5.04c-1.775-4.225-6.169-5.83-11.52-6.48C230.844,192.82,230.844,193.3,230.844,193.78z
		 M223.644,206.38c1.018-0.297,0.933,0.507,1.8,0.36c0.581-2.299,1.432-4.328,2.88-5.76c-0.532-0.067-0.329-0.87-0.359-1.44
		c-0.48,0-0.96,0-1.441,0C225.895,202.151,224.133,203.628,223.644,206.38z M224.005,225.82c-0.145-1.338-1.651-4.97-0.721-7.56
		c-0.359,0-0.72,0-1.079,0C222.127,221.592,220.561,224.886,224.005,225.82z M248.484,247.42c-0.417-1.743-0.978-3.341-1.8-4.68
		c-0.148,0.614-0.464-0.076-1.08,0C245.114,244.804,246.633,246.648,248.484,247.42z M246.325,267.94
		c-0.094-1.416,1.608-6.98,0-8.64C246.519,261.493,243.305,266.241,246.325,267.94z M235.885,284.14
		c0.627-0.027,1.119,0.08,1.44,0.36c0.891-2.982,3.144-6.411,3.6-8.641C237.969,277.345,237.365,281.181,235.885,284.14z
		 M247.045,287.38c-1.748-0.652-1.959-2.842-3.96-3.24C242.221,285.633,245.516,289.477,247.045,287.38z M238.764,290.26
		c-2.084,0.284-2.236-1.364-4.32-1.08C234.038,291.163,238.421,292.416,238.764,290.26z M229.404,297.1
		c0.656,2.344,0.268,5.732,2.88,6.12c1.021-1.921-2.213-3.676-0.72-6.12C230.723,296.989,230.077,296.395,229.404,297.1z
		 M243.085,305.38c-1.895-2.066-2.181-5.739-4.681-7.2C238.117,300.625,240.913,306.577,243.085,305.38z M225.085,311.501
		c0.495-0.016,0.79,0.169,1.08,0.359c0.808-1.472,1.775-2.785,3.239-3.6C227.765,307.807,225.136,309.195,225.085,311.501z
		 M232.644,316.18c1.984-0.9,3.431-4.243,3.601-5.76C235.324,312.433,231.629,313.412,232.644,316.18z M246.684,314.38
		c-1.061-1.099-2.82-1.5-2.52-3.96c-0.36,0-0.721,0-1.08,0C242.603,313.188,244.586,315.39,246.684,314.38z"/>
	<path fill-rule="evenodd" d="M103.404,183.7c1.336,0.825,0.676,3.645,1.08,5.4C103.018,188.138,102.167,185.31,103.404,183.7z"/>
	<path fill-rule="evenodd" d="M101.244,187.3c-0.286,1.691-3.113,1.747-1.8,3.96C95.896,190.412,98.884,186.054,101.244,187.3z"/>
	<path fill-rule="evenodd" d="M153.444,188.38c0.162,3.199,3.052,3.668,2.88,7.2c-2.427-1.761-3.898-4.778-4.68-7.2
		C152.33,187.706,152.549,188.34,153.444,188.38z"/>
	<path fill-rule="evenodd" d="M230.844,192.34c5.351,0.65,9.744,2.255,11.52,6.48c-3.729-0.376-6.898-4.362-11.52-5.04
		C230.844,193.3,230.844,192.82,230.844,192.34z"/>
	<path fill-rule="evenodd" d="M210.684,197.02c-0.312,0.887-0.839,1.561-2.16,1.44c-0.19-0.289-0.375-0.584-0.359-1.08
		C208.629,196.884,209.728,197.024,210.684,197.02z"/>
	<path fill-rule="evenodd" d="M104.124,200.26c-0.053,1.447-1.691-0.983-2.88-0.72c-2.517,0.843-4.955,1.765-6.12,3.96
		C92.636,199.988,101.787,196.869,104.124,200.26z"/>
	<path fill-rule="evenodd" d="M226.524,199.54c0.48,0,0.96,0,1.441,0c0.03,0.57-0.173,1.373,0.359,1.44
		c-1.448,1.432-2.299,3.461-2.88,5.76c-0.867,0.148-0.782-0.657-1.8-0.36C224.133,203.628,225.895,202.151,226.524,199.54z"/>
	<path fill-rule="evenodd" d="M106.284,210.7c-0.339,0.981-1.816,0.824-2.88,1.08c-0.675,0.687,0.214,0.652,0,1.8
		c-1.505,0.305-1.425-0.975-2.16-1.44C101.767,210.53,105.149,209.49,106.284,210.7z"/>
	<path fill-rule="evenodd" d="M153.804,210.34c0.36,0,0.72,0,1.08,0c-1.202,3.359-1.527,7.593-3.96,9.72
		C150.3,216.633,153.069,213.596,153.804,210.34z"/>
	<path fill-rule="evenodd" d="M107.364,216.1c0.36,0,0.72,0,1.08,0c0.789,1.613-0.715,2.8-0.36,5.04
		C106.374,220.471,107.193,217.825,107.364,216.1z"/>
	<path fill-rule="evenodd" d="M222.205,218.26c0.359,0,0.72,0,1.079,0c-0.931,2.59,0.575,6.221,0.721,7.56
		C220.561,224.886,222.127,221.592,222.205,218.26z"/>
	<path fill-rule="evenodd" d="M234.085,219.34c0.359,0,0.72,0,1.08,0c0.038,2.093,0.211,6.274,1.44,8.28
		C232.967,227.148,233.886,222.866,234.085,219.34z"/>
	<path fill-rule="evenodd" d="M100.884,220.78c-0.024,1.617-2.788,0.891-1.44,2.88c-1.379-0.192-1.954-1.403-1.44-2.52
		C99.339,221.395,99.549,220.525,100.884,220.78z"/>
	<path fill-rule="evenodd" d="M113.844,229.42c-1.9,1.476-6.036-0.876-7.2-2.52c-0.222-0.32-0.435-0.644,0-0.72
		C108.461,226.463,111.406,228.574,113.844,229.42z"/>
	<path fill-rule="evenodd" d="M216.085,227.62c0.711,1.535-0.467,3.048-0.721,4.68C210.63,233.93,211,224.016,216.085,227.62z"/>
	<path fill-rule="evenodd" d="M108.804,234.1c-0.558,2.23-4.575,0.202-5.04-1.08C105.544,231.991,106.674,234.321,108.804,234.1z"/>
	<path fill-rule="evenodd" d="M202.764,240.22c1.6-0.161,2.624,0.256,3.6,0.72C205.931,242.414,202.49,242.391,202.764,240.22z"/>
	<path fill-rule="evenodd" d="M122.484,242.74c-2.016,0.67-3.498,0.999-5.04,0C118.615,241.507,121.598,241.484,122.484,242.74z"/>
	<path fill-rule="evenodd" fill="#FFFFFF" d="M195.925,242.02c0.869,8.506-2.061,15.859-1.8,25.92
		c-4.964,3.077-8.987,7.093-16.921,7.2c-3.872-5.128-6.832-11.167-7.92-19.08c9.498,1.111,14.35-5.22,21.961-7.92
		c0.933-1.107,1.339-2.74,3.239-2.88C194.469,243.684,195.383,243.039,195.925,242.02z M191.245,257.5
		c-0.776-1.624-1.798-3.003-3.961-3.24C187.598,256.347,189.638,256.706,191.245,257.5z M181.885,264.34
		c-0.965-1.796-0.787-4.733-3.24-5.04C178.95,261.754,179.957,263.508,181.885,264.34z M189.085,263.98
		c0.387-1.947-0.977-2.144-0.721-3.96c-0.359,0-0.72,0-1.08,0C186.299,261.652,187.854,263.409,189.085,263.98z M180.804,267.58
		c1.564,1.195,1.009,4.511,2.88,5.4c1.021-2.207-1.334-3.869-1.44-6.12c-0.359,0-0.72,0-1.079,0
		C181.084,267.14,181.154,267.57,180.804,267.58z"/>
	<path fill-rule="evenodd" d="M245.604,242.74c0.616-0.076,0.933,0.614,1.08,0c0.822,1.338,1.383,2.937,1.8,4.68
		C246.633,246.648,245.114,244.804,245.604,242.74z"/>
	<path fill-rule="evenodd" d="M215.724,243.46C218.921,253.634,204.761,242.581,215.724,243.46L215.724,243.46z"/>
	<path fill-rule="evenodd" d="M155.604,245.62c2.052,0.708,3.541,1.979,4.32,3.96C158.039,248.879,154.68,247.954,155.604,245.62z"
		/>
	<path fill-rule="evenodd" d="M232.284,246.34c0.36,0,0.721,0,1.08,0c1.135,2.965-0.822,6.663-0.359,9
		C229.552,254.409,232.888,249.816,232.284,246.34z"/>
	<path fill-rule="evenodd" d="M202.404,248.14c5.007,1.978,1.758,5.872-0.72,0.36C202.103,248.559,202.325,248.421,202.404,248.14z"
		/>
	<path fill-rule="evenodd" d="M77.124,253.18c1.506-3.332,7.801-3.053,9,0.36c2.713-2.468,6.879-1.538,10.08,0
		c1.111,2.303,0.223,4.148-0.72,6.12c-5.893,4.003-13.451,3.217-20.52,2.16c-5.111,1.865-17.906-1.774-17.64-7.2
		c0.183-3.732,5.997-4.715,9.36-1.8C69.047,248.45,74.844,250.709,77.124,253.18z M69.204,252.1c-1.398,0.282,0.161,3.52-1.8,3.24
		c-1.963-1.392-4.216-3.194-6.84-2.88c-3.141,2.441,0.046,6.001,3.6,7.2c6.149,2.076,31.516,4.11,30.96-5.04
		c-3.051-2.827-7.345-0.731-8.64,2.16c-1.498-2.387-2.341-4.942-5.04-4.68c-2.395,0.233-2.289,3.35-4.68,3.96
		C75.589,253.599,73.126,250.629,69.204,252.1z"/>
	<path fill-rule="evenodd" d="M134.004,251.38c-1.23,0.635-3.622-0.695-3.6,1.8c-0.795-0.045-0.153-1.527-0.36-2.16
		C131.76,250.798,132.733,250.541,134.004,251.38z"/>
	<path fill-rule="evenodd" fill="#FFFFFF" d="M76.764,256.06c2.391-0.609,2.286-3.727,4.68-3.96c2.699-0.262,3.543,2.293,5.04,4.68
		c1.295-2.892,5.589-4.987,8.64-2.16c0.556,9.15-24.811,7.116-30.96,5.04c-3.554-1.2-6.741-4.759-3.6-7.2
		c2.623-0.313,4.877,1.488,6.84,2.88c1.961,0.28,0.402-2.958,1.8-3.24C73.126,250.629,75.589,253.599,76.764,256.06z"/>
	<path fill-rule="evenodd" d="M115.284,252.1c1.547,0.613,1.76,2.56,2.521,3.96C116.102,255.603,115.086,254.458,115.284,252.1z"/>
	<path fill-rule="evenodd" d="M123.204,252.46c1.764,1.596,3.864,2.857,4.68,5.4C125.486,256.898,123.928,255.096,123.204,252.46z"
		/>
	<path fill-rule="evenodd" d="M187.284,254.26c2.163,0.237,3.185,1.616,3.961,3.24C189.638,256.706,187.598,256.347,187.284,254.26z
		"/>
	<path fill-rule="evenodd" d="M215.364,256.42c0.605,0.984,1.171,3.423,0.36,4.68c-1.669,0.109-3.116-0.004-3.96-0.72
		C210.505,257.876,212.502,254.802,215.364,256.42z"/>
	<path fill-rule="evenodd" d="M136.884,256.78c0.581-0.102,0.62,0.34,1.08,0.36c-0.756,2.117-0.06,5.965-0.36,7.56
		C135.188,263.941,136.165,258.656,136.884,256.78z"/>
	<path fill-rule="evenodd" d="M199.885,259.3c1.513-0.424,3.756,1.517,3.96,3.6C201.118,263.107,200.963,260.741,199.885,259.3z"/>
	<path fill-rule="evenodd" d="M178.644,259.3c2.453,0.307,2.275,3.244,3.24,5.04C179.957,263.508,178.95,261.754,178.644,259.3z"/>
	<path fill-rule="evenodd" d="M246.325,259.3c1.608,1.659-0.094,7.224,0,8.64C243.305,266.241,246.519,261.493,246.325,259.3z"/>
	<path fill-rule="evenodd" d="M187.284,260.02c0.36,0,0.721,0,1.08,0c-0.256,1.816,1.107,2.013,0.721,3.96
		C187.854,263.409,186.299,261.652,187.284,260.02z"/>
	<path fill-rule="evenodd" d="M155.604,260.74c1.55,1.33,4.045,1.714,5.04,3.6C158.72,264.741,155.567,263.479,155.604,260.74z"/>
	<path fill-rule="evenodd" d="M143.004,265.78c1.133,1.509-0.96,4.482-0.36,7.2C140.505,271.637,141.843,267.106,143.004,265.78z"/>
	<path fill-rule="evenodd" d="M133.644,267.22c-1.618-0.544-3.911,1.045-3.96,3.24c-0.646,0.046-0.759-0.441-1.44-0.36
		C128.368,267.882,132.001,265.542,133.644,267.22z"/>
	<path fill-rule="evenodd" d="M181.165,266.86c0.359,0,0.72,0,1.079,0c0.106,2.25,2.462,3.913,1.44,6.12
		c-1.871-0.889-1.315-4.205-2.88-5.4C181.154,267.57,181.084,267.14,181.165,266.86z"/>
	<path fill-rule="evenodd" d="M224.724,267.22c0.36,0,0.72,0,1.08,0c-0.083,2.677-1.69,3.829-1.8,6.479
		C220.576,272.555,224.756,270.078,224.724,267.22z"/>
	<path fill-rule="evenodd" d="M204.205,267.58c1.587,0.093,1.944,1.416,2.159,2.88C204.608,270.628,203.672,268.559,204.205,267.58z
		"/>
	<path fill-rule="evenodd" fill="#FFFFFF" d="M193.404,270.461c1.061,3.677-0.356,7.903,0.36,11.52
		c-5.518,0.697-10.314-2.391-13.68-5.04C185.645,275.901,190.428,274.084,193.404,270.461z"/>
	<path fill-rule="evenodd" d="M200.245,270.82c1.803,0.957,2.121,3.398,2.52,5.761c-0.687,0.675-0.651-0.214-1.8,0
		C201.582,274.018,200.364,273.401,200.245,270.82z"/>
	<path fill-rule="evenodd" d="M240.925,275.86c-0.456,2.229-2.709,5.658-3.6,8.641c-0.321-0.28-0.813-0.388-1.44-0.36
		C237.365,281.181,237.969,277.345,240.925,275.86z"/>
	<path fill-rule="evenodd" d="M207.085,282.34c2.147,0.852,4.778,1.221,5.399,3.6C210.044,285.38,207.473,284.952,207.085,282.34z"
		/>
	<path fill-rule="evenodd" d="M243.085,284.14c2.001,0.398,2.212,2.588,3.96,3.24C245.516,289.477,242.221,285.633,243.085,284.14z"
		/>
	<path fill-rule="evenodd" d="M173.965,284.501c0.479,0,0.96,0,1.439,0c-1.713,2.073-1.359,7.262,0.36,9
		C171.484,292.734,173.18,287.756,173.965,284.501z"/>
	<path fill-rule="evenodd" d="M234.444,289.18c2.084-0.284,2.236,1.364,4.32,1.08C238.421,292.416,234.038,291.163,234.444,289.18z"
		/>
	<path fill-rule="evenodd" d="M196.644,293.14c-0.986,1.584-3.391-0.672-3.6-2.16C195.015,289.656,195.206,292.779,196.644,293.14z"
		/>
	<path fill-rule="evenodd" fill="#FFFFFF" d="M218.604,292.78c0.433,8.829-0.133,16.058-0.359,25.561
		c-2.453-0.467-4.318-0.257-6.841,0c0.21-8.242,0.293-12.928-0.359-20.521C213.324,295.899,217.284,295.66,218.604,292.78z
		 M213.925,305.02c1.093,0.201,2.441,1.339,3.6,0.36c0.545-0.896-0.489-2.703-1.08-3.601c-0.72,0-1.439,0-2.16,0
		C213.681,302.378,213.998,303.894,213.925,305.02z M216.444,314.74c0.357-0.963,0.742-1.897,0.721-3.239
		C213.354,308.505,211.649,316.399,216.444,314.74z"/>
	<path fill-rule="evenodd" d="M231.564,297.1c-1.493,2.444,1.74,4.199,0.72,6.12c-2.612-0.388-2.224-3.776-2.88-6.12
		C230.077,296.395,230.723,296.989,231.564,297.1z"/>
	<path fill-rule="evenodd" d="M238.404,298.18c2.5,1.461,2.786,5.134,4.681,7.2C240.913,306.577,238.117,300.625,238.404,298.18z"/>
	<path fill-rule="evenodd" fill="#FFFFFF" d="M207.085,299.26c1.685,5.646,2.088,12.963,1.439,20.16
		c-2.647,0.142-7.787,0.11-11.88,0.72c-0.486-6.472,0.116-11.845,0-18.72C200.182,300.758,203.78,300.156,207.085,299.26z
		 M200.604,308.621c2.59-0.654,3.318-5.077,3.24-7.2C202.996,304.051,200.731,305.267,200.604,308.621z M206.724,317.26
		c-1.134-1.266-0.791-4.009-2.16-5.04C203.711,314.148,204.052,317.69,206.724,317.26z M200.604,316.541
		c-0.091-1.23-0.91-1.73-0.72-3.24c-0.36,0-0.72,0-1.08,0C197.873,314.678,198.794,316.762,200.604,316.541z"/>
	<path fill-rule="evenodd" d="M203.844,301.421c0.078,2.123-0.65,6.546-3.24,7.2C200.731,305.267,202.996,304.051,203.844,301.421z"
		/>
	<path fill-rule="evenodd" d="M214.284,301.78c0.721,0,1.44,0,2.16,0c0.591,0.897,1.625,2.704,1.08,3.601
		c-1.158,0.979-2.507-0.159-3.6-0.36C213.998,303.894,213.681,302.378,214.284,301.78z"/>
	<path fill-rule="evenodd" d="M229.404,308.26c-1.465,0.814-2.432,2.128-3.239,3.6c-0.29-0.19-0.585-0.375-1.08-0.359
		C225.136,309.195,227.765,307.807,229.404,308.26z"/>
	<path fill-rule="evenodd" d="M243.085,310.421c0.359,0,0.72,0,1.08,0c-0.301,2.46,1.459,2.861,2.52,3.96
		C244.586,315.39,242.603,313.188,243.085,310.421z"/>
	<path fill-rule="evenodd" d="M217.165,311.501c0.022,1.342-0.363,2.276-0.721,3.239
		C211.649,316.399,213.354,308.505,217.165,311.501z"/>
	<path fill-rule="evenodd" d="M204.564,312.22c1.369,1.031,1.026,3.774,2.16,5.04C204.052,317.69,203.711,314.148,204.564,312.22z"
		/>
	<path fill-rule="evenodd" d="M198.804,313.3c0.36,0,0.72,0,1.08,0c-0.19,1.51,0.629,2.011,0.72,3.24
		C198.794,316.762,197.873,314.678,198.804,313.3z"/>
	<path fill-rule="evenodd" fill="#FFFFFF" d="M223.644,321.581c0.327,0.993,0.112,2.528,0.72,3.239c-2.822,0.314-7.082-1.692-9.72,0
		c-0.022,4.982,5.703,4.548,9.72,3.601c-0.154,5.908-8.998,4.691-14.76,4.32c-0.667-3.211-0.406-7.899,0-11.16
		C215.015,321.659,218.821,320.524,223.644,321.581z"/>
	<path fill-rule="evenodd" fill="#FFFFFF" d="M251.364,324.461c0.637,2.05,0.268,4.671-0.359,6.479
		c-5.746,1.508-15.403,0.946-23.04,1.08c-0.624-2.935-0.516-7.847,0-10.8C236.714,321.546,243.937,322.284,251.364,324.461z
		 M229.764,327.701c1.057,0.863,2.441,1.398,4.32,1.439c0.599-0.961,1.855-1.264,1.8-2.88c-1.062-2.232-4.64-2.814-6.12-1.8
		C230.867,325.241,229.419,326.487,229.764,327.701z M238.045,325.541c0.756,1.128,0.523,1.157,0.359,2.88
		c0.809,0.392,1.564,0.836,2.521,1.08c0.856-0.824,2.049-1.311,2.16-2.88C242.515,324.558,239.26,325.291,238.045,325.541z
		 M246.325,329.86c1.89,0.675,3.578-0.002,3.96-1.8C249.26,325.189,244.437,326.292,246.325,329.86z"/>
	<path fill-rule="evenodd" fill="#FFFFFF" d="M206.724,321.94c-0.444,4.358-0.231,5.572,0,9c-4.745,0.369-5.998-0.882-10.8-0.72
		c0.056-2.585-0.215-5.494,0.359-7.56C200.023,322.087,202.967,321.102,206.724,321.94z"/>
	<path fill-rule="evenodd" d="M243.085,326.621c-0.111,1.568-1.304,2.056-2.16,2.88c-0.956-0.244-1.712-0.688-2.521-1.08
		c0.164-1.723,0.396-1.752-0.359-2.88C239.26,325.291,242.515,324.558,243.085,326.621z"/>
	<path fill-rule="evenodd" d="M151.644,329.14c2.439-1.618,5.95-0.27,7.2,1.44c2.737-2.156,7.328-0.395,7.56,2.52
		c0.587,7.378-27.209,10.684-32.04,3.6c-1.293-1.896-2.643-6.635,0.36-9.36c3.746-0.026,6.231,1.208,7.92,3.24
		C144.236,326.959,149.448,324.646,151.644,329.14z M143.724,333.82c-2.46-2.868-5.088-6.666-9.36-3.96
		c0.169,2.324,0.189,5.229,1.8,6.841c2.829,2.829,13.929,3.084,19.8,1.8c3.749-0.82,7.782-3.009,9-4.681
		c-0.236-1.684-1.911-1.929-2.88-2.88c-1.897,0.023-1.911,1.93-3.6,2.16c-1.229-1.41-2.113-3.167-4.68-3.24
		c-1.319,0.122-0.739,2.142-2.52,1.801C149.573,326.097,143.662,327.766,143.724,333.82z"/>
	<path fill-rule="evenodd" d="M250.285,328.06c-0.382,1.798-2.07,2.475-3.96,1.8C244.437,326.292,249.26,325.189,250.285,328.06z"/>
	<path fill-rule="evenodd" fill="#FFFFFF" d="M151.284,331.661c1.781,0.341,1.201-1.679,2.52-1.801
		c2.567,0.073,3.451,1.83,4.68,3.24c1.689-0.23,1.703-2.137,3.6-2.16c0.969,0.951,2.644,1.196,2.88,2.88
		c-1.218,1.672-5.251,3.86-9,4.681c-5.871,1.284-16.971,1.029-19.8-1.8c-1.611-1.611-1.631-4.517-1.8-6.841
		c4.272-2.706,6.9,1.092,9.36,3.96C143.662,327.766,149.573,326.097,151.284,331.661z"/>
	<path fill-rule="evenodd" d="M45.084,378.1c-0.698-3.666-7.255-2.818-9-0.72c-0.914-3.176-5.251-2.689-7.2-0.72
		c-1.497-3.227-7.012-2.04-9,0c-2.307-3.956-7.48-2.004-9.36,1.08c-0.639-2.373-2.111-4.578-5.276-4.578
		c-4.492,0-5.502,4.442-5.199,6.331c0.599,3.733,5.03,6.839,5.581,7.207c4.956,3.317,12.089,5.363,21.813,4
		c6.974-0.979,19.708-1.646,23.76-5.4C55.984,380.872,49.795,372.156,45.084,378.1z M44.724,386.741
		c-6.721,2.052-13.57,2.107-21.6,2.52c-8.418,0.432-14.382-1.845-18.426-5.22c-0.309-0.258-2.072-2.23-2.496-4.416
		c-0.243-1.253-0.045-2.575,1.122-3.685c0.94-0.64,1.715-0.874,2.38-0.837c2.538,0.14,3.478,4.227,5.9,4.797
		c0.716-2.283,2.036-3.963,4.68-4.319c2.027,0.853,2.031,3.729,4.32,4.319c0.032-3.322,3.219-4.191,6.12-3.6
		c0.674,0.886,1.126,1.994,1.8,2.88c2.899-4.213,6.438-1.466,8.64,1.44c-0.162-3.283,2.351-3.89,5.76-3.601
		c0.695,1.585,1.303,3.258,2.88,3.96c0.518-1.642,1.223-3.097,2.88-3.6C55.573,380.238,48.622,385.55,44.724,386.741z"/>
	<path fill-rule="evenodd" fill="#FFFFFF" d="M230.125,525.34c1.037,0.043,2.357-0.196,2.88,0.36c-0.033,2.487,0.562,5.603-2.16,5.4
		C229.788,529.809,229.895,526.911,230.125,525.34z"/>
	<path fill-rule="evenodd" fill="#FFFFFF" d="M202.404,526.061c1.102-0.262,1.06,0.621,2.16,0.359
		c0.086,1.526-0.331,2.55-0.72,3.601C202.09,529.318,201.745,527.645,202.404,526.061z"/>
	<path fill-rule="evenodd" fill="#FFFFFF" d="M229.764,533.26c2.68-0.276,4.23,0.232,5.04-2.159c3.44,1.367,4.727,8.353,2.16,11.52
		c-1.169-0.751-1.497-2.344-1.441-4.32c-0.04-0.68-1.189-0.249-1.08-1.08c-5.811,0.587-9.739,4.851-16.199,3.601
		C215.016,533.779,226.254,527.259,229.764,533.26z"/>
	<path fill-rule="evenodd" fill="#FFFFFF" d="M204.564,531.821c0.904,3.321,2.837,7.099,0.72,9.72
		c-1.782-0.377-1.143-3.177-1.8-4.68c-4.941,1.3-10.783,6.723-15.84,2.519c-0.22-3.699,3.307-3.653,4.32-6.12
		C195.996,532.217,199.487,530.945,204.564,531.821z"/>
	<path fill-rule="evenodd" fill="#FFFFFF" d="M166.044,85.78c2.324-1.968,2.541-6.552,2.52-10.8c-0.016-3.244-2.031-7.944,1.44-8.64
		c2.635,3.408,2.104,11.053,1.8,14.76c-0.795,9.696-6.912,17.862-7.2,28.44c-6.945-0.504-12.714,0.835-19.44,1.44
		c-0.22-9.26-4.704-14.257-11.88-16.56c0.165-1.275,0.801-2.08,0.72-3.6c-1.283-2.306-3.93-3.288-6.48-2.52
		c2.362-5.666,8.733,1.21,12.6,3.6c6.803,4.204,14.774-16.682,7.2-20.88c-5.473-0.843-5.965,5.898-11.16,6.48
		c1.724-0.676,3.032-1.768,3.6-3.6c0.059-1.5-1.071-1.81-1.441-2.88c3.501-2.48,5.835-4.589,11.521-4.32
		c7.505,3.807,6.532,17.09,6.84,23.4c2.173,0.009,2.022-2.816,2.16-4.32c0.367-4.013-0.558-9.385-1.44-13.32
		c4.1,3.504,2.784,12.082,3.961,17.64c2.434-4.54,1.504-9.991-0.36-15.12C164.814,75.792,161.915,84.201,166.044,85.78z
		 M156.324,93.7c0.554-0.548,0.641-2.468-0.72-2.16C155.05,92.088,154.963,94.008,156.324,93.7z M161.365,94.06
		c0.101-0.941-0.132-1.548-1.08-1.44C160.183,93.561,160.416,94.169,161.365,94.06z M144.804,96.22
		c2.225-0.055,3.449-1.111,4.32-2.52C147.35,92.89,144.884,94.168,144.804,96.22z"/>
	<path fill-rule="evenodd" d="M152.364,146.62c-1.987-0.459-0.463-4.111,0.36-5.04c1.602-0.282,2.161,0.479,3.6,0.36
		C153.588,141.483,152.788,143.84,152.364,146.62z"/>
	<path fill-rule="evenodd" d="M110.604,245.98c-0.068,0.71,1.041,1.638,1.44,2.88c-1.719,0.28-2.128-0.752-2.16-2.16
		C110.205,246.541,110.528,246.384,110.604,245.98z"/>
	<path fill-rule="evenodd" d="M236.245,310.421c-0.17,1.517-1.616,4.859-3.601,5.76
		C231.629,313.412,235.324,312.433,236.245,310.421z"/>
	<path fill-rule="evenodd" d="M229.764,324.461c1.48-1.015,5.058-0.433,6.12,1.8c0.056,1.616-1.201,1.919-1.8,2.88
		c-1.879-0.041-3.264-0.576-4.32-1.439C229.419,326.487,230.867,325.241,229.764,324.461z"/>
	<path fill-rule="evenodd" d="M251.005,64.18c1.317,15.425-0.061,28.621-0.36,43.56c-0.195,9.766-0.037,20.715-4.319,29.52
		c-1.104,2.271-3.352,5.298-5.04,7.2c-1.564,1.761-4.611,2.838-5.761,5.04c-1.246,2.389-1.809,13.741-0.72,17.28
		c0.821,2.67,6.556,4.846,4.32,10.08c1.483,4.16,5.751,6.963,7.2,11.88c1.017,3.453,1.338,8.12,2.159,11.88
		c0.657,3.005,1.093,4.863,1.44,8.28c1.189,11.709,5.164,24.261,5.76,37.44c0.435,9.628-0.128,19.538-0.359,29.16
		c-0.316,13.083,0.729,26.302-2.16,38.52c0.083,6.996,2.283,12.528,0,18.36c1.047,12.729-7.544,23.234-9,34.92
		c-1.586,12.726,0.093,24.533,0.359,36c0.239,10.27,0.954,21.078,1.441,33.12c0.443,10.98,1.884,21.231,2.16,31.32
		c0.085,3.137-0.844,6.244-0.721,9.359c0.164,4.139,1.401,8.374,1.44,12.6c0.105,11.335-2.586,22.294-0.72,34.56
		c-3.065,0.739-8.914,0.119-11.88,1.44c-1.892,2.808,2.814,5.579,3.6,10.08c0.519,2.971,0.03,7.94-2.16,8.64
		c-2.492,0.797-4.408-1.279-4.32-3.96c-5.357,3.101-17.808,6.223-19.439-1.439c-1.395-6.544,7.237-10.402,12.96-11.16
		c0.534-4.134-5.213-1.987-7.561-3.24c-1.535-5.52-0.775-13.193-2.159-17.28c0.781-9.021,1.548-18.123,0.359-28.08
		c-0.24-2.013-1.223-3.71-1.439-5.76c-1.17-11.052-0.94-19.913-1.44-32.4c-0.91-22.749,0.695-46.903,1.44-69.12
		c0.097-2.907,1.381-7.094-1.44-8.64c-3.073,3.382-3.947,9.086-3.96,14.76c-0.071,32.737-0.224,65.731,0,94.681
		c0.075,9.728,3.23,19.403,3.96,29.88c0.481,6.919-2.529,14.275-0.72,21.6c-1.927,0.996-4.397,2.403-6.84,1.801
		c-2.178,3.247,1.313,5.608,1.8,9c1.03,7.174-4.733,11.742-7.561,4.68c-2.415,3.573-14.636,4.819-15.84,0
		c-0.321-1.288,0.534-4.213,1.44-5.4c2.202-2.886,7.615-5.071,12.6-5.04c-0.288-1.248,0.536-1.384,0.36-2.52
		c-0.841-2.159-5.051-0.949-6.84-2.16c0.249-18.459-2.539-36.177-2.88-54c-0.214-11.143-2.904-22.999-2.881-34.561
		c0.008-3.516,0.682-7.039,0.36-10.439c-1.11-11.763-1.286-23.895-0.72-36.36c0.3-6.615-0.424-13.773,0.72-20.16
		c0.195-1.092,1.187-2.147,1.44-3.24c0.801-3.453,0.806-8.006,1.439-12.239c1.543-10.301,3.169-21.882,2.16-32.04
		c-0.209-1.29,1.065-1.095,2.16-1.08c-0.844-6.102-0.684-10.275-0.72-18c-1.656-0.656-4.009,0.068-4.681,0
		c-16.676-1.715-26.361-12.155-35.28-22.32c-12.52-1.048-23.831-3.1-32.76-7.92c-6.803-3.673-12.453-13.065-16.92-20.16
		c-2.437-3.871-4.122-8.082-5.76-12.6c-1.604-4.425-3.817-8.816-5.04-13.32c-1.153-4.245-1.163-9.442-1.8-14.4
		c-0.553-4.297-1.81-8.564-2.16-12.6c-1.177-13.554-0.746-24.473-1.8-38.16c-0.814-10.564,1.317-21.933,1.44-30.6
		c-2.627-3.126-3.388-7.851-2.16-12.96c0.606-2.52,2.302-4.116,1.8-6.48c-1.082-5.099-8.461-5.017-12.6-8.28
		c-2.11-1.664-3.929-4.556-5.76-7.2c-2.803-4.048-6.489-7.201-4.68-12.24c-5.415-0.105-11.585,0.545-15.12-1.44
		c-2.925-4.242,2.614-8.766,6.12-5.4c1.754-3.497,7.49-5.739,8.28,0c1.037-1.153,2.873-1.797,3.96-1.08
		c0.472-3.951,0.862-5.841,3.96-7.92c4.702-3.155,14.663-8.987,21.6-6.12c2.327,0.961,5.939,6.197,8.64,7.92
		c4.713,3.008,4.45,8.697,5.04,14.4c4.194,0.307-0.253-14.382,5.4-14.04c5.033,0.305,2.507,17.432,1.44,21.24
		c-0.696,2.485-2.282,5.923-3.24,9.36c-0.838,3.008-2.784,7.719-2.16,10.44c0.522,2.277,3.255,2.776,3.6,6.12
		c0.556,5.393-3.041,10.999-3.6,15.12c-0.826,6.086,1.447,14.034,0.72,20.88c-0.917,8.634-1.413,18.936-1.08,27.36
		c0.214,5.402,1.943,11.571,2.52,17.64c1.609,16.918,7.242,31.329,15.84,41.4c4.668,5.467,10.767,8.84,17.64,10.44
		c-2.602-40.23,0.648-78.658,0.36-117.72c-5.907-1.758-6.848-16.597-2.521-20.88c-2.114-6.739-2.741-10.587-7.92-14.04
		c-4.547-3.032-13.066-3.605-9.36-10.8c-4.716-0.541-7.003-7.25-1.8-9c2.333-0.688,3.199,1.837,4.32,1.8
		c1.345-0.045,1.684-3.013,3.96-1.8c3.108-6.127,9.207-15.008,18.36-11.88c1.469,0.502,4.172,2.515,6.48,3.96
		c3.955,2.476,6.05,4.971,7.92,9c0,1.68,0,3.36,0,5.04c2.998-3.444,0.971-9.108,1.08-13.32c0.073-2.808,1.219-6.58,3.601-6.48
		c2.203,0.092,3.338,4.689,3.6,7.56c1.219,13.359-5.333,27.45-7.2,38.52c3.556,2.176,3.443,3.57,4.32,7.56
		c0.662,3.014,1.352,6.761,0,10.44c-0.899,2.448-3.765,3.82-4.32,6.12c-0.629,2.605,0.321,6.361,0.36,9.72
		c0.036,3.061,0.421,6.537,0.36,9.72c-0.126,6.529-2.07,15.736-2.16,23.4c-0.079,6.725-1.215,13.375-1.44,20.16
		c-0.184,5.556-1.093,10.727-1.44,15.84c-1.005,14.817,4.872,28.452,6.48,40.68c14.409-0.554,20.061-7.726,28.44-14.4
		c1.968-20.042,3.923-37.869,10.439-53.28c-3.01-6.479,4.283-22.626,12.601-19.44c-0.483-5.15,0.663-8.735,0-12.24
		c-1.45-7.662-11.188-7.527-12.24-15.48c-1.139-8.6,4.688-12.679,2.52-20.88c-0.571-2.163-2.711-2.778-3.6-5.4
		c-1.877-5.543,1.073-11.191,0.72-17.28c-2.095-1.488-7.051-1.393-8.279-3.96c-2.017-4.215,1.678-12.27,2.52-17.64
		c2.125-13.566,5.815-28.041,4.32-45c-0.546-6.185-0.363-9.756-3.601-13.68c-0.329-5.819,2.433-9.724,6.12-11.52
		c2.137-1.041,12.949-3.503,16.2-2.88c2.299,0.441,4.338,1.989,6.84,2.52c7.04,1.495,14.518-2.329,20.88-0.36
		c3.223,0.997,7.988,6.317,8.641,8.64c1.105,3.939-0.513,10.854-1.08,15.48c-0.612,4.987-1.891,10.079-1.8,15.12
		c0.128,7.146,2.179,14.459-2.16,19.44C254.816,62.35,252.293,62.841,251.005,64.18z M207.085,19.18
		c4.454,24.119-3.564,48.172-6.84,70.2c1.051,1.468,2.818,2.221,5.039,2.52c0.49-4.911,6.087-3.218,6.481-0.36
		c1.116-0.204,2.738,0.098,2.88-1.08c1.257-2.381-3.104-3.631-1.8-6.12c3.819-0.53,6.773,3.983,4.68,8.28
		c-1.867,0.893-3.701,1.818-6.84,1.44c-0.809,2.552-1.168,5.552-1.8,8.28c4.216,0.045,7.931-0.223,10.439,0.72
		c2.581,0.97,6.38,2.279,7.2,4.32c-4.881,2.198-8.41,5.75-13.68,7.56c2.988,10.396-5.239,18.568-0.72,27
		c1.724,3.217,7.125,5.148,9.359,8.28c5.011,7.021,0.694,15.31,1.44,24.48c1.311,1.596,4.895,2.34,7.56,1.44
		c3.67-6.918-0.546-22.454,3.601-29.16c1.163-1.883,3.212-2.104,5.04-3.96c7.511-7.623,8.935-19.998,9-31.68
		c0.042-7.69,1.165-15.811,1.08-24.12c-0.083-8.02,0.113-15.925,0-23.76c-5.121-3.128-1.527-7.603,0-13.68
		c0.798-3.175,1.215-6.895,1.439-10.08c0.501-7.079-2.129-17.173-9-16.92c-6.541,0.241-4.566,6.847-6.48,10.885
		c-2.753-0.747-4.25-0.254-6.12-0.72c-2.131-3.75,1.977-11.663-1.8-13.766C220.398,18.006,213.241,22.737,207.085,19.18z
		 M75.324,67.78c1.89,2.505,0.633,7.001-3.96,6.12c2.339,4.46,5.608-1.74,7.56-3.24c4.58-3.518,12.137-6.911,14.4,0
		c2.445,7.467-1.187,18.171-6.12,21.96c-8.791,2.9-12.47-6.053-17.64-10.08c-0.319,0.881-2.01,0.39-1.8,1.8
		c5.559-0.457,5.702,5.385,2.88,7.92c2.53,5.843,6.868,9.266,12.96,11.52c4.038,1.494,8.076,2.047,8.64,6.48
		c5.703-1.11,10.322-0.33,15.48,0.72c0.503-12.916,8.839-20.676,6.84-33.84c-1.101,0.261-1.059-0.621-2.16-0.36
		c0.455,3.157,0.742,9.841-3.24,9.72c-4.854-0.148-0.78-11.294-4.68-14.04c0.406,4.904,2.716,11.479,0.36,15.84
		c-3.299-3.36-0.188-8.613-1.08-13.32c-0.321-1.694-1.292-3.094-2.16-4.68c0.687,5.608,2.738,15.558-2.16,18.72
		c-1.729-4.162,1.579-9.618,1.08-14.4c-0.516-4.945-2.884-7.724-5.76-11.52c0.027,1.515-1.767,2.561-2.521,2.16
		c-0.714-0.708-0.229-2.056,0-2.88C84.411,61.987,80.832,65.847,75.324,67.78z M161.004,74.98c1.864,5.129,2.795,10.58,0.36,15.12
		c-1.176-5.559,0.139-14.136-3.961-17.64c0.883,3.936,1.808,9.308,1.44,13.32c-0.138,1.504,0.013,4.329-2.16,4.32
		c-0.308-6.31,0.665-19.593-6.84-23.4c-5.685-0.27-8.019,1.84-11.521,4.32c0.37,1.071,1.5,1.38,1.441,2.88
		c-0.568,1.831-1.876,2.924-3.6,3.6c5.195-0.582,5.688-7.323,11.16-6.48c7.574,4.199-0.397,25.085-7.2,20.88
		c-3.867-2.39-10.238-9.266-12.6-3.6c2.55-0.768,5.197,0.214,6.48,2.52c0.081,1.521-0.555,2.325-0.72,3.6
		c7.176,2.303,11.66,7.3,11.88,16.56c6.726-0.605,12.495-1.944,19.44-1.44c0.289-10.578,6.405-18.744,7.2-28.44
		c0.304-3.707,0.835-11.352-1.8-14.76c-3.472,0.696-1.456,5.396-1.44,8.64c0.02,4.248-0.196,8.832-2.52,10.8
		C161.915,84.201,164.814,75.792,161.004,74.98z M76.764,75.34c0.94,1.22,2.167,2.152,3.6,2.88c0.626-1.294,2.167-1.672,3.6-2.16
		c1.581,1.387,3.775,1.907,3.96,3.961c0.493,5.477-8.015,3.791-11.88,4.32c0.438,1.481,1.002,2.838,1.44,4.32
		c11.836,7.993,16.33-9.175,13.32-19.44C85.177,65.92,80.378,72.255,76.764,75.34z M72.084,72.46c1.785,0.105,2.625-0.734,2.52-2.52
		C73.028,68.81,72.172,70.959,72.084,72.46z M114.924,75.7c0.025-1.225,0.112-2.512-0.72-2.88
		C113.374,73.307,112.81,76.205,114.924,75.7z M135.084,75.34c1.783,1.136,3.458-0.502,3.24-2.52
		C136.135,72.55,135.555,73.891,135.084,75.34z M140.484,78.58c5.767,2.152,2.262,8.835-3.6,8.28
		c6.568,7.609,13.483-3.455,11.16-12.24C144.776,71.869,141.137,75.425,140.484,78.58z M58.404,79.3
		c-1.477-1.291-5.13-4.326-6.84-1.08c2.226,5.708,9.464,2.927,14.76,3.96c1.157-1.243,3.174-1.626,4.68-2.52
		c1.482-0.498,2.495,2.575,5.04,3.24c4.618,1.206,12.461-0.477,10.08-3.96c-1.252-0.548-3.004-0.596-4.32-1.08
		c-0.364,0.956-0.592,2.048-1.8,2.16c-2.176,0.016-1.834-2.486-3.96-2.521c-1.812,0.107-2.022,1.818-3.96,1.8
		c-1.437-3.038-6.062-3.917-7.2,0c-1.041-1.24-0.763-3.797-2.16-4.68C59.024,73.92,58.998,76.894,58.404,79.3z M128.244,81.46
		c-0.594-0.846-0.785-2.095-1.8-2.52c-2.429,0.588-3.113,0.709-4.32,2.52c0.622,2.335,3.098,2.94,5.76,3.24
		c4.551,0.512,10.121,1.208,14.04-0.72c0.081-0.28,0.01-0.71,0.36-0.72c0.284-4.583-4.937-3.076-7.2-1.8
		c-0.706-1.694-1.585-3.215-4.32-2.88C129.643,79.259,130.052,81.467,128.244,81.46z M69.564,90.82
		c0.817-0.863,1.376-1.984,1.44-3.6c-0.908-0.652-1.886-1.234-3.6-1.08C67.453,88.371,68.589,89.515,69.564,90.82z M127.884,89.74
		c-0.064,1.474,1.872,3.823,4.32,3.96c-0.079-1.159,0.637-1.523,0.36-2.88C131.732,89.852,129.581,88.689,127.884,89.74z
		 M208.885,106.3c4.009,2.126,7.887,1.085,12.6,0.36C218.662,104.031,210.402,101.675,208.885,106.3z M209.245,109.54
		c0.629,7.054,8.423,1.409,10.439-0.72C216.867,110.353,212.101,109.617,209.245,109.54z M144.084,115.3
		c-0.291,4.371,0.587,7.573,0.72,11.52c3.894,4.776,15.242,5.348,21.24,2.16c2.259-3.326,2.69-8.502,2.16-13.68
		C163.632,108.936,150.517,111.815,144.084,115.3z M111.684,117.46c-0.601-5.456-5.622-4.164-11.52-4.68
		c-1.974-0.173-5.04-1.399-7.2-0.72c-4.628,1.455-4.051,11.545-2.52,16.2c3.672,1.729,7.719,3.082,13.32,2.88
		C107.459,128.498,112.294,122.999,111.684,117.46z M92.604,131.86c-1.304,3.13-1.149,9.121-1.08,14.4
		c0.123,9.39-0.633,19.761,0,29.52c0.416,6.412,0.479,14.12,1.08,21.24c0.485,5.741,1.992,11.978,2.88,18
		c2.505,16.995,7.875,35.433,17.64,47.52c7.762,9.608,23.294,14.766,39.96,14.04c-3.888-6.353-5.401-13.806-6.48-22.32
		c-1.697,0.017-2.728-0.632-4.32-0.72c-2.762-2.158-6.068-3.772-9.36-5.4c-10.777-9.244-18.465-24.05-21.96-40.32
		c-5.232-24.36-6.592-50.132-3.6-74.52C101.878,134.493,97.168,132.099,92.604,131.86z M148.764,246.7
		c0.653,7.958,3.055,16.896,5.4,23.76c1.343,3.932,4.563,6.73,5.04,10.8c2.324,3.038,5.452,4.482,7.56,7.2
		c0.786,1.013,0.842,2.517,1.8,3.6c6.956,7.868,21.017,9.013,32.76,6.84c3.457-0.64,5.614-2.565,8.641-3.96
		c5.751-2.65,7.681-3.788,11.16-8.28c4.965-6.409,7.538-12.24,11.52-20.16c3.494-6.949,6.349-14.272,7.2-22.68
		c0.732-7.233,1.187-14.958,1.8-22.32c0.811-9.735,2.85-21.793-8.28-20.88c-6.748,8.634-4.685,21.831-4.319,34.2
		c0.236,8.008-0.951,15.714-2.88,21.96c-2.173,7.034-4.5,12.691-9.36,17.28c-3.071,2.9-7.434,6.311-10.44,7.561
		c-4.796,1.991-11.816,3.588-16.199,2.88c-3.682-0.596-11.964-4.616-14.4-6.841c-3.354-3.061-5.884-8.916-7.92-14.039
		c-2.214-5.569-3.211-11.575-4.32-17.28c-1.161-5.97-2.768-11.635-3.24-17.64c-0.454-5.778-0.204-11.954-0.72-17.28
		c1.408-10.365-0.279-23.133,1.08-33.48c0.966-7.353,2.994-14.829,2.88-21.6c-0.116-6.898-0.224-15.351,0.36-24.12
		c-5.168,2.078-11.096,0.58-15.84-0.36C150.631,166.22,145.807,210.702,148.764,246.7z M209.245,181.18
		c3.811-1.589,7.251-3.549,10.8-5.4c-0.681-2.327,0.031-4.273-0.36-7.2C213.387,169.963,209.923,174.178,209.245,181.18z
		 M224.724,178.66c1.483,2.957,1.586,7.294,3.6,9.72c5.476-2.316,11.134-12.694,6.48-18.36
		C235.131,176.709,231.414,180.026,224.724,178.66z M215.364,193.42c-1.567,6.946-3.136,13.937-3.96,18.36
		c-0.848,4.55-0.1,9.808-0.359,14.76c-0.458,8.714,0.52,18.616-1.44,28.8c1.76,1.859,0.422,5.892,0.36,8.28
		c-0.12,4.622,0.308,8.911-0.36,13.32c1.94-2.975,7.797-5.231,8.641-10.44c0.796-4.917-0.721-11.612-0.721-17.64
		c0-0.85,0.308-1.794,0.36-2.52c0.872-12.01-0.956-23.707-0.72-29.88c-1.18,0.62-2.605,1.681-4.32,0.72
		c-0.543-1.184-0.397-3.077,0.72-3.6c1.772-0.846,3.041,1.952,3.24,0.36c0.479-3.361,0.683-6.997,1.08-10.44
		c-0.624,0.586-4.321,1.351-3.601-2.16c0.515-0.086,0.607-0.593,1.08-0.72c1.976-0.536,1.58,1.3,2.881,1.44
		c0.149-3.249,1.414-6.623,2.159-10.08c1.082-5.014,4.474-10.477,1.08-13.68C218.785,182.051,216.699,187.508,215.364,193.42z
		 M211.045,183.7c-3.661,10.025-5.743,20.768-7.2,32.4c-3.026,24.163-7.892,40.595-7.561,66.24c4.231-1.05,8.515-2.046,11.521-4.32
		c1.43-18.887-0.676-38.567,0.36-56.52c0.448-7.786,3.043-14.609,4.319-22.32c1.073-6.479,2.331-12.706,5.4-18.72
		c0.2,0.001,0.408-0.292,0-0.36C215.454,181.15,212.999,182.174,211.045,183.7z M228.684,190.9c-2.352-0.769-2.9-3.339-4.32-5.04
		c-4.77,11.108-3.73,24.564-4.319,37.8c-0.611,13.713,0.145,27.065,1.08,39.24c6.063-11.08,4.533-21.136,4.68-31.68
		c0.057-4.064,1.179-9.479,1.44-14.4c0.461-8.706,1.112-17.835,9.72-19.08c9.361,2.179,6.38,10.972,7.2,19.08
		c0.207,2.047,1.02,3.863,1.08,5.76c0.264,8.321-1.642,16.198-2.881,22.68c-0.531,2.783-0.502,5.713-1.079,8.28
		c-0.959,4.256-3.337,9.08-5.04,13.32c-3.151,7.845-6.097,12.883-10.44,19.08c-1.067,1.523-3.523,3.051-3.96,4.681
		c-0.381,1.422,0.159,4.613,0,6.84c-0.546,7.615-0.284,15.027-0.72,20.88c10.538,2.05,19.336,1.384,30.239,3.6
		c1.544-22.501,2.582-45.59,2.16-68.76c-0.28-15.408-1.537-26.668-5.04-39.96c-3.021-11.468-4.339-22.889-10.08-32.04
		c-0.02-0.22-0.054-0.426-0.359-0.36C235.618,184.874,233.34,189.075,228.684,190.9z M194.484,245.26
		c-1.9,0.14-2.307,1.773-3.239,2.88c-7.611,2.7-12.463,9.031-21.961,7.92c1.088,7.913,4.048,13.952,7.92,19.08
		c7.934-0.107,11.957-4.123,16.921-7.2c-0.261-10.061,2.669-17.414,1.8-25.92C195.383,243.039,194.469,243.684,194.484,245.26z
		 M180.085,276.94c3.366,2.649,8.162,5.737,13.68,5.04c-0.717-3.616,0.7-7.843-0.36-11.52
		C190.428,274.084,185.645,275.901,180.085,276.94z M211.045,297.82c0.652,7.593,0.569,12.278,0.359,20.521
		c2.523-0.257,4.388-0.467,6.841,0c0.227-9.503,0.792-16.732,0.359-25.561C217.284,295.66,213.324,295.899,211.045,297.82z
		 M196.644,301.421c0.116,6.875-0.486,12.248,0,18.72c4.093-0.609,9.232-0.578,11.88-0.72c0.648-7.197,0.245-14.514-1.439-20.16
		C203.78,300.156,200.182,300.758,196.644,301.421z M209.604,321.581c-0.406,3.261-0.667,7.949,0,11.16
		c5.762,0.371,14.605,1.588,14.76-4.32c-4.017,0.947-9.742,1.382-9.72-3.601c2.638-1.692,6.897,0.314,9.72,0
		c-0.607-0.711-0.393-2.246-0.72-3.239C218.821,320.524,215.015,321.659,209.604,321.581z M227.965,321.22
		c-0.516,2.953-0.624,7.865,0,10.8c7.637-0.134,17.294,0.428,23.04-1.08c0.628-1.809,0.996-4.43,0.359-6.479
		C243.937,322.284,236.714,321.546,227.965,321.22z M196.284,322.661c-0.574,2.065-0.304,4.975-0.359,7.56
		c4.802-0.162,6.055,1.089,10.8,0.72c-0.231-3.428-0.444-4.642,0-9C202.967,321.102,200.023,322.087,196.284,322.661z
		 M195.564,332.38c-0.419,0.061-0.391,0.569-0.36,1.08c-4.563,33.26-5.846,66.091-4.319,100.8c0.145,3.289-0.261,6.699,0,10.08
		c0.476,6.181,2.089,12.388,2.52,18.72c1.497,22.005,1.939,42.052,2.16,60.12c6.331,0.895,9.77-0.021,15.84-0.72
		c0.917-16.087-2.425-32.75-3.239-48.96c-0.409-8.13,0.091-16.237,0-24.12c-0.058-4.97-1.5-9.861-1.44-14.76
		c0.145-11.953,1.209-23.465,2.16-34.92c-0.433-12.484-2.938-31.405,3.96-38.16c-6.059-5.147-5.918-16.985-4.32-27
		C204.836,332.176,200.843,333.695,195.564,332.38z M220.404,336.34c0.946,8.942-0.549,19.225-3.96,25.92
		c1.073,1.694,1.65,3.607,1.801,5.4c0.583,6.988,0.195,15.243,0,23.04c-0.055,2.169-1.003,4.202-1.08,6.479
		c-0.353,10.306,0.775,21.907,0.72,32.761c-0.028,5.56-0.488,9.916-0.72,14.399c-0.715,13.814,2.399,28.237,3.239,41.4
		c0.806,12.597-0.865,24.906,0.721,36.36c8.898,1.692,13.727,0.715,22.68,0.359c1.426-7.682,1.946-18.52,1.44-28.08
		c-0.234-4.419-1.358-8.54-1.44-12.96c-0.099-5.314,0.182-10.648,0.36-16.2c0.322-10.071-0.913-19.836-1.08-29.88
		c-0.144-8.586,0.794-17.294,0.359-25.92c-0.429-8.519-2.7-16.886-2.52-25.2c0.07-3.264,0.676-6.647,0.72-10.08
		c0.045-3.497-0.142-7.451,0.36-10.439c1.833-10.921,9.389-19.592,8.64-30.24C241.734,335.435,228.244,332.716,220.404,336.34z
		 M214.284,360.1c3.477-5.562,5.388-14.071,4.32-23.04c-3.4,0.066-4.333-0.178-6.84-1.08
		C210.185,344.063,208.859,355.446,214.284,360.1z M230.844,531.101c2.723,0.202,2.127-2.913,2.16-5.4
		c-0.523-0.557-1.843-0.317-2.88-0.36C229.895,526.911,229.788,529.809,230.844,531.101z M203.844,530.021
		c0.389-1.051,0.806-2.074,0.72-3.601c-1.101,0.262-1.059-0.621-2.16-0.359C201.745,527.645,202.09,529.318,203.844,530.021z"/>
	<path fill-rule="evenodd" d="M282.684,79.3c1.608-3.14,5.292-4.031,7.2-0.72c1.534-1.686,4.956-1.751,6.48,0
		c1.879-1.205,3.668-1.542,6.119-1.44c2.34,1.761,3.565,4.38,2.881,8.28c-4.009,5.292-31.388,7.986-30.24-5.4
		C275.568,74.839,281.049,75.276,282.684,79.3z M276.564,80.38c-0.003,1.304,2.635,5.529,5.04,6.84
		c5.761,3.138,19.996,0.293,22.32-2.52c0.562-7.046-5.749-7.076-7.56-2.16c-1.438-1.202-1.797-3.483-4.32-3.6
		c-1.308,0.492-0.631,2.969-2.16,3.24c-0.155-5.695-6.451-4.841-6.84,0C281.905,79.852,276.582,73.856,276.564,80.38z"/>
	<path fill-rule="evenodd" d="M52.284,129.7c2.399-1.12,6.771-0.755,7.92,1.44c0.864-0.936,1.958-1.642,3.24-2.16
		c2.093,0.307,3.528,1.272,5.04,2.16c1.603,2.951-0.011,6.278-1.44,8.28c-3.914,2.812-8.373,1.662-14.76,1.8
		c-12.042,0.261-25.292,4.644-31.32-2.88c-6.295-7.856,3.945-17.553,10.8-9.36c1.417-3.767,7.456-4.868,9.36-0.72
		C42.972,122.164,50.574,126.426,52.284,129.7z M46.524,126.82c-2.885-0.653-4.472,0.734-4.68,5.04
		c-2.302-0.698-1.958-4.042-4.32-4.68c-2.953,0.408-4.145,2.576-5.4,4.68c-2.294-4.756-10.587-6.856-11.519-0.36
		c-0.167,1.157,0.465,3.617,1.08,4.68c4.595,7.938,17.523,4.907,25.92,2.88c2.68-0.647,5.038,0.48,7.2,0.72
		c6.837,0.756,15.149-1.099,11.88-8.28c-0.28-0.081-0.711-0.01-0.72-0.36c-3.075-0.554-3.351,1.689-5.04,2.52
		c-2.167-0.261-1.949-2.677-3.96-2.88c-2.47-0.248-2.346,1.998-4.32,2.16C50.144,131.962,49.734,127.547,46.524,126.82z"/>
	<path fill-rule="evenodd" fill="#FFFFFF" d="M107.364,133.3c-2.992,24.388-1.632,50.16,3.6,74.52
		c3.495,16.27,11.183,31.076,21.96,40.32c3.292,1.628,6.598,3.242,9.36,5.4c1.592,0.088,2.623,0.737,4.32,0.72
		c1.079,8.515,2.592,15.967,6.48,22.32c-16.666,0.726-32.198-4.433-39.96-14.04c-9.765-12.087-15.135-30.525-17.64-47.52
		c-0.888-6.022-2.395-12.259-2.88-18c-0.602-7.12-0.664-14.829-1.08-21.24c-0.633-9.759,0.123-20.13,0-29.52
		c-0.069-5.279-0.224-11.27,1.08-14.4C97.168,132.099,101.878,134.493,107.364,133.3z M100.884,138.34
		c-0.256-1.544-1.819-1.781-3.24-2.16C97.289,138.336,99.012,138.412,100.884,138.34z M97.284,152.74
		c-0.015,0.496,0.17,0.791,0.36,1.08c1.383-0.84,2.997,1.047,3.6-0.36C100.058,153.159,98.756,151.62,97.284,152.74z M95.124,171.1
		c2.43-1.05,2.914-4.046,5.4-5.04c0.02-0.62-0.277-0.923-0.72-1.08C98.232,167.008,95.207,167.583,95.124,171.1z M104.484,189.1
		c-0.404-1.756,0.256-4.576-1.08-5.4C102.167,185.31,103.018,188.138,104.484,189.1z M99.444,191.26
		c-1.312-2.213,1.515-2.269,1.8-3.96C98.884,186.054,95.896,190.412,99.444,191.26z M95.124,203.5
		c1.165-2.195,3.603-3.117,6.12-3.96c1.189-0.263,2.827,2.167,2.88,0.72C101.787,196.869,92.636,199.988,95.124,203.5z
		 M101.244,212.14c0.734,0.465,0.655,1.745,2.16,1.44c0.214-1.148-0.675-1.113,0-1.8c1.064-0.256,2.541-0.099,2.88-1.08
		C105.149,209.49,101.767,210.53,101.244,212.14z M108.084,221.14c-0.355-2.24,1.148-3.427,0.36-5.04c-0.36,0-0.72,0-1.08,0
		C107.193,217.825,106.374,220.471,108.084,221.14z M98.004,221.14c-0.515,1.117,0.061,2.328,1.44,2.52
		c-1.348-1.989,1.416-1.264,1.44-2.88C99.549,220.525,99.339,221.395,98.004,221.14z M106.644,226.18
		c-0.435,0.076-0.222,0.399,0,0.72c1.164,1.644,5.3,3.996,7.2,2.52C111.406,228.574,108.461,226.463,106.644,226.18z
		 M103.764,233.02c0.465,1.282,4.482,3.311,5.04,1.08C106.674,234.321,105.544,231.991,103.764,233.02z M117.444,242.74
		c1.542,0.999,3.024,0.67,5.04,0C121.598,241.484,118.615,241.507,117.444,242.74z M109.884,246.7
		c0.032,1.408,0.441,2.439,2.16,2.16c-0.398-1.242-1.508-2.17-1.44-2.88C110.528,246.384,110.205,246.541,109.884,246.7z
		 M130.044,251.02c0.207,0.633-0.435,2.115,0.36,2.16c-0.021-2.496,2.37-1.165,3.6-1.8
		C132.733,250.541,131.76,250.798,130.044,251.02z M117.804,256.06c-0.76-1.4-0.973-3.347-2.521-3.96
		C115.086,254.458,116.102,255.603,117.804,256.06z M127.884,257.86c-0.816-2.543-2.916-3.804-4.68-5.4
		C123.928,255.096,125.486,256.898,127.884,257.86z M137.604,264.7c0.3-1.595-0.397-5.443,0.36-7.56
		c-0.46-0.02-0.499-0.461-1.08-0.36C136.165,258.656,135.188,263.941,137.604,264.7z M142.644,272.98
		c-0.601-2.718,1.493-5.69,0.36-7.2C141.843,267.106,140.505,271.637,142.644,272.98z M128.244,270.1
		c0.681-0.081,0.794,0.406,1.44,0.36c0.049-2.195,2.342-3.784,3.96-3.24C132.001,265.542,128.368,267.882,128.244,270.1z"/>
</g>
</svg>
