<?xml version="1.0" encoding="iso-8859-1"?>
<!-- Generator: Adobe Illustrator 21.0.0, SVG Export Plug-In . SVG Version: 6.00 Build 0)  -->
<svg version="1.2" baseProfile="tiny" id="Layer_1" xmlns="http://www.w3.org/2000/svg" xmlns:xlink="http://www.w3.org/1999/xlink"
	 x="0px" y="0px" viewBox="0 0 94.036 95.463" xml:space="preserve">
<g id="XMLID_1_">
	<path fill="#454240" d="M24.317,60.634c-0.71-2.64-2.06-3.59-4.6-3.27c-0.16,0.02-0.33,0.01-0.5,0c-6.85-0.22-9.93-2.13-10.19-6.31
		c-0.28-4.7,3.71-8.78,9.5-9.7c0.79-0.13,1.59-0.14,2.24-0.19c1.5-5.36,2.92-10.43,4.42-15.81c17.17,7.3,21.38,36.56,8.04,47.68
		C28.777,70.894,25.637,65.574,24.317,60.634z"/>
	<path fill="#454240" d="M53.737,20.794c9.14,12.31,13.23,26.29,9.3,41.35c-1.37,5.25-5.91,10.73-9.26,15.38
		c-0.76,1.06-2.55,1.38-3.87,2.04c-0.5-0.49-1-0.98-1.5-1.47c10.79-8.43,14.97-20.19,11.92-33.19c-2.81-11.94-7.1-22.87-16.1-25.87
		c-2-1-4.26-2.62-4.23-3.14c1.59-0.31,3.52-1.36,4.7-0.81C47.927,16.594,51.747,18.104,53.737,20.794z"/>
	<path fill="#454240" d="M46.227,71.034c-1.57,2.71-4.61,5.35-5.73,6.36l-1.45-0.99c4.92-9.18,14.38-19.59,10.97-31.16
		c-2.8-9.52-4.71-16.85-15.02-21.18c-1.05-0.45-1.61-1.61-1.3-2.71c0.25-0.89,0.13-1.72,0.56-1.61c1.9,0.47,3.79,1.19,5.5,2.14
		c7.99,4.45,17.57,27.11,12.44,37.53C50.067,63.724,48.627,66.874,46.227,71.034z"/>
	<path fill="#454240" d="M66.847,19.984c6.82,8.91,8.72,19.52,10.71,30.2c2.51,13.55-2.57,23.71-13,31.78
		c-1.38,1.07-3.18,1.61-4.79,2.4c-0.32-0.45-0.63-0.9-0.95-1.35c1.27-1.36,2.43-2.85,3.83-4.05c9.1-7.77,13.15-17.3,10.71-29.3
		c-1.16-5.69-1.86-11.47-3.18-17.12c-2.21-9.46-8.04-15.83-17.31-18.97c-0.93-0.32-1.83-0.77-2.71-1.22
		c-0.25-0.13-0.39-0.49-1.61-2.07C56.867,11.244,62.547,14.364,66.847,19.984z"/>
	<path fill="#E8E7E7" d="M19.717,57.364c2.54-0.32,3.89,0.63,4.6,3.27c1.32,4.94,4.46,10.26,8.91,12.4
		c13.34-11.12,9.13-40.38-8.04-47.68c-1.5,5.38-2.92,10.45-4.42,15.81c-0.65,0.05-1.45,0.06-2.24,0.19c-5.79,0.92-9.78,5-9.5,9.7
		c0.26,4.18,3.34,6.09,10.19,6.31C19.387,57.374,19.557,57.384,19.717,57.364z M88.227,36.034c2.3,8.26,3,20,0,29
		c-3.09,9.26-6.77,16.23-16,21c-7.77,4.23-14.75,4.18-24,6c-10.89,2.15-31.04-6.03-35.76-16.06c-4.82-10.22-8.08-21-8.14-32.49
		c-0.1-7.45,2.27-15.29,5.73-21.85c4.93-9.35,12.2-15.65,24.2-16.43c10.55-0.69,21.91-2.61,30.97,2.83
		C75.227,14.034,85.927,27.774,88.227,36.034z M64.557,81.964c10.43-8.07,15.51-18.23,13-31.78c-1.99-10.68-3.89-21.29-10.71-30.2
		c-4.3-5.62-9.98-8.74-18.3-9.7c1.22,1.58,1.36,1.94,1.61,2.07c0.88,0.45,1.78,0.9,2.71,1.22c9.27,3.14,15.1,9.51,17.31,18.97
		c1.32,5.65,2.02,11.43,3.18,17.12c2.44,12-1.61,21.53-10.71,29.3c-1.4,1.2-2.56,2.69-3.83,4.05c0.32,0.45,0.63,0.9,0.95,1.35
		C61.377,83.574,63.177,83.034,64.557,81.964z M63.037,62.144c3.93-15.06-0.16-29.04-9.3-41.35c-1.99-2.69-5.81-4.2-9.04-5.71
		c-1.18-0.55-3.11,0.5-4.7,0.81c-0.03,0.52,2.23,2.14,4.23,3.14c9,3,13.29,13.93,16.1,25.87c3.05,13-1.13,24.76-11.92,33.19
		c0.5,0.49,1,0.98,1.5,1.47c1.32-0.66,3.11-0.98,3.87-2.04C57.127,72.874,61.667,67.394,63.037,62.144z M52.197,59.414
		c5.13-10.42-4.45-33.08-12.44-37.53c-1.71-0.95-3.6-1.67-5.5-2.14c-0.43-0.11-0.31,0.72-0.56,1.61c-0.31,1.1,0.25,2.26,1.3,2.71
		c10.31,4.33,12.22,11.66,15.02,21.18c3.41,11.57-6.05,21.98-10.97,31.16l1.45,0.99c1.12-1.01,4.16-3.65,5.73-6.36
		C48.627,66.874,50.067,63.724,52.197,59.414z"/>
	<path fill="#454240" d="M34.227,95.034c-18.37-4.84-27.27-18.96-33-36c-2.49-7.4-0.43-27.44-0.36-27.72
		c4.81-18.22,16.97-27.87,35.28-30.49c2.4-0.34,16.08-1.79,21.61,0.22c12.46,4.53,21.68,8.97,28.47,21.99c7.52,14.42,9,25,7,39
		c-0.51,3.54-5,11.77-7,15c-6.3,10.18-15.38,14.77-26,17C55.057,95.114,40.227,96.034,34.227,95.034z M12.467,75.974
		c4.72,10.03,24.87,18.21,35.76,16.06c9.25-1.82,16.23-1.77,24-6c9.23-4.77,12.91-11.74,16-21c3-9,2.3-20.74,0-29
		c-2.3-8.26-13-22-23-28c-9.06-5.44-20.42-3.52-30.97-2.83c-12,0.78-19.27,7.08-24.2,16.43c-3.46,6.56-5.83,14.4-5.73,21.85
		C4.387,54.974,7.647,65.754,12.467,75.974z"/>
</g>
</svg>
