<?xml version="1.0" encoding="iso-8859-1"?>
<!-- Generator: Adobe Illustrator 21.0.0, SVG Export Plug-In . SVG Version: 6.00 Build 0)  -->
<svg version="1.2" baseProfile="tiny" id="Layer_1" xmlns="http://www.w3.org/2000/svg" xmlns:xlink="http://www.w3.org/1999/xlink"
	 x="0px" y="0px" viewBox="0 0 320.466 564.594" xml:space="preserve">
<g>
	<path fill-rule="evenodd" d="M155.177,3.58c1.123-0.797,1.88-1.96,2.88-2.88c3.642-0.041,5.32,1.88,7.2,3.6
		c1.624-3.646,8.27-6.53,9.72-0.72c1.664-3.244,6.406-2.787,8.641-0.36c1.322-3.943,11.609-3.757,10.8,1.44
		c-1.744,11.185-31.196,11.204-41.76,7.2c-1.031,0.506-1.965-1.117-1.8,0.36c-3.294-1.592-6.487-5.395-5.04-9.36
		C147.306-1.222,153.962-0.892,155.177,3.58z M147.257,2.5c0.291,0.974-0.158,2.268,0.36,3.6c0.827,2.128,5.929,5.93,10.08,6.48
		c13.904,1.841,33.725,1.679,35.28-9.72c-1.352-1.288-4.184-1.096-6.84-1.08c-1.08,1.08-1.82,2.499-2.52,3.96
		c-1.355-5.169-7.148-3.456-9,0c-0.845-2.225-1.438-4.415-3.24-4.68c-3.042-0.448-4.225,3.865-6.12,5.4
		c-1.158-2.117-3.933-5.051-6.48-4.68c-2.385,0.348-1.692,2.661-3.96,3.6C154.99,1.531,149.362-1.268,147.257,2.5z"/>
	<path fill-rule="evenodd" fill="#FFFFFF" d="M154.817,5.38c2.268-0.939,1.575-3.252,3.96-3.6c2.547-0.371,5.322,2.563,6.48,4.68
		c1.896-1.535,3.078-5.848,6.12-5.4c1.802,0.265,2.396,2.455,3.24,4.68c1.852-3.456,7.645-5.169,9,0
		c0.699-1.461,1.44-2.88,2.52-3.96c2.656-0.016,5.488-0.209,6.84,1.08c-1.555,11.399-21.376,11.562-35.28,9.72
		c-4.151-0.55-9.253-4.352-10.08-6.48c-0.518-1.333-0.069-2.626-0.36-3.6C149.362-1.268,154.99,1.531,154.817,5.38z"/>
	<path fill-rule="evenodd" d="M12.976,15.821c0.913-5.344,9.34-6.756,11.52-1.44c2.33-5.138,10.962-4.721,12.24,1.08
		c2.377-3.596,8.906-7.929,14.04-4.32c2.739,15.15-16.372,20.47-30.96,18.72c-8.583-1.03-15.192-5.643-19.8-9.36
		c-0.117-5.219,0.263-11.708,5.4-11.52C8.853,9.106,11.345,12.782,12.976,15.821z M1.816,11.5
		c-4.661,11.864,11.562,17.158,23.4,16.2c11.388-0.922,23.107-2.557,24.84-10.44c0.815-3.708-0.967-4.722-2.16-6.48
		c-6.963-0.843-8.458,3.782-11.88,6.48c-0.079-3.409-2.483-5.565-5.04-5.76c-3.523-0.268-4.771,2.695-6.84,4.32
		c-1.407-6.491-10.498-4.453-10.8,1.44C11.362,13.537,6.377,7.153,1.816,11.5z"/>
	<path fill-rule="evenodd" fill="#FFFFFF" d="M13.336,17.261c0.303-5.893,9.393-7.931,10.8-1.44c2.069-1.625,3.317-4.588,6.84-4.32
		c2.557,0.195,4.961,2.351,5.04,5.76c3.422-2.698,4.917-7.323,11.88-6.48c1.193,1.758,2.976,2.772,2.16,6.48
		c-1.733,7.883-13.452,9.518-24.84,10.44c-11.838,0.958-28.06-4.336-23.4-16.2C6.377,7.153,11.362,13.537,13.336,17.261z"/>
	<path fill-rule="evenodd" fill="#FFFFFF" d="M107.657,23.02c0.979,0.887-1.761,1.098-2.88,1.08
		C104.949,22.952,107.17,23.854,107.657,23.02z"/>
	<path fill-rule="evenodd" fill="#FFFFFF" d="M110.177,25.54c-1.805,1.098-6.595,1.85-10.8,2.52
		C101.958,26.202,105.717,25.521,110.177,25.54z"/>
	<path fill-rule="evenodd" fill="#FFFFFF" d="M123.137,26.62c2.291-0.605,5.356,1.119,6.12,3.24
		C127.132,28.865,125.587,27.29,123.137,26.62z"/>
	<path fill-rule="evenodd" fill="#FFFFFF" d="M116.657,27.701c-0.716,1.324-3.932,0.148-5.04,1.08
		C111.096,27.646,114.952,27.806,116.657,27.701z"/>
	<path fill-rule="evenodd" fill="#FFFFFF" d="M120.257,28.781c-2.914,2.192-8.582,2.079-12.24,2.52
		C110.904,29.268,116.208,29.652,120.257,28.781z"/>
	<path fill-rule="evenodd" fill="#FFFFFF" d="M127.817,33.46c-2.317-0.557-6.387-0.916-10.08-1.8
		C121.188,30.398,126.388,29.62,127.817,33.46z"/>
	<path fill-rule="evenodd" fill="#FFFFFF" d="M133.577,32.38c-0.906-0.146-1.654-1.231-1.08-1.8
		C133.208,30.829,133.456,31.541,133.577,32.38z"/>
	<path fill-rule="evenodd" fill="#FFFFFF" d="M128.896,34.54c-7.668,1.143-15.07-0.262-25.56,1.8
		C110.827,31.296,118.889,32.929,128.896,34.54z"/>
	<path fill-rule="evenodd" fill="#FFFFFF" d="M129.257,36.701c-1.198,2.474-7.717,0.409-7.92-0.36
		C123.118,35.969,126.279,37.092,129.257,36.701z"/>
	<path fill-rule="evenodd" fill="#FFFFFF" d="M122.057,38.14c-7.858,1.503-16.683,3.957-23.04,5.76
		C105.165,40.309,113.814,36.434,122.057,38.14z"/>
	<path fill-rule="evenodd" fill="#FFFFFF" d="M118.816,41.38c-2.544,1.56-4.254,1.616-7.2,1.44
		C113.141,41.465,115.962,41.407,118.816,41.38z"/>
	<path fill-rule="evenodd" fill="#FFFFFF" d="M130.337,42.46c-0.708,0.853-2.388,0.732-3.96,0.72
		C127.393,42.637,128.861,42.545,130.337,42.46z"/>
	<path fill-rule="evenodd" fill="#FFFFFF" d="M238.337,48.221c1.254-1.506,1.726-3.794,3.6-4.68c5.429-0.418,8.26,1.19,9.721,5.4
		c2.149-4.429,10.029-9.816,12.24-1.8c3.018-3.486,9.794-3.696,11.159,1.44c3.091-1.363,5.07-5.304,10.08-3.6
		c0.358,1.442,1.714,1.886,1.44,3.96c2.709-0.635,3.188-4.224,6.12-4.68c3.479-0.542,5.324,2.003,7.2,4.68
		c-1.219,5.48-11.509,7.513-18.36,8.28c-10.583,1.184-22.905-0.014-35.28,1.08c-8.375,0.74-19.257-1.768-19.8-7.2
		c-0.17-1.698,1.498-4.994,2.16-5.76C231.709,41.763,236.057,45.108,238.337,48.221z"/>
	<path fill-rule="evenodd" fill="#FFFFFF" d="M100.097,44.98c-0.384,0.816-1.092,1.308-2.16,1.44
		C97.813,45.097,99.248,45.332,100.097,44.98z"/>
	<path fill-rule="evenodd" fill="#FFFFFF" d="M91.816,57.58c1.005,1.5-0.589,3.48-0.72,5.04
		C90.188,61.217,92.077,59.532,91.816,57.58z"/>
	<path fill-rule="evenodd" fill="#FFFFFF" d="M89.657,59.02c-0.094,3.149-0.937,8.661-2.88,11.16
		C85.856,65.985,89.374,63.204,89.657,59.02z"/>
	<path fill-rule="evenodd" fill="#FFFFFF" d="M109.816,61.54c3.26-0.636,6.477,8.433,2.88,10.44
		C106.629,75.367,103.212,62.83,109.816,61.54z M107.297,65.5c0.822,2.523,5.048,4.924,5.76,0.72
		c-1.776,0.336-2.496-0.384-2.16-2.16c-1.393,0.155-1.28,0.395-2.16-0.36C109.006,65.05,108.331,65.455,107.297,65.5z"/>
	<path fill-rule="evenodd" fill="#FFFFFF" d="M106.217,61.54c-1.762,2.369-1.934,7.423,0,9.72c-4.58-0.22-5.678-3.922-10.08-4.32
		C98.335,63.979,101.904,62.388,106.217,61.54z"/>
	<path fill-rule="evenodd" d="M108.737,63.701c0.879,0.754,0.767,0.515,2.16,0.36c-0.336,1.776,0.384,2.497,2.16,2.16
		c-0.712,4.204-4.938,1.803-5.76-0.72C108.331,65.455,109.006,65.05,108.737,63.701z"/>
	<path fill-rule="evenodd" fill="#FFFFFF" d="M88.936,68.381c0.945,3.349-1.251,6.666-1.08,10.44
		C86.918,75.478,89.018,72.065,88.936,68.381z"/>
	<path fill-rule="evenodd" fill="#FFFFFF" d="M82.456,69.821c-0.008,6.741,0.137,13.363-1.8,18.36
		C79.882,81.405,80.623,75.218,82.456,69.821z"/>
	<path fill-rule="evenodd" fill="#FFFFFF" d="M5.416,74.14c1.255,0.24,1.744,3.852,0,3.96C3.761,77.752,5.105,74.852,5.416,74.14z"
		/>
	<path fill-rule="evenodd" fill="#FFFFFF" d="M86.416,75.221c-0.515,6.926-0.787,14.042-1.44,21.6
		C83.478,91.52,85.117,81.193,86.416,75.221z"/>
	<path fill-rule="evenodd" fill="#FFFFFF" d="M77.416,76.301c0.858,3.896-2.254,7.776-0.72,12.96
		C74.87,85.661,76.645,79.678,77.416,76.301z"/>
	<path fill-rule="evenodd" fill="#FFFFFF" d="M221.057,103.66c1.718-2.802,0.157-7.149,0.36-10.08
		c2.155,2.765,0.511,9.329,3.96,10.8c-0.228-5.189-1.839-11.074-3.24-16.92c4.539,1.82,2.639,10.081,6.48,12.6
		c3.473-4.04,0.808-11.581-0.36-16.2c3.633,1.882,4.37,12.782,4.32,18c-0.06,6.215-4.301,12.387-7.92,16.2
		c-3.022,3.184-7.655,5.844-7.2,12.6c-2.219-0.148-8.152-0.95-10.44-1.08c-1.192-9.367-9.656-11.463-11.88-19.8
		c-0.024-1.345,2.264-0.377,2.52-1.44c0.015-1.185,0.608-1.792,0.359-3.24c4.395,11.39,21.889,4.135,19.44-7.2
		c-1.596-7.389-7.866-15.131-15.84-10.08c-0.385-0.336-0.112-1.328-1.08-1.08c4.97-6.647,14.143-5.979,16.92,1.44
		c1.056,2.82,1.663,7.24,2.16,10.44C219.879,100.307,218.859,102.839,221.057,103.66z M219.257,109.781
		c0.418,0.302,0.965,0.475,1.8,0.36c0.476-0.693-0.264-1.448,0.36-2.52c-0.496,0.016-0.791-0.169-1.08-0.36
		C219.645,107.769,219.685,109.009,219.257,109.781z M225.016,107.62c0.046,1.035,0.451,1.71,1.801,1.44
		C227.056,107.698,225.979,106.701,225.016,107.62z M207.737,115.18c0,0.72,0,1.44,0,2.16c3.285-1.514,7.979-1.622,8.64-5.76
		C213.005,110.969,211.682,115.199,207.737,115.18z"/>
	<path fill-rule="evenodd" fill="#FFFFFF" d="M78.856,84.941c1.207,11.155-1.579,19.969-2.16,30.96
		C74.819,105.805,78.009,94.696,78.856,84.941z"/>
	<path fill-rule="evenodd" fill="#FFFFFF" d="M44.657,86.021c1.279,0.041,1.448,1.191,1.44,2.52c-0.6,0-1.2,0-1.8,0
		C44.168,87.302,43.744,86.709,44.657,86.021z"/>
	<path fill-rule="evenodd" fill="#FFFFFF" d="M199.097,86.741c0.449,1.529-1.197,0.963-1.44,1.8
		C196.546,87.751,198.163,86.675,199.097,86.741z"/>
	<path fill-rule="evenodd" fill="#FFFFFF" d="M192.617,95.381c3.881-7.009,15.787-0.273,7.56,5.04
		c-12.025-1.497-28.113,2.614-37.08-2.88c-0.081-3.681,1.204-5.996,4.68-6.12c1.184,0.846,1.865,2.053,1.801,3.24
		c2.659-0.682,1.85-3.806,4.68-4.32c3.294-0.599,5.547,1.767,6.12,5.4c1.759-2.555,4.046-7.928,9.36-6.48
		C191.698,89.795,192.777,92.847,192.617,95.381z"/>
	<path fill-rule="evenodd" fill="#FFFFFF" d="M74.177,89.62c1.808,4.062,1.017,10.559,0.36,15.12
		C73.474,100.498,73.812,95.064,74.177,89.62z"/>
	<path fill-rule="evenodd" fill="#FFFFFF" d="M199.816,89.62c-0.667,0.669-2.497,2.042-3.6,1.08
		C196.818,89.454,198.251,90.372,199.816,89.62z"/>
	<path fill-rule="evenodd" fill="#FFFFFF" d="M55.097,95.381c1.691-4.675,8.675-4.202,7.92,0.72c-0.541,3.524-8.759,5.31-11.52,2.88
		c-5.34,2.016-14.162,2.506-13.32-5.4c3.512-2.649,7.363,0.444,8.64,3.24C47.869,92.852,54.071,88.623,55.097,95.381z"/>
	<path fill-rule="evenodd" fill="#FFFFFF" d="M81.016,92.861c1.278-1.137,0.521,2.823,0.72,3.96
		C79.951,95.782,82.178,94.125,81.016,92.861z"/>
	<path fill-rule="evenodd" fill="#FFFFFF" d="M70.217,95.021c0.866,10.542-3.416,20.31-1.8,31.68
		C65.972,116.133,68.448,105.729,70.217,95.021z"/>
	<path fill-rule="evenodd" d="M27.016,102.941c0.034,1.594-0.647,2.473-2.52,2.16C24.749,103.867,25.504,101.781,27.016,102.941z"/>
	<path fill-rule="evenodd" fill="#FFFFFF" d="M51.137,102.941c1.45,0.331,0.271,3.726-0.72,3.96
		C50.543,105.468,49.968,103.331,51.137,102.941z"/>
	<path fill-rule="evenodd" fill="#FFFFFF" d="M194.776,104.381c1.684,0.279,1.908,1.68,1.44,3.24
		C193.821,108.3,194.313,105.536,194.776,104.381z"/>
	<path fill-rule="evenodd" fill="#FFFFFF" d="M72.376,105.1c1.446,11.105,0.17,20.173,1.08,30.24
		C69.786,126.743,72.502,115.658,72.376,105.1z"/>
	<path fill-rule="evenodd" fill="#FFFFFF" d="M79.577,105.461c0.333,4.296-0.451,10.587-1.44,14.76
		C77.782,115.722,78.794,109.013,79.577,105.461z"/>
	<path fill-rule="evenodd" d="M220.337,107.261c0.289,0.19,0.584,0.376,1.08,0.36c-0.624,1.072,0.116,1.827-0.36,2.52
		c-0.835,0.115-1.382-0.058-1.8-0.36C219.685,109.009,219.645,107.769,220.337,107.261z"/>
	<path fill-rule="evenodd" d="M226.817,109.061c-1.35,0.27-1.755-0.406-1.801-1.44C225.979,106.701,227.056,107.698,226.817,109.061
		z"/>
	<path fill-rule="evenodd" d="M216.377,111.58c-0.661,4.139-5.354,4.246-8.64,5.76c0-0.72,0-1.44,0-2.16
		C211.682,115.199,213.005,110.969,216.377,111.58z"/>
	<path fill-rule="evenodd" d="M33.137,111.941c2.501,0.019,2.511,2.528,4.68,2.88c1.293,0.237,2.789-1.16,3.24,0.36
		C38.631,118.263,33.509,115.254,33.137,111.941z"/>
	<path fill-rule="evenodd" d="M103.337,116.261c0.473,0.128,0.566,0.634,1.08,0.72c-4.193,10.01-6.805,22.572,0,31.68
		c-6.213-2.9-8.704-9.037-7.56-18.36C97.652,123.818,102.217,121.229,103.337,116.261z"/>
	<path fill-rule="evenodd" d="M301.337,121.301c1.384-3.218,8.541-4.089,10.08-0.36c2.165-3.515,8.407-3.41,9,1.8
		c0.772,6.78-7.748,7.341-15.48,8.28c-10.961,1.331-27.119,4.607-28.801-7.56c0.936-3.385,3.834-4.807,7.92-5.04
		c1.85,0.911,3.149,2.371,4.681,3.6C291.782,116.021,297.564,114.493,301.337,121.301z M295.217,117.341
		c-3.491,0.005-3.605,4.386-6.12,6.48c-2.065-1.058-2.247-3.293-4.68-3.6c-1.625-0.205-6.937,1.487-6.12,5.76
		c0.728,3.806,9.766,5.712,15.12,5.76c2.417,0.022,5.891-0.758,9-1.08c6.674-0.691,16.296-1.293,16.92-6.48
		c0.317-2.639-1.908-4.955-3.24-5.04c-3.005-0.192-2.685,3.16-5.04,4.32c-0.437-3.112-2.523-4.245-5.04-3.96
		c-2.445,0.277-3.083,3.072-5.039,3.24C299.016,120.624,298.057,117.336,295.217,117.341z"/>
	<path fill-rule="evenodd" fill="#FFFFFF" d="M300.977,122.741c1.956-0.167,2.594-2.963,5.039-3.24
		c2.518-0.285,4.604,0.848,5.04,3.96c2.355-1.161,2.035-4.512,5.04-4.32c1.332,0.085,3.558,2.401,3.24,5.04
		c-0.624,5.187-10.246,5.789-16.92,6.48c-3.109,0.322-6.583,1.102-9,1.08c-5.355-0.047-14.393-1.954-15.12-5.76
		c-0.816-4.273,4.495-5.965,6.12-5.76c2.433,0.307,2.614,2.543,4.68,3.6c2.516-2.094,2.629-6.475,6.12-6.48
		C298.057,117.336,299.016,120.624,300.977,122.741z"/>
	<path fill-rule="evenodd" fill="#FFFFFF" d="M74.896,124.54c0.627,8.946,3.601,17.569,6.12,27
		C76.987,144.531,74.608,135.868,74.896,124.54z"/>
	<path fill-rule="evenodd" fill="#FFFFFF" d="M83.177,126.341c1.192,4.208,0.534,10.266,1.8,14.4
		C83.222,137.096,83.463,131.454,83.177,126.341z"/>
	<path fill-rule="evenodd" fill="#FFFFFF" d="M68.416,128.14c1.391,0.409,0.973,2.627,1.08,4.32
		C68.772,131.385,68.744,129.613,68.416,128.14z"/>
	<path fill-rule="evenodd" fill="#FFFFFF" d="M123.856,129.58c-0.146,1.053-1.231,1.169-1.8,1.8c-2.313-0.922-5.999-1.59-9-0.72
		C114.499,127.768,121.051,128.077,123.856,129.58z"/>
	<path fill-rule="evenodd" fill="#FFFFFF" d="M216.737,141.821c-1.823-1.249-0.057-5.561-3.24-6.12
		c-3.578,0.022-0.597,6.604-3.601,7.2c-1.609-2.462,0.391-7.126-3.96-7.92c-2.251,0.628-1.215,4.545-2.519,6.12
		c-6.934-7.661,7.212-11.587,14.76-8.28C218.981,135.671,219.946,141.083,216.737,141.821z"/>
	<path fill-rule="evenodd" fill="#FFFFFF" d="M113.057,132.101c3.743-0.033,6.11,1.901,11.16,1.44
		C122.753,138.443,112.901,135.118,113.057,132.101z"/>
	<path fill-rule="evenodd" fill="#FFFFFF" d="M30.976,134.62c1.416,2.385,2.571,6.937,1.08,10.08
		c-4.879,0.438-4.253-4.627-6.48-6.84c-3.58-0.1-1.065,5.895-3.24,7.2c-5.209-1.234-0.229-8.658-5.04-10.44
		c-3.448,1.097-2.058,5.48-3.24,8.28c-5.098,0.22-5.519-8.306-2.52-10.08C16.591,133.639,24.682,132.759,30.976,134.62z"/>
	<path fill-rule="evenodd" fill="#FFFFFF" d="M71.657,135.701c3.245,6.955,5.909,14.491,7.56,23.04
		C74.535,153.222,73.149,144.408,71.657,135.701z"/>
	<path fill-rule="evenodd" fill="#FFFFFF" d="M206.657,141.101c1.049,4.447,5.945,4.96,7.199,0.36
		c0.596,2.126,2.24,4.021,3.961,3.96c0.071,18.451,5.011,36.528,5.399,52.92c0.354,14.934-1.143,30.686-1.8,44.28
		c-0.601,12.435-2.143,25.486-3.24,38.16c-1.295,14.965-4.077,30.472-9,42.48c-4.954,12.084-14.872,24.191-25.92,28.08
		c-19.719,6.941-38.198-4.59-41.4-22.68c-1.936-10.936,0.242-22.752-0.36-32.4c-0.222-3.556-1.604-7.023-1.8-10.8
		c-0.708-13.622-0.294-28.13-2.88-40.68c-1.278-6.204-4.056-11.917-4.32-18.001c7.36,14.625,7.386,32.926,10.44,51.12
		c1.433,8.534,2.365,17.036,2.52,25.2c0.236,12.391,1.759,25.178,8.28,33.84c5.9,3.893,16.41,5.95,23.76,2.521
		c3.061-1.429,5.992-4.42,9-6.84c5.384-4.332,9.232-8.684,12.24-15.841c2.04-4.856,1.747-13.098,2.88-20.159
		c1.097-6.842,3.546-13.412,3.96-19.081c0.6-8.221-0.453-17.463-0.36-27c0.138-14.145,1.025-28.14,0-44.64
		c-0.267-4.289-0.261-8.307-0.36-12.6c-0.072-3.132-1.275-6.29-1.439-9.36c-0.158-2.96,0.536-6.02,0.72-9
		c0.192-3.114-0.451-6.192-0.36-9c0.248-7.6,0.396-14.515,0-20.88C204.034,143.038,206.83,143.554,206.657,141.101z"/>
	<path fill-rule="evenodd" fill="#FFFFFF" d="M80.297,335.861c-6.422,3.552-13.866,7.73-23.041,8.28
		c-2.579,0.155-4.817-0.636-7.2-0.72c-3.501-0.124-6.973,0.746-10.44,0c-12.242-6.179-19.133-15.952-24.48-29.88
		c-2.158-5.622-3.076-11.197-4.32-17.641c-1.247-6.46-0.905-13.677-1.08-21.24c-0.309-13.384-1.828-28.734-1.44-43.2
		c0.214-7.973,2.84-15.876,3.96-23.76c2.196-15.461,1.845-30.937,2.88-45.36c0.246-3.43,0.164-7.011,0-10.44
		c-0.152-3.178-1.285-7.243,1.8-9.72c0.865,2.466,1.108,4.695,3.6,5.04c2.975,0.413,3.233-1.88,5.4-3.24
		c2.957,2.147,1.8,6.662,1.8,10.44c0,27.122-0.312,49.243,0.36,75.24c0.05,1.957,0.73,3.801,0.72,5.76
		c-0.013,2.27-0.896,4.564-1.08,6.84c-0.863,10.672,0.53,22.815,0,34.2c-0.377,8.101-1.595,16.218,0,23.4
		c0.262,0.982-0.715,0.725-0.72,1.44c3.162,15.285,9.132,30.071,27.36,29.88c8.284-0.087,16.354-4.784,18.72-11.16
		c0.633-1.707,0.86-5.015,1.44-7.92c2.406-12.052,2.467-25.871,2.16-41.04c-0.073-3.589,0.567-6.905,0.36-9.72
		c-0.366-4.963-1.907-8.248-1.44-14.76c0.656-9.164,4.229-24.423,8.64-26.28c9.218-3.881,12.4,6.311,13.32,14.4
		c1.141,10.04,0.517,23.513,0,35.28c-0.328,7.458-2.106,14.678-2.52,19.8c-0.205,2.526,0.48,4.832,0.36,6.481
		C94.345,310.892,88.797,327.033,80.297,335.861z"/>
	<path fill-rule="evenodd" d="M156.257,152.62c2.044-3.292,8.472-6.085,10.8-1.44c5.315-6.073,15.23,0.781,7.2,6.48
		c-2.006,1.423-11.115,4.486-15.48,5.04c-6.108,0.775-9.23-1.862-14.04-1.44c-2.312-1.407-5.872-1.568-7.92-3.24
		c-4.077-6.398,5.545-13.651,8.64-6.12C147.996,147.161,154.486,147.267,156.257,152.62z M146.177,154.421
		c-3.146-0.943-3.468-5.779-7.92-4.32c-0.972,1.864-1.153,3.807-0.36,5.76c4.14,4.097,11.77,5.379,20.521,5.4
		c5.053,0.012,16.299-3.884,17.64-6.48c1.73-3.35-1.912-5.844-4.68-5.4c-2.198,0.352-2.607,3.321-4.32,3.6
		c-2.053-6.362-9.337-2.313-11.16,1.44C154.75,148.088,147.481,148.696,146.177,154.421z"/>
	<path fill-rule="evenodd" fill="#FFFFFF" d="M155.896,154.421c1.823-3.753,9.107-7.802,11.16-1.44
		c1.713-0.279,2.122-3.248,4.32-3.6c2.768-0.444,6.41,2.049,4.68,5.4c-1.341,2.596-12.587,6.492-17.64,6.48
		c-8.751-0.02-16.381-1.303-20.521-5.4c-0.792-1.953-0.612-3.896,0.36-5.76c4.452-1.46,4.773,3.377,7.92,4.32
		C147.481,148.696,154.75,148.088,155.896,154.421z"/>
	<path fill-rule="evenodd" fill="#FFFFFF" d="M79.217,152.62c3.356,5.644,4.831,13.169,10.08,16.92
		C83.588,167.019,80.335,160.322,79.217,152.62z"/>
	<path fill-rule="evenodd" fill="#FFFFFF" d="M84.617,157.66c2.795,5.005,6.941,8.659,8.64,14.76
		C89.885,167.992,86.533,163.544,84.617,157.66z"/>
	<path fill-rule="evenodd" fill="#FFFFFF" d="M92.896,160.18c5.427,5.374,11.56,10.04,16.92,15.48
		c-3.788-1.491-6.613-3.946-10.44-5.4C96.999,167.118,95.387,163.211,92.896,160.18z"/>
	<path fill-rule="evenodd" fill="#FFFFFF" d="M104.057,165.581c2.522-0.269,5.4,0.523,9.36,0.36c0.009,2.271-0.142,4.703,0.36,6.48
		C110.041,170.637,106.802,168.355,104.057,165.581z"/>
	<path fill-rule="evenodd" fill="#FFFFFF" d="M85.697,169.181c3.072,2.327,6.916,3.884,9,7.2
		C91.009,174.668,87.606,172.672,85.697,169.181z"/>
	<path fill-rule="evenodd" fill="#FFFFFF" d="M97.936,179.261c2.681,0.341,7.221,0.954,9.72,3.24
		C104.082,181.755,100.501,181.016,97.936,179.261z"/>
	<path fill-rule="evenodd" fill="#FFFFFF" d="M101.536,183.221c3.436,0.284,6.011,1.429,9.72,1.44
		c0.891,3.769-0.128,8.297,1.44,12.6c-0.994-0.983-0.338,0.527-1.08,0.72c1.18,3.513-0.141,7.5-2.52,8.64
		c-1.988-0.292-4.196-0.364-5.76-1.08C101.784,198.263,102.147,189.703,101.536,183.221z"/>
	<path fill-rule="evenodd" d="M272.537,188.621c1.749-3.858,7.805-2.861,7.2,2.88c-0.748,7.092-18.909,10.271-27,6.84
		c-1.495-0.634-2.479-2.456-4.32-3.24c-2.878-6.465,4.98-13.167,7.92-6.12c1.669-3.768,6.58-3.802,8.28,0
		C265.844,185.326,271.328,184.131,272.537,188.621z M264.617,191.501c-0.778-2.425-2.684-4.914-4.681-4.68
		c-2.706,0.317-1.481,3.541-3.96,4.68c0.333-1.652-0.9-1.739-0.72-3.24c-3.563-1.912-6.507,0.853-6.12,5.04
		c4.564,5.667,18.156,7.866,25.561,2.88c2.438-1.643,2.943-4.445,3.96-6.84c-0.313-1.607-2.074-1.766-3.96-1.8
		c-0.913,0.646-0.874,2.246-1.44,3.24c-1.93-0.59-1.755-3.285-3.24-4.32C265.852,185.775,266.158,189.562,264.617,191.501z"/>
	<path fill-rule="evenodd" fill="#FFFFFF" d="M270.016,186.461c1.485,1.035,1.311,3.73,3.24,4.32c0.566-0.994,0.527-2.593,1.44-3.24
		c1.886,0.034,3.646,0.193,3.96,1.8c-1.017,2.396-1.521,5.198-3.96,6.84c-7.404,4.985-20.996,2.787-25.561-2.88
		c-0.387-4.187,2.557-6.952,6.12-5.04c-0.181,1.501,1.053,1.588,0.72,3.24c2.479-1.139,1.254-4.363,3.96-4.68
		c1.997-0.234,3.902,2.255,4.681,4.68C266.158,189.562,265.852,185.775,270.016,186.461z"/>
	<path fill-rule="evenodd" fill="#FFFFFF" d="M97.217,196.541c2.246,1.527,1.231,4.376,1.8,6.48c1.156,4.272,4.643,5.926,7.92,7.92
		c-0.449,1.591-1.031,3.049-2.16,3.96C97.867,213.085,89.555,200.994,97.217,196.541z"/>
	<path fill-rule="evenodd" fill="#FFFFFF" d="M113.057,214.181c-0.845-0.115-1.351-0.569-2.52-0.36
		c-1.145-1.164-1.117-2.76-0.72-4.68c7.414,0.748,4.239-7.069,5.76-10.8C124.005,198.009,117.052,212.409,113.057,214.181z"/>
	<path fill-rule="evenodd" fill="#FFFFFF" d="M102.976,244.781c-1.974,3.932-2.034,15.012,7.92,12.96
		c-0.283,3.734,0.434,9.341,0.72,13.68c-4.181-0.581-5.188,2.013-7.2,3.6c-0.333,3.453,0.674,5.566,1.44,7.92
		c1.234,0.289,2.675,0.417,5.04,0.36c1.486,3.314,0.832,8.769,1.44,12.96c-10.364-1.329-11.156,5.696-8.28,12.6
		c2.621,0.391,4.162,0.397,7.2,0c2.89,6.069,0.662,16.68,1.44,24.841c-7.904,1.805-18.672,0.604-27,1.079
		c8.136-11.744,11.42-29.608,12.96-50.76c1.031-14.166,1.246-29.837,0.72-43.2c-0.262-6.652,0.004-15.025-3.24-19.08
		c-3.719-4.648-12.172-5.841-15.84-1.08c-5.669,7.357-6.713,18.763-7.561,28.8c-0.41,4.861-0.689,9.95-0.36,14.04
		c0.476,5.904,1.8,10.48,1.8,16.2c0,11.134-1.309,21.493-3.24,31.32c-2.889-20.704-3.338-43.721-1.08-64.44
		c1.034-9.489,3.238-18.852,6.84-25.92c3.682-7.226,9.572-12.227,14.76-17.64c3.118,5.149,9.816,19.186,17.28,11.16
		c1.122,10.087,1.767,18.424,1.8,29.52C108.037,243.902,104.76,245.04,102.976,244.781z M89.297,215.261
		c7.793,1.086,9.085,8.674,12.6,14.04c-0.36-7.569-4.719-14.234-12.6-15.48C89.329,214.803,88.697,214.545,89.297,215.261z"/>
	<path fill-rule="evenodd" fill="#FFFFFF" d="M121.697,204.101c0.306-0.066,0.339,0.14,0.36,0.36
		c8.815,14.962,10.42,33.431,11.88,51.84c0.716,9.026,3.417,18.536,2.52,27.359c1.743,18.237,2.759,32.774,1.08,49.681
		c-7.415-1.185-14.984,2.409-22.68,0.36c1.079-10.085-0.209-15.757-0.72-25.2c3.602-1.526,4.92,1.964,7.92,2.16
		c6.808,0.443,10.433-7.304,6.84-13.681c-4.443-2.842-8.349,0.255-14.4-0.72c-0.907-3.894-0.515-9.085-1.08-13.32
		c1.555-0.365,3.292-0.548,4.68-1.08c7.632,4.952,15.003-3.834,12.96-10.44c-1.524-4.928-10.454-3.829-12.6,0.36
		c-1.857-0.303-3.85-0.47-6.12-0.36c0.632-6.267-0.553-9.507,0-14.04c5.458-3.078,6.412,2.017,12.96,1.44
		c4.627-4.442,6.686-20.15-4.32-17.64c-3.018,0.688-3.66,4.854-9.36,2.88c0.465-8.414-0.774-21.431-2.52-28.8
		C116.29,217.87,120.584,210.865,121.697,204.101z"/>
	<path fill-rule="evenodd" d="M89.297,213.821c7.881,1.246,12.24,7.911,12.6,15.48c-3.514-5.366-4.807-12.954-12.6-14.04
		C88.697,214.545,89.329,214.803,89.297,213.821z"/>
	<path fill-rule="evenodd" fill="#FFFFFF" d="M123.496,243.701c5.467-0.821,2.97,12.777-1.8,12.6
		C115.843,256.084,119.629,244.282,123.496,243.701z M123.856,248.021c-1.164-4.095-6.69,2.254-2.16,3.96
		C122.789,251.026,124.334,249.7,123.856,248.021z"/>
	<path fill-rule="evenodd" fill="#FFFFFF" d="M115.577,246.221c-0.878,2.25-2.05,5.278-1.08,8.28c-3.351-0.096-5.79,1.349-8.64,0.72
		C100.149,249.013,109.428,244.04,115.577,246.221z"/>
	<path fill-rule="evenodd" d="M121.697,251.981c-4.531-1.706,0.996-8.055,2.16-3.96C124.334,249.7,122.789,251.026,121.697,251.981z
		"/>
	<path fill-rule="evenodd" fill="#FFFFFF" d="M127.817,271.781c2.149,4.607-0.967,9.055-5.4,9.36
		C116.902,278.233,122.915,267.678,127.817,271.781z M122.057,277.541c2.612,0.364,2.022-3.384,0.36-3.6
		C121.615,274.434,121.357,276.661,122.057,277.541z M124.936,276.101c0.8,0.28,1.404,0.756,2.52,0.72
		c0.624-1.203-0.328-1.761-0.72-2.88c-0.48,0-0.96,0-1.44,0C125.305,274.789,124.677,275.001,124.936,276.101z"/>
	<path fill-rule="evenodd" d="M122.416,273.941c1.663,0.216,2.252,3.964-0.36,3.6C121.357,276.661,121.615,274.434,122.416,273.941z
		"/>
	<path fill-rule="evenodd" d="M125.297,273.941c0.48,0,0.96,0,1.44,0c0.392,1.12,1.344,1.677,0.72,2.88
		c-1.116,0.036-1.72-0.44-2.52-0.72C124.677,275.001,125.305,274.789,125.297,273.941z"/>
	<path fill-rule="evenodd" fill="#FFFFFF" d="M109.097,274.661c2.897,0.065,4.793,0.287,8.28,0.36
		c-0.301,2.078-0.804,3.402-0.36,5.4c-3.192,0.258-6.062,2.044-9.36,1.08C107.412,278.148,108.433,277.53,109.097,274.661z"/>
	<path fill-rule="evenodd" fill="#FFFFFF" d="M118.816,298.061c-0.954,2.647-1.596,5.604-2.519,8.28c-3.12,0.513-6.584,1.119-9-0.36
		c-0.229-2.052-0.798-3.762-0.72-6.12C109.322,297.926,114.041,297.966,118.816,298.061z"/>
	<path fill-rule="evenodd" fill="#FFFFFF" d="M127.097,300.221c1.502,4.68-0.589,9.292-6.12,9
		C117.202,304.886,121.427,295.208,127.097,300.221z M121.337,304.901c0.823,0.229,2.171,0.714,2.88,0
		c0.499-1.939-1.372-1.509-1.08-3.239c-0.6,0-1.2-0.001-1.8,0C120.485,302.555,121.333,303.78,121.337,304.901z M127.097,304.901
		c0.255-1.335-0.615-1.545-0.36-2.88c-0.48,0-0.96,0-1.44,0C125.437,303.44,125.317,305.12,127.097,304.901z"/>
	<path fill-rule="evenodd" d="M121.337,301.661c0.6-0.001,1.2,0,1.8,0c-0.292,1.73,1.58,1.3,1.08,3.239
		c-0.709,0.714-2.057,0.229-2.88,0C121.333,303.78,120.485,302.555,121.337,301.661z"/>
	<path fill-rule="evenodd" d="M125.297,302.021c0.48,0,0.96,0,1.44,0c-0.255,1.335,0.615,1.545,0.36,2.88
		C125.317,305.12,125.437,303.44,125.297,302.021z"/>
	<path fill-rule="evenodd" fill="#FFFFFF" d="M113.057,336.941c-0.309,1.583-3.458,0.943-5.4,1.08
		c-5.242,0.37-15.131-0.641-21.96-1.44c5.594-1.271,13.701-0.014,20.88,0C108.732,336.585,111.328,335.274,113.057,336.941z"/>
	<path fill-rule="evenodd" fill="#FFFFFF" d="M127.456,336.221c-3.036,1.192-8.202,2.079-12.24,1.08c0-0.48,0-0.96,0-1.44
		C118.011,335.869,124.134,335.552,127.456,336.221z"/>
	<path fill-rule="evenodd" fill="#FFFFFF" d="M137.536,338.021c-7.114,0.997-16.235,2.852-23.4,2.16
		c5.492-0.58,12.265-2.233,18-2.88C133.614,337.134,136.668,336.362,137.536,338.021z"/>
	<path fill-rule="evenodd" fill="#FFFFFF" d="M112.337,340.181c-10.051,2.453-19.275-0.272-30.6-1.439
		c-0.921,0.016-0.439-0.268-0.36-0.721C90.472,338.292,104.033,340.261,112.337,340.181z"/>
	<path fill-rule="evenodd" fill="#FFFFFF" d="M131.777,340.901c-7.733,3.207-17.907,2.751-27.72,2.521
		c-9.119-0.215-18.539,0.124-26.64-1.8c3.143-3.328,10.331,0.306,16.2,0.72C104.785,343.128,118.728,341.93,131.777,340.901z"/>
	<path fill-rule="evenodd" fill="#FFFFFF" d="M137.896,343.782c-0.7,2.467-3.53,1.285-5.04,1.44
		c-7.657,0.781-14.926,1.277-21.96,2.16c-10.393,1.304-20.489-0.349-29.52-2.16c-1.941-0.39-5.515,0.642-6.12-2.16
		c5.754,1.249,10.221,1.49,17.28,1.8c7.697,0.339,16.771,1.763,23.76,1.08c3.209-0.314,6.46-0.963,9.72-1.44
		c3.255-0.476,7.088-1.934,9.72-1.8C136.953,342.763,137.448,342.592,137.896,343.782z"/>
	<path fill-rule="evenodd" fill="#FFFFFF" d="M76.697,347.021c8.951,0.786,17.424,2.989,27.36,2.52
		c11.606-0.548,22.688-3.01,33.48-2.52c0.301,11.564-1.559,23.139-1.44,34.92c0.063,6.324,0.905,12.552,1.44,19.08
		c0.487,5.944-0.273,12.096,0.36,18c0.878,8.184,1.315,16.728,2.521,24.841c1.215,8.18,2.984,16.281,3.96,24.479
		c1.008,8.472,0.089,17.243,1.44,25.561c0.645,3.971,1.672,7.959,2.52,11.88c0.913,4.221,0.717,8.405,1.44,12.6
		c0.453,2.626,2.833,5.507,2.52,8.641c-6.051,0.313-12.002-0.835-18-0.721c-10.065,0.192-20.073,1.334-29.52,1.08
		c-12.165-0.326-23.929-1.883-34.92,1.441c0.572-9.16,5.89-17.424,6.84-25.92c0.579-5.174,0.51-10.016,1.44-15.12
		c0.814-4.472,2.331-9.081,2.88-13.681c2.165-18.144-0.286-36.238,0.36-54.72c0.492-14.083-1.103-29.155-2.52-42.12
		c-1.092-9.989-1.029-19.657-2.52-29.16C75.455,348.061,76.26,346.91,76.697,347.021z"/>
	<path fill-rule="evenodd" fill="#FFFFFF" d="M91.456,528.461c-2.308,3.044,0.887,18.56-3.96,18.36
		c-3.627-0.15-2.671-14.983-2.52-18C86.913,528.478,89.089,528.374,91.456,528.461z"/>
	<path fill-rule="evenodd" fill="#FFFFFF" d="M132.856,529.902c1.881-0.081,3.594,0.006,5.04,0.359
		c-0.794,5.207,2.232,14.232-3.24,14.761C131.807,542.048,132.545,535.027,132.856,529.902z"/>
	<path fill-rule="evenodd" d="M48.976,89.62c-0.35,2.784-5.212,3.022-2.88,5.4c2.136,0.601,2.634-4.16,5.4-4.32
		c1.583-0.092,2.694,0.91,3.6,2.88c3.447-4.82,10.669-1.196,8.28,3.96c-1.192,2.574-5.881,2.238-9,3.6
		c-0.896,9.103-3.782,14.006-9.72,18.72c-3.743,2.971-9.88,4.425-10.08,11.16c-0.109,3.652,3.298,8.886,0.72,13.68
		c-1.838,0.802-2.701,2.579-5.4,2.52c1.623,31.231-0.07,64.23,2.52,99.001c0.369,4.957,0.694,10.161,0.36,14.76
		c-0.448,6.182-1.949,12.103-2.16,17.64c-0.604,15.843,0.363,32.43,7.56,43.56c3.788,5.858,21.452,8.811,28.8,3.24
		c3.61-3.091,3.895-6.519,2.88-12.96c-1.622-10.302-3.654-24.374-3.96-35.64c-0.24-8.843,1.145-18.049,1.8-25.92
		c1.862-22.357,8.672-38.824,23.76-50.04c1.086-4.314,4.054-6.746,7.2-9c-0.113-3.127-0.566-5.914-0.36-9.36
		c-14.529-5.806-27.158-19.01-29.16-37.44c-1.288-11.851-6.864-21.456-4.32-37.8c0.432-2.771,1.489-5.791,2.16-9
		c0.623-2.975,0.751-6.337,1.44-9.36c0.696-3.056,2.213-5.711,2.52-9c0.522-5.605-0.093-10.617,0.36-15.48
		c0.834-8.951,4.102-20.093,8.28-26.28c7.905-11.706,32.945-25.115,49.32-12.24c3.876,3.047,11.066,12.302,4.68,16.56
		c-1.899,8.56-1.097,17.838,0,27.36c0.55,4.779,3.193,10.186,4.68,15.48c1.554,5.532,2.331,11.254,3.6,15.48
		c0.824,2.745,3.585,6.526,1.44,9.72c-2.444,3.637-9.465,2.167-14.04,2.52c-0.079,4.496-3.065,8.098-3.24,12.6
		c-0.446,11.485,6.751,24.717-1.08,34.92c-2.827,2.452-6.04,4.52-8.28,7.56c-0.075,2.003,1.176,4.572,0.36,6.12
		c5.516,3.851,10.271,10.36,10.8,18.001c-4.874,1.184-5.876-5.876-11.52-6.12c-0.141,1.876-0.045,5.557-0.36,9
		c0.281,1.225,1.983-0.067,2.88,1.08c5.286,6.256,8.164,14.079,12.24,22.68c3.771,7.958,5.925,14.943,8.64,24.48
		c1.92,6.745,2.614,14.099,4.32,22.68c1.875,9.431,1.735,22.429,3.6,33.48c1.829,10.834,3.125,22.104,4.68,30.96
		c0.905,5.156,8.352,9.157,14.399,9.359c6.958,0.233,15.708-4.913,19.801-9.72c4.352-5.111,7.719-14.01,10.08-22.32
		c2.355-8.288,4.744-18.129,5.399-26.64c0.593-7.685,0.081-15.516,0.36-23.04c0.366-9.857-0.157-20.429,0.72-30.6
		c1.419-16.46,0.872-34.204-0.359-48.96c-0.245-2.936-1.284-5.853-1.44-8.64c-0.374-6.685-0.312-11.956,0-18.72
		c0.119-2.584,0.638-5.874,0.36-7.92c-0.469-3.451-3.895-7.764-1.801-13.68c1.745-0.104,2.886,0.795,4.32,0
		c-2.924-10.307-13.706-14.572-11.88-28.44c-9.747-1.031-24.053,2.182-29.88-3.6c-0.67-5.461,4.682-9.096,7.92-5.4
		c2.632-3.793,9.461-2.778,10.44,1.8c1.93-2.99,3.559-6.281,9.359-5.4c1.709,1.052,2.69,2.83,3.24,5.04
		c1.968-0.312,1.136-3.424,1.8-5.04c4.249-5.601,11.496-10.18,20.88-7.56c3.905,5.574,13.264,5.697,11.88,16.56
		c4.513-2.985-6.594-17.746,0-18.72c3.996-0.59,5.19,9.413,5.4,12.24c0.09,1.212-0.391,2.101-0.36,3.24
		c0.133,4.929,1.525,10.295-0.72,16.2c-1.01,2.657-3.102,7.016-4.68,8.64c-2.544,2.62-10.416,5.152-8.641,11.88
		c0.375,1.419,2.142,1.377,2.52,3.24c0.341,1.676-0.55,2.936-0.72,4.68c-1.561,15.977,1.176,32.142,3.239,45.36
		c2.183,13.979,0.4,27.485,2.521,39.24c-2.443,14.848-2.519,31.055-4.32,46.08c-0.761,6.349-2.493,12.532-3.24,18.72
		c-0.972,8.062-0.208,16.173-1.8,23.399c-0.813,3.691-2.843,8.792-4.32,12.601c-1.758,4.534-6.178,8.475-9,12.6
		c-0.608,0.892-1.138,2.379-1.8,3.24c-1.69,2.2-4.365,3.619-6.84,5.76c-2.332,2.018-4.27,4.911-6.48,6.12
		c-1.094,0.598-2.854,0.541-4.32,1.08c-1.275,0.47-2.424,1.545-3.6,1.8c-9.396,2.039-24.469-1.348-30.601-5.76
		c-3.98-2.863-5.688-7.327-8.28-11.16c-1.102,4.622-0.207,10.267-0.36,14.04c-0.167,4.123-1.819,8.475-1.8,12.601
		c0.008,1.842,1.051,3.582,1.08,5.399c0.065,4.04-0.568,9.63-1.08,13.681c-0.601,4.751,0.654,8.814,1.08,13.68
		c0.849,9.688,0.613,19.357,1.44,28.8c0.752,8.58,0.701,16.846,1.44,25.2c0.663,7.501,3.148,14.728,4.32,22.32
		c0.804,5.208,0.376,10.591,0.72,15.84c0.877,13.398,6.262,26.136,7.56,39.6c-5.268-1.349-11.197,0.729-16.92,1.08
		c-0.173,4.628,0.387,9.987-0.36,14.04c5.406,2.949,17.306,10.842,15.48,18.36c-5.495,4.112-16.088,1.128-18-3.96
		c-0.968,2.151-0.999,5.24-4.68,4.68c-2.124-3.271-2.321-7.635-1.8-11.88c0.257-2.09,1.667-3.985,1.8-5.76
		c0.393-5.258-2.873-10.334-1.08-15.84c-13.927-0.465-22.295,0.018-37.8-1.8c-0.876,3.833-0.814,9.591-1.08,16.56
		c3.253,2.577,15.529,7.733,13.32,14.4c-1.44,4.348-13.486,2.033-15.48-1.08c-1.278,1.628-0.541,3.212-2.52,3.6
		c-5.297,1.038-5.956-12.213-2.88-15.84c-1.174-4.553-2.49-10.592-1.44-16.2c-6.464-0.357-11.615,3.666-17.28,1.8
		c3.986-14.073,9.593-29.991,11.88-49.319c0.739-6.248-0.258-12.451,0.36-19.44c0.457-5.17,1.586-10.016,1.8-14.76
		c0.215-4.76-1.014-9.008-1.08-13.681c-0.069-4.936,0.745-9.955,0.36-15.12c-0.764-10.244-2.769-20.738-3.6-31.68
		c-1.086-14.292-1.404-27.851-2.521-43.92c-8.535,2.905-15.115,7.561-25.92,6.479c-6.454-0.646-12.2-4.811-16.56-8.64
		c-9.326-8.19-17.156-19.364-20.88-33.84c-4.178-16.24-2.471-34.918-3.24-51.84c-0.43-9.478-1.501-21.245-0.36-29.16
		c0.661-4.586,2.247-8.81,2.52-13.68c0.463-8.256,1.594-15.445,2.52-23.4c0.55-4.723,0.081-10.082,0.36-15.12
		c0.252-4.536,1.239-8.945,1.08-12.96c-0.227-5.739-2.777-11.672-2.16-16.56c-3.29-3.02-2.389-8.053-2.88-12.6
		c0.945-1.095,2.922-1.158,5.04-1.08c0.036-10.358-2.166-18.137-5.76-27.36c-2.836-7.276-3.744-15.565-4.32-23.04
		c-0.155-2.008-0.401-5.318,0.36-7.2c1.393-3.443,7.595-4.73,10.44-1.44c-0.99,5.923-1.921,9.862-2.16,16.2
		c0.569-0.75,1.174-1.466,1.44-2.52c-1.205,1.095-0.314-0.982,0,0c2.368-3.272,4.619-6.661,8.28-8.64
		c6.212-1.129,13.124-4.7,18.36-0.36c0.668,0.772,0.962,1.918,1.08,3.24C44.235,81.882,47.385,84.972,48.976,89.62z M132.496,30.58
		c-0.574,0.568,0.174,1.653,1.08,1.8C133.456,31.541,133.208,30.829,132.496,30.58z M118.816,23.741
		c1.607,0.289,2.815,1.877,3.961,0.72c-3.416-1.023-7.155-1.725-11.52-1.8C112.33,24.203,116.117,23.254,118.816,23.741z
		 M104.777,24.1c1.119,0.018,3.858-0.193,2.88-1.08C107.17,23.854,104.949,22.952,104.777,24.1z M99.376,28.06
		c4.205-0.67,8.995-1.422,10.8-2.52C105.717,25.521,101.958,26.202,99.376,28.06z M129.257,29.861
		c-0.764-2.121-3.829-3.845-6.12-3.24C125.587,27.29,127.132,28.865,129.257,29.861z M111.617,28.781
		c1.108-0.932,4.324,0.244,5.04-1.08C114.952,27.806,111.096,27.646,111.617,28.781z M105.137,28.781
		c-2.027,1.576-6.561,2.555-7.2,4.32c4.366-1.514,9.394-2.366,12.96-4.68C108.391,28.583,106.677,29.413,105.137,28.781z
		 M108.016,31.301c3.659-0.441,9.327-0.328,12.24-2.52C116.208,29.652,110.904,29.268,108.016,31.301z M117.737,31.66
		c3.693,0.884,7.763,1.243,10.08,1.8C126.388,29.62,121.188,30.398,117.737,31.66z M103.337,36.341
		c10.49-2.062,17.892-0.658,25.56-1.8C118.889,32.929,110.827,31.296,103.337,36.341z M86.416,38.14
		c0.214-1.358,2.586-2.438,1.8-3.6C87.906,35.802,85.535,36.882,86.416,38.14z M90.737,39.58c1.279-0.677,6.108-4.645,6.84-4.68
		C94.255,35.419,92.708,37.712,90.737,39.58z M132.137,36.701c0.362-0.718,1.592-0.568,1.44-1.8
		C132.293,34.485,131.689,36.575,132.137,36.701z M89.657,45.701c2.56-2.282,5.714-5.71,8.28-7.92c0.765-0.659,2.34-1.513,1.8-2.16
		c-8.953,4.487-14.767,14.033-16.92,24.12C84.245,54.209,87.796,50.8,89.657,45.701z M121.337,36.341
		c0.203,0.769,6.722,2.833,7.92,0.36C126.279,37.092,123.118,35.969,121.337,36.341z M103.337,37.42
		c-3.487,2.289-9.875,5.465-10.44,8.28c4.824-4.536,12.331-6.39,19.08-9C109,36.844,106.603,37.567,103.337,37.42z M99.016,43.901
		c6.357-1.804,15.183-4.257,23.04-5.76C113.814,36.434,105.165,40.309,99.016,43.901z M123.137,39.94
		c-0.714-0.849-0.714,0.033,0,0.36c3.023,0.143,5.64-0.12,8.28-0.36c0.609-0.711,1.581-1.059,1.8-2.16
		C130.602,39.557,126.207,39.552,123.137,39.94z M111.617,42.821c2.945,0.176,4.655,0.119,7.2-1.44
		C115.962,41.407,113.141,41.465,111.617,42.821z M80.297,46.42c0.212-0.911,1.601-3.934,0.72-3.6
		C81.153,44.175,79.307,45.407,80.297,46.42z M126.377,43.18c1.572,0.012,3.252,0.133,3.96-0.72
		C128.861,42.545,127.393,42.637,126.377,43.18z M123.137,44.261c-5.641-0.385-13.783-0.126-18.72,2.16
		c-8.034,3.721-8.79,8.939-11.16,19.44c5.326-2.044,9.539-7.136,16.2-7.2c7.198-0.069,13.517,5.482,17.64,9.72
		c-2.934,6.116-8.062,13.305-16.2,11.88c-1.321,0.118-0.32,2.56-1.8,2.52c-0.267-0.841-0.25-2.028,0.36-2.88
		c4.585-0.455,7.798-2.282,10.44-4.68c-3.188-1.115-6.142,0.397-9.36,0c-6.957-0.859-12.006-6.648-17.64-8.64
		c-2.263,12.668-3.517,27.346-5.04,41.76c-0.463,4.385-0.941,9.135-0.72,13.68c0.765,15.697,2.02,28.337,9.72,37.08
		c4.672,2.49,11.076,5.669,18.72,4.68c4.892-0.633,10.937-10.788,10.8-18c-0.052-2.724-1.441-5.51-1.44-8.28
		c-6.997,2.042-10.598-1.463-14.04-3.24c-1.925-0.994-4.891-0.586-3.96-3.24c4.821-2.735,11.786-7.055,17.64-3.6
		c-0.454-4.857,1.991-9.383,2.16-14.76c-6.371,0.396-13.7,0.102-12.6-6.84c0.325-2.054,4.083-6.13,6.84-3.24
		c-3.006-0.316-6.903,2.736-4.68,6.48c2.067,0.898,5.022,1.287,7.56,0.72c0.816-2.064,1.548-4.212,3.6-5.04
		c1.817,0.703,3.494,1.546,4.68,2.88c0.564,1.171-1.86,1.939,0,2.16c3.019,1.186,7.375,1.456,9.36-0.72
		c-0.111-3.659-1.299-6.738-1.8-10.44c-1.355-10.016-6.972-19.901-7.92-29.16c-1.035-10.104-1.725-18.194,0-25.92
		C129.406,46.066,126.447,44.487,123.137,44.261z M94.697,46.781c0.525-0.795,1.927-0.713,2.16-1.8
		C95.97,45.194,94.063,46.239,94.697,46.781z M97.936,46.42c1.068-0.132,1.776-0.624,2.16-1.44
		C99.248,45.332,97.813,45.097,97.936,46.42z M77.776,52.54c1.455-0.832,2.257-4.214,1.8-5.76
		C79.135,48.858,78.707,50.951,77.776,52.54z M95.776,51.1c2.024-2.406-1.81,1.341-0.72,2.16
		C95.264,52.508,95.949,52.233,95.776,51.1z M85.336,63.341c1.197-4.563,3.788-7.732,5.4-11.88
		C87.646,53.891,85.928,59.61,85.336,63.341z M91.097,62.62c0.131-1.56,1.725-3.541,0.72-5.04
		C92.077,59.532,90.188,61.217,91.097,62.62z M86.776,70.18c1.943-2.499,2.786-8.011,2.88-11.16
		C89.374,63.204,85.856,65.985,86.776,70.18z M112.697,71.981c3.597-2.007,0.379-11.077-2.88-10.44
		C103.212,62.83,106.629,75.367,112.697,71.981z M96.137,66.941c4.402,0.397,5.5,4.1,10.08,4.32c-1.934-2.297-1.762-7.351,0-9.72
		C101.904,62.388,98.335,63.979,96.137,66.941z M115.217,61.901c2.903,3.607,1.201,9.249-1.08,11.52
		c5.1-0.541,9.171-2.109,10.08-6.84C121.749,64.941,116.971,61.863,115.217,61.901z M78.856,69.821
		c-0.029-1.014,1.75-2.058,0.72-2.88C79.517,67.865,78.049,69.221,78.856,69.821z M87.856,78.821
		c-0.171-3.774,2.025-7.091,1.08-10.44C89.018,72.065,86.918,75.478,87.856,78.821z M80.657,88.18
		c1.937-4.996,1.792-11.619,1.8-18.36C80.623,75.218,79.882,81.405,80.657,88.18z M39.617,112.66c-2.264-0.117-5.355-4.013-6.48-7.2
		c-1.826-5.168-4.75-19.179,1.8-20.16c5.336-0.799,8.375,8.901,11.16,4.68c-1.764,1.15-3.369-0.942-4.32-1.8
		c0.673-1.717,0.512-2.287,1.44-3.96c-5.659-6.728-18.151-0.511-19.44,5.76c-0.979,4.759,2.028,9.42,1.08,11.52
		c-8.686-9.415,2.281-24.294,12.24-22.32c-3.476-1.521-7.544-4.237-10.44-2.16c-4.99,3.579-8.828,10.712-9.72,17.28
		c-0.6,0-1.2,0-1.8,0c0.608-6.712,3.005-11.635,6.479-15.48c-5.623,2.416-8.479,7.601-10.8,13.32
		c-0.581-0.499-1.855-0.304-2.16-1.08c0.232-3.266-1.308-8.089-0.72-12.24c0.245-1.729,3.315-5.517-0.36-5.4
		c0.709,1.269,0.967,7.667-2.88,6.12c-1.332,19.163,11.288,31.645,10.08,51.84c5.889,1.114,11.269-0.157,16.92,0.36
		c1.038-12.763,15.183-12.417,18.72-22.68c-1.004-1.052-2.105-4.554-1.8-4.68C46.94,108.042,44.211,112.899,39.617,112.66z
		 M5.416,78.1c1.744-0.108,1.255-3.72,0-3.96C5.105,74.852,3.761,77.752,5.416,78.1z M84.976,96.821
		c0.653-7.558,0.925-14.674,1.44-21.6C85.117,81.193,83.478,91.52,84.976,96.821z M76.697,89.261
		c-1.534-5.184,1.578-9.063,0.72-12.96C76.645,79.678,74.87,85.661,76.697,89.261z M219.617,98.62c-0.497-3.2-1.104-7.62-2.16-10.44
		c-2.777-7.419-11.95-8.087-16.92-1.44c0.968-0.248,0.695,0.744,1.08,1.08c7.974-5.051,14.244,2.691,15.84,10.08
		c2.448,11.334-15.045,18.59-19.44,7.2c0.248,1.448-0.345,2.055-0.359,3.24c-0.257,1.063-2.545,0.095-2.52,1.44
		c2.224,8.337,10.687,10.433,11.88,19.8c2.288,0.13,8.222,0.932,10.44,1.08c-0.455-6.756,4.178-9.416,7.2-12.6
		c3.619-3.813,7.86-9.985,7.92-16.2c0.05-5.218-0.687-16.118-4.32-18c1.168,4.618,3.833,12.159,0.36,16.2
		c-3.842-2.519-1.941-10.779-6.48-12.6c1.401,5.846,3.013,11.731,3.24,16.92c-3.449-1.471-1.805-8.036-3.96-10.8
		c-0.203,2.931,1.357,7.278-0.36,10.08C218.859,102.839,219.879,100.307,219.617,98.62z M76.697,115.901
		c0.581-10.991,3.367-19.805,2.16-30.96C78.009,94.696,74.819,105.805,76.697,115.901z M44.296,88.54c0.6,0,1.2,0,1.8,0
		c0.008-1.329-0.161-2.479-1.44-2.52C43.744,86.709,44.168,87.302,44.296,88.54z M197.657,88.54c0.242-0.837,1.889-0.271,1.44-1.8
		C198.163,86.675,196.546,87.751,197.657,88.54z M34.936,88.18c-4.925,5.817,0.277,16.201,2.52,21.6
		c5.612,2.191,8.545-3.717,9.72-8.28c-5.391,0.23-8.858-1.462-10.44-5.04c0.388-1.292,0.906-2.455,1.08-3.96
		c1.06-0.38,2.385-0.495,3.24-1.08C39.492,89.865,37.418,88.819,34.936,88.18z M205.577,109.421c5.64,0.472,11.688-6.194,9.72-13.32
		c-2.573-1.822-4.276-7.367-7.92-7.92c-2.909-0.442-4.06,1.779-6.84,2.88c4.108,2.24,4.116,9.405-1.44,10.08
		C200.602,104.873,201.599,109.088,205.577,109.421z M189.737,89.261c-5.314-1.448-7.602,3.925-9.36,6.48
		c-0.573-3.633-2.826-5.998-6.12-5.4c-2.83,0.514-2.021,3.638-4.68,4.32c0.064-1.187-0.617-2.394-1.801-3.24
		c-3.476,0.124-4.761,2.438-4.68,6.12c8.967,5.494,25.055,1.383,37.08,2.88c8.227-5.313-3.679-12.049-7.56-5.04
		C192.777,92.847,191.698,89.795,189.737,89.261z M74.536,104.741c0.657-4.561,1.448-11.058-0.36-15.12
		C73.812,95.064,73.474,100.498,74.536,104.741z M196.217,90.701c1.103,0.961,2.933-0.411,3.6-1.08
		C198.251,90.372,196.818,89.454,196.217,90.701z M46.816,96.821c-1.276-2.796-5.128-5.89-8.64-3.24
		c-0.842,7.906,7.979,7.416,13.32,5.4c2.761,2.429,10.979,0.644,11.52-2.88c0.755-4.922-6.229-5.395-7.92-0.72
		C54.071,88.623,47.869,92.852,46.816,96.821z M81.737,96.821c-0.199-1.137,0.558-5.097-0.72-3.96
		C82.178,94.125,79.951,95.782,81.737,96.821z M68.416,126.701c-1.615-11.37,2.666-21.138,1.8-31.68
		C68.448,105.729,65.972,116.133,68.416,126.701z M198.016,104.381c-1.102-0.578-0.524-2.835-2.52-2.52
		C195.777,103.034,197.441,104.698,198.016,104.381z M50.416,106.901c0.992-0.234,2.17-3.629,0.72-3.96
		C49.968,103.331,50.543,105.468,50.416,106.901z M196.217,107.62c0.468-1.56,0.243-2.96-1.44-3.24
		C194.313,105.536,193.821,108.3,196.217,107.62z M73.456,135.341c-0.91-10.067,0.366-19.135-1.08-30.24
		C72.502,115.658,69.786,126.743,73.456,135.341z M78.137,120.221c0.989-4.172,1.773-10.464,1.44-14.76
		C78.794,109.013,77.782,115.722,78.137,120.221z M81.016,138.221c-0.192-9.686-0.048-19.497-0.36-28.44
		c-0.08,4.439-1.302,11.383-2.16,15.48c-0.519,0.796-0.878-0.453-1.08,0.36C78.229,128.268,78.246,134.793,81.016,138.221z
		 M81.016,151.541c-2.519-9.432-5.493-18.054-6.12-27C74.608,135.868,76.987,144.531,81.016,151.541z M84.976,140.741
		c-1.266-4.134-0.607-10.192-1.8-14.4C83.463,131.454,83.222,137.096,84.976,140.741z M69.496,132.461
		c-0.107-1.693,0.311-3.911-1.08-4.32C68.744,129.613,68.772,131.385,69.496,132.461z M113.057,130.66
		c3.001-0.87,6.687-0.202,9,0.72c0.568-0.632,1.653-0.747,1.8-1.8C121.051,128.077,114.499,127.768,113.057,130.66z
		 M218.177,132.821c-7.548-3.307-21.693,0.62-14.76,8.28c1.305-1.575,0.269-5.492,2.519-6.12c4.351,0.794,2.351,5.458,3.96,7.92
		c3.004-0.597,0.023-7.178,3.601-7.2c3.184,0.559,1.417,4.872,3.24,6.12C219.946,141.083,218.981,135.671,218.177,132.821z
		 M124.217,133.541c-5.05,0.461-7.418-1.473-11.16-1.44C112.901,135.118,122.753,138.443,124.217,133.541z M11.536,132.821
		c-2.999,1.774-2.578,10.3,2.52,10.08c1.182-2.8-0.208-7.184,3.24-8.28c4.812,1.782-0.169,9.206,5.04,10.44
		c2.175-1.305-0.339-7.3,3.24-7.2c2.227,2.212,1.601,7.278,6.48,6.84c1.491-3.143,0.335-7.695-1.08-10.08
		C24.682,132.759,16.591,133.639,11.536,132.821z M79.217,158.741c-1.651-8.549-4.315-16.085-7.56-23.04
		C73.149,144.408,74.535,153.222,79.217,158.741z M88.217,161.261c-3.288-6.072-4.9-13.82-7.92-20.16
		C81.401,149.117,84.408,157.149,88.217,161.261z M203.776,145.061c0.396,6.365,0.248,13.28,0,20.88
		c-0.091,2.808,0.553,5.886,0.36,9c-0.184,2.98-0.878,6.04-0.72,9c0.164,3.07,1.367,6.228,1.439,9.36
		c0.1,4.293,0.094,8.311,0.36,12.6c1.025,16.5,0.138,30.495,0,44.64c-0.093,9.537,0.96,18.779,0.36,27
		c-0.414,5.668-2.863,12.239-3.96,19.081c-1.133,7.061-0.84,15.303-2.88,20.159c-3.008,7.157-6.856,11.509-12.24,15.841
		c-3.008,2.42-5.939,5.411-9,6.84c-7.351,3.43-17.86,1.372-23.76-2.521c-6.521-8.662-8.044-21.449-8.28-33.84
		c-0.155-8.164-1.087-16.666-2.52-25.2c-3.054-18.194-3.08-36.496-10.44-51.12c0.264,6.084,3.042,11.796,4.32,18.001
		c2.586,12.55,2.172,27.059,2.88,40.68c0.196,3.776,1.578,7.244,1.8,10.8c0.602,9.648-1.576,21.465,0.36,32.4
		c3.202,18.09,21.681,29.621,41.4,22.68c11.048-3.889,20.966-15.996,25.92-28.08c4.923-12.008,7.705-27.515,9-42.48
		c1.097-12.674,2.64-25.725,3.24-38.16c0.657-13.595,2.153-29.346,1.8-44.28c-0.389-16.392-5.328-34.469-5.399-52.92
		c-1.721,0.061-3.365-1.834-3.961-3.96c-1.254,4.601-6.15,4.087-7.199-0.36C206.83,143.554,204.034,143.038,203.776,145.061z
		 M95.416,296.261c0.121-1.648-0.564-3.954-0.36-6.481c0.414-5.122,2.192-12.342,2.52-19.8c0.517-11.767,1.141-25.24,0-35.28
		c-0.92-8.09-4.102-18.281-13.32-14.4c-4.411,1.857-7.984,17.116-8.64,26.28c-0.467,6.512,1.074,9.797,1.44,14.76
		c0.207,2.814-0.433,6.131-0.36,9.72c0.307,15.169,0.246,28.988-2.16,41.04c-0.58,2.905-0.807,6.213-1.44,7.92
		c-2.366,6.376-10.437,11.073-18.72,11.16c-18.228,0.191-24.198-14.595-27.36-29.88c0.004-0.716,0.982-0.458,0.72-1.44
		c-1.595-7.182-0.377-15.299,0-23.4c0.53-11.384-0.863-23.527,0-34.2c0.185-2.277,1.067-4.57,1.08-6.84
		c0.011-1.958-0.669-3.803-0.72-5.76c-0.672-25.997-0.36-48.118-0.36-75.24c0-3.778,1.157-8.293-1.8-10.44
		c-2.167,1.359-2.425,3.652-5.4,3.24c-2.492-0.345-2.735-2.574-3.6-5.04c-3.085,2.477-1.952,6.542-1.8,9.72
		c0.164,3.429,0.246,7.01,0,10.44c-1.036,14.423-0.685,29.899-2.88,45.36c-1.12,7.884-3.746,15.787-3.96,23.76
		c-0.388,14.466,1.131,29.816,1.44,43.2c0.175,7.562-0.167,14.78,1.08,21.24c1.244,6.443,2.162,12.019,4.32,17.641
		c5.347,13.928,12.238,23.701,24.48,29.88c3.467,0.746,6.939-0.124,10.44,0c2.382,0.084,4.621,0.875,7.2,0.72
		c9.174-0.551,16.619-4.728,23.041-8.28C88.797,327.033,94.345,310.892,95.416,296.261z M89.297,169.541
		c-5.249-3.751-6.724-11.277-10.08-16.92C80.335,160.322,83.588,167.019,89.297,169.541z M115.577,182.141
		c-3.794-6.559-12.969-6.671-18-11.88c-1.256-1.3-2.099-3.663-3.24-5.4c-2.38-3.624-4.799-6.546-7.2-9
		C92.143,169.094,103.143,176.334,115.577,182.141z M93.257,172.421c-1.699-6.101-5.845-9.755-8.64-14.76
		C86.533,163.544,89.885,167.992,93.257,172.421z M83.177,169.181c-2.275-2.767-4.809-7.189-6.84-9.001
		C78.194,163.603,80.548,166.529,83.177,169.181z M99.376,170.261c3.827,1.454,6.652,3.909,10.44,5.4
		c-5.36-5.44-11.493-10.106-16.92-15.48C95.387,163.211,96.999,167.118,99.376,170.261z M113.777,172.421
		c-0.503-1.777-0.351-4.209-0.36-6.48c-3.959,0.164-6.838-0.629-9.36-0.36C106.802,168.355,110.041,170.637,113.777,172.421z
		 M94.697,176.381c-2.084-3.316-5.928-4.873-9-7.2C87.606,172.672,91.009,174.668,94.697,176.381z M88.577,174.941
		c-1.749-1.338-3.861-5.094-5.04-4.68c3.951,4.09,8.381,9.619,14.76,10.08C95.498,178.562,91.465,177.151,88.577,174.941z
		 M104.057,178.541c-3.406-2.954-7.212-5.508-10.44-8.64C94.725,174.913,100.036,177.64,104.057,178.541z M117.376,177.821
		c-1.288-1.525-4.501-3.295-5.76-2.88C113.179,176.024,115.824,177.926,117.376,177.821z M118.816,182.141
		c-0.317-2.807-4.324-3.831-5.76-4.32C115.268,178.969,116.398,181.199,118.816,182.141z M107.657,182.501
		c-2.499-2.286-7.04-2.9-9.72-3.24C100.501,181.016,104.082,181.755,107.657,182.501z M112.697,181.781
		c-2.049-0.711-3.749-1.77-5.4-2.88C108.162,180.56,111.043,182.106,112.697,181.781z M103.337,205.541
		c1.564,0.716,3.772,0.788,5.76,1.08c2.379-1.14,3.7-5.127,2.52-8.64c0.742-0.193,0.086-1.703,1.08-0.72
		c-1.568-4.302-0.549-8.831-1.44-12.6c-3.709-0.011-6.285-1.156-9.72-1.44C102.147,189.703,101.784,198.263,103.337,205.541z
		 M124.936,187.181c-0.119-1.334-1.109-3.672-1.8-3.24C123.904,184.853,123.874,186.563,124.936,187.181z M104.777,214.901
		c1.128-0.911,1.711-2.369,2.16-3.96c-3.277-1.994-6.764-3.647-7.92-7.92c-0.569-2.104,0.446-4.953-1.8-6.48
		C89.555,200.994,97.867,213.085,104.777,214.901z M115.577,198.341c-1.521,3.731,1.653,11.549-5.76,10.8
		c-0.396,1.92-0.425,3.516,0.72,4.68c1.169-0.208,1.675,0.245,2.52,0.36C117.052,212.409,124.005,198.009,115.577,198.341z
		 M110.536,243.701c-0.033-11.096-0.678-19.433-1.8-29.52c-7.464,8.026-14.162-6.011-17.28-11.16
		c-5.188,5.413-11.078,10.414-14.76,17.64c-3.602,7.068-5.806,16.431-6.84,25.92c-2.258,20.719-1.809,43.736,1.08,64.44
		c1.932-9.827,3.24-20.186,3.24-31.32c0-5.72-1.325-10.296-1.8-16.2c-0.329-4.09-0.05-9.179,0.36-14.04
		c0.848-10.037,1.892-21.442,7.561-28.8c3.667-4.761,12.121-3.567,15.84,1.08c3.244,4.054,2.978,12.428,3.24,19.08
		c0.526,13.363,0.311,29.034-0.72,43.2c-1.54,21.151-4.824,39.016-12.96,50.76c8.328-0.475,19.096,0.726,27-1.079
		c-0.778-8.161,1.45-18.771-1.44-24.841c-3.038,0.397-4.579,0.391-7.2,0c-2.876-6.903-2.084-13.929,8.28-12.6
		c-0.609-4.191,0.046-9.647-1.44-12.96c-2.365,0.057-3.806-0.071-5.04-0.36c-0.766-2.354-1.772-4.467-1.44-7.92
		c2.013-1.587,3.02-4.181,7.2-3.6c-0.287-4.339-1.003-9.946-0.72-13.68c-9.954,2.052-9.894-9.028-7.92-12.96
		C104.76,245.04,108.037,243.902,110.536,243.701z M109.097,215.261c1.746,7.369,2.985,20.386,2.52,28.8
		c5.7,1.974,6.342-2.192,9.36-2.88c11.006-2.51,8.948,13.198,4.32,17.64c-6.548,0.577-7.502-4.518-12.96-1.44
		c-0.553,4.533,0.632,7.773,0,14.04c2.27-0.11,4.263,0.057,6.12,0.36c2.146-4.189,11.076-5.289,12.6-0.36
		c2.043,6.606-5.328,15.392-12.96,10.44c-1.388,0.532-3.126,0.714-4.68,1.08c0.565,4.235,0.173,9.427,1.08,13.32
		c6.051,0.975,9.956-2.122,14.4,0.72c3.593,6.377-0.032,14.124-6.84,13.681c-3-0.196-4.318-3.686-7.92-2.16
		c0.511,9.443,1.799,15.115,0.72,25.2c7.696,2.049,15.265-1.545,22.68-0.36c1.679-16.906,0.663-31.443-1.08-49.681
		c0.897-8.823-1.804-18.333-2.52-27.359c-1.46-18.41-3.065-36.878-11.88-51.84c-0.021-0.22-0.054-0.426-0.36-0.36
		C120.584,210.865,116.29,217.87,109.097,215.261z M121.697,256.301c4.77,0.177,7.267-13.421,1.8-12.6
		C119.629,244.282,115.843,256.084,121.697,256.301z M105.856,255.221c2.85,0.629,5.289-0.816,8.64-0.72
		c-0.97-3.002,0.202-6.029,1.08-8.28C109.428,244.04,100.149,249.013,105.856,255.221z M122.416,281.141
		c4.433-0.305,7.55-4.753,5.4-9.36C122.915,267.678,116.902,278.233,122.416,281.141z M107.657,281.501
		c3.298,0.964,6.168-0.822,9.36-1.08c-0.444-1.998,0.059-3.322,0.36-5.4c-3.487-0.073-5.383-0.295-8.28-0.36
		C108.433,277.53,107.412,278.148,107.657,281.501z M106.577,299.861c-0.078,2.358,0.492,4.068,0.72,6.12
		c2.416,1.479,5.88,0.873,9,0.36c0.924-2.677,1.566-5.634,2.519-8.28C114.041,297.966,109.322,297.926,106.577,299.861z
		 M120.976,309.221c5.531,0.292,7.623-4.32,6.12-9C121.427,295.208,117.202,304.886,120.976,309.221z M106.577,336.581
		c-7.179-0.014-15.286-1.271-20.88,0c6.829,0.799,16.718,1.81,21.96,1.44c1.942-0.137,5.091,0.503,5.4-1.08
		C111.328,335.274,108.732,336.585,106.577,336.581z M115.217,335.861c0,0.48,0,0.96,0,1.44c4.038,0.999,9.204,0.112,12.24-1.08
		C124.134,335.552,118.011,335.869,115.217,335.861z M132.137,337.301c-5.735,0.647-12.508,2.3-18,2.88
		c7.165,0.692,16.286-1.163,23.4-2.16C136.668,336.362,133.614,337.134,132.137,337.301z M81.376,338.021
		c-0.079,0.453-0.561,0.736,0.36,0.721c11.325,1.167,20.549,3.893,30.6,1.439C104.033,340.261,90.472,338.292,81.376,338.021z
		 M93.617,342.341c-5.869-0.414-13.058-4.048-16.2-0.72c8.101,1.924,17.521,1.585,26.64,1.8c9.813,0.23,19.987,0.686,27.72-2.521
		C118.728,341.93,104.785,343.128,93.617,342.341z M135.737,342.701c-2.632-0.134-6.465,1.323-9.72,1.8
		c-3.259,0.477-6.511,1.126-9.72,1.44c-6.989,0.683-16.063-0.741-23.76-1.08c-7.059-0.31-11.526-0.551-17.28-1.8
		c0.605,2.802,4.179,1.771,6.12,2.16c9.031,1.811,19.127,3.464,29.52,2.16c7.034-0.883,14.303-1.379,21.96-2.16
		c1.51-0.154,4.34,1.027,5.04-1.44C137.448,342.592,136.953,342.763,135.737,342.701z M76.336,348.101
		c1.491,9.503,1.428,19.171,2.52,29.16c1.417,12.965,3.012,28.037,2.52,42.12c-0.646,18.482,1.805,36.576-0.36,54.72
		c-0.549,4.6-2.065,9.209-2.88,13.681c-0.93,5.104-0.861,9.946-1.44,15.12c-0.951,8.496-6.269,16.76-6.84,25.92
		c10.992-3.323,22.755-1.767,34.92-1.441c9.447,0.254,19.455-0.888,29.52-1.08c5.998-0.114,11.949,1.034,18,0.721
		c0.313-3.134-2.067-6.015-2.52-8.641c-0.723-4.194-0.527-8.379-1.44-12.6c-0.848-3.921-1.876-7.909-2.52-11.88
		c-1.351-8.317-0.432-17.089-1.44-25.561c-0.976-8.198-2.745-16.3-3.96-24.479c-1.206-8.112-1.642-16.657-2.521-24.841
		c-0.633-5.904,0.127-12.056-0.36-18c-0.535-6.528-1.376-12.756-1.44-19.08c-0.119-11.781,1.741-23.355,1.44-34.92
		c-10.792-0.489-21.874,1.973-33.48,2.52c-9.936,0.469-18.409-1.734-27.36-2.52C76.26,346.91,75.455,348.061,76.336,348.101z
		 M84.976,528.822c-0.151,3.017-1.107,17.85,2.52,18c4.847,0.199,1.652-15.317,3.96-18.36
		C89.089,528.374,86.913,528.478,84.976,528.822z M134.657,545.022c5.472-0.529,2.446-9.554,3.24-14.761
		c-1.446-0.354-3.159-0.44-5.04-0.359C132.545,535.027,131.807,542.048,134.657,545.022z"/>
	<path fill-rule="evenodd" fill="#FFFFFF" d="M111.257,22.66c4.365,0.075,8.104,0.776,11.52,1.8
		c-1.146,1.158-2.353-0.431-3.961-0.72C116.117,23.254,112.33,24.203,111.257,22.66z"/>
	<path fill-rule="evenodd" fill="#FFFFFF" d="M110.896,28.42c-3.566,2.314-8.594,3.167-12.96,4.68c0.64-1.765,5.173-2.744,7.2-4.32
		C106.677,29.413,108.391,28.583,110.896,28.42z"/>
	<path fill-rule="evenodd" fill="#FFFFFF" d="M88.217,34.54c0.785,1.162-1.586,2.242-1.8,3.6
		C85.535,36.882,87.906,35.802,88.217,34.54z"/>
	<path fill-rule="evenodd" fill="#FFFFFF" d="M97.577,34.901c-0.732,0.035-5.561,4.003-6.84,4.68
		C92.708,37.712,94.255,35.419,97.577,34.901z"/>
	<path fill-rule="evenodd" fill="#FFFFFF" d="M133.577,34.901c0.152,1.231-1.078,1.082-1.44,1.8
		C131.689,36.575,132.293,34.485,133.577,34.901z"/>
	<path fill-rule="evenodd" fill="#FFFFFF" d="M82.816,59.741c2.154-10.087,7.967-19.633,16.92-24.12
		c0.54,0.647-1.035,1.501-1.8,2.16c-2.565,2.21-5.72,5.638-8.28,7.92C87.796,50.8,84.245,54.209,82.816,59.741z"/>
	<path fill-rule="evenodd" fill="#FFFFFF" d="M111.976,36.701c-6.749,2.61-14.256,4.464-19.08,9c0.565-2.815,6.953-5.992,10.44-8.28
		C106.603,37.567,109,36.844,111.976,36.701z"/>
	<path fill-rule="evenodd" fill="#FFFFFF" d="M133.217,37.781c-0.219,1.101-1.191,1.448-1.8,2.16c-2.64,0.24-5.256,0.504-8.28,0.36
		c-0.714-0.327-0.714-1.21,0-0.36C126.207,39.552,130.602,39.557,133.217,37.781z"/>
	<path fill-rule="evenodd" d="M237.976,47.14c1.969-6.309,11.399-4.981,14.04,0c2.125-3.511,9.391-8.453,12.24-1.08
		c2.91-3.509,9.629-2.924,11.16,1.44c2.929-3.102,10.377-6.258,11.88,0.36c1.998-1.082,2.749-3.883,5.4-4.32
		c3.588-0.591,7.728,2.84,7.56,6.12c-0.428,8.321-26.649,8.61-35.64,8.64c-17.576,0.058-35.617,2.641-39.24-6.84
		C223.026,45.31,235.372,39.13,237.976,47.14z M228.617,45.341c-0.662,0.766-2.33,4.062-2.16,5.76c0.543,5.433,11.425,7.94,19.8,7.2
		c12.375-1.094,24.697,0.104,35.28-1.08c6.852-0.767,17.142-2.8,18.36-8.28c-1.876-2.677-3.721-5.223-7.2-4.68
		c-2.933,0.457-3.411,4.045-6.12,4.68c0.273-2.074-1.082-2.518-1.44-3.96c-5.01-1.704-6.989,2.237-10.08,3.6
		c-1.365-5.136-8.142-4.926-11.159-1.44c-2.211-8.016-10.092-2.628-12.24,1.8c-1.461-4.211-4.292-5.819-9.721-5.4
		c-1.874,0.886-2.346,3.174-3.6,4.68C236.057,45.108,231.709,41.763,228.617,45.341z"/>
	<path fill-rule="evenodd" fill="#FFFFFF" d="M81.016,42.821c0.881-0.334-0.508,2.689-0.72,3.6
		C79.307,45.407,81.153,44.175,81.016,42.821z"/>
	<path fill-rule="evenodd" fill="#FFFFFF" d="M96.856,44.98c-0.233,1.087-1.635,1.005-2.16,1.8
		C94.063,46.239,95.97,45.194,96.856,44.98z"/>
	<path fill-rule="evenodd" fill="#FFFFFF" d="M79.577,46.781c0.456,1.546-0.345,4.928-1.8,5.76
		C78.707,50.951,79.135,48.858,79.577,46.781z"/>
	<path fill-rule="evenodd" fill="#FFFFFF" d="M95.057,53.261c-1.09-0.819,2.744-4.566,0.72-2.16
		C95.949,52.233,95.264,52.508,95.057,53.261z"/>
	<path fill-rule="evenodd" fill="#FFFFFF" d="M90.737,51.46c-1.612,4.148-4.204,7.317-5.4,11.88
		C85.928,59.61,87.646,53.891,90.737,51.46z"/>
	<path fill-rule="evenodd" fill="#FFFFFF" d="M124.217,66.58c-0.909,4.731-4.98,6.3-10.08,6.84c2.281-2.271,3.983-7.913,1.08-11.52
		C116.971,61.863,121.749,64.941,124.217,66.58z"/>
	<path fill-rule="evenodd" fill="#FFFFFF" d="M79.577,66.941c1.03,0.822-0.75,1.866-0.72,2.88
		C78.049,69.221,79.517,67.865,79.577,66.941z"/>
	<path fill-rule="evenodd" fill="#FFFFFF" d="M48.617,104.381c-0.306,0.127,0.795,3.628,1.8,4.68
		c-3.538,10.262-17.683,9.917-18.72,22.68c-5.651-0.517-11.031,0.754-16.92-0.36c1.208-20.195-11.412-32.677-10.08-51.84
		c3.847,1.547,3.589-4.851,2.88-6.12c3.675-0.117,0.605,3.671,0.36,5.4c-0.588,4.151,0.952,8.974,0.72,12.24
		c0.305,0.776,1.579,0.581,2.16,1.08c2.321-5.719,5.176-10.904,10.8-13.32c-3.475,3.845-5.871,8.769-6.479,15.48c0.6,0,1.2,0,1.8,0
		c0.892-6.568,4.729-13.702,9.72-17.28c2.897-2.077,6.965,0.639,10.44,2.16c-9.96-1.974-20.926,12.905-12.24,22.32
		c0.948-2.1-2.059-6.76-1.08-11.52c1.289-6.271,13.782-12.488,19.44-5.76c-0.928,1.673-0.767,2.243-1.44,3.96
		c0.952,0.858,2.556,2.951,4.32,1.8c-2.785,4.221-5.824-5.479-11.16-4.68c-6.55,0.981-3.625,14.992-1.8,20.16
		c1.125,3.187,4.216,7.083,6.48,7.2C44.211,112.899,46.94,108.042,48.617,104.381z M24.496,105.1c1.873,0.313,2.554-0.565,2.52-2.16
		C25.504,101.781,24.749,103.867,24.496,105.1z M41.057,115.18c-0.451-1.52-1.947-0.123-3.24-0.36
		c-2.168-0.352-2.179-2.861-4.68-2.88C33.509,115.254,38.631,118.263,41.057,115.18z"/>
	<path fill-rule="evenodd" d="M107.657,80.261c-0.302,0.778-0.932,1.228-0.72,2.52c-1.226,0.267-0.593-1.327-1.44-1.44
		c-0.535,0.305-0.521,1.159-0.72,1.8c-0.534-0.306-0.774-0.906-0.72-1.8C105.661,81.385,106.288,80.452,107.657,80.261z"/>
	<path fill-rule="evenodd" fill="#FFFFFF" d="M195.497,101.861c1.995-0.315,1.418,1.942,2.52,2.52
		C197.441,104.698,195.777,103.034,195.497,101.861z"/>
	<path fill-rule="evenodd" fill="#FFFFFF" d="M77.416,125.62c0.202-0.813,0.562,0.437,1.08-0.36c0.858-4.097,2.08-11.041,2.16-15.48
		c0.312,8.943,0.167,18.754,0.36,28.44C78.246,134.793,78.229,128.268,77.416,125.62z"/>
	<path fill-rule="evenodd" fill="#FFFFFF" d="M80.297,141.101c3.02,6.34,4.632,14.088,7.92,20.16
		C84.408,157.149,81.401,149.117,80.297,141.101z"/>
	<path fill-rule="evenodd" fill="#FFFFFF" d="M87.137,155.861c2.401,2.454,4.819,5.376,7.2,9c1.141,1.737,1.984,4.1,3.24,5.4
		c5.031,5.21,14.206,5.322,18,11.88C103.143,176.334,92.143,169.094,87.137,155.861z"/>
	<path fill-rule="evenodd" fill="#FFFFFF" d="M76.336,160.18c2.031,1.812,4.565,6.234,6.84,9.001
		C80.548,166.529,78.194,163.603,76.336,160.18z"/>
	<path fill-rule="evenodd" fill="#FFFFFF" d="M98.297,180.341c-6.379-0.461-10.809-5.99-14.76-10.08
		c1.179-0.414,3.291,3.342,5.04,4.68C91.465,177.151,95.498,178.562,98.297,180.341z"/>
	<path fill-rule="evenodd" fill="#FFFFFF" d="M93.617,169.901c3.228,3.132,7.034,5.686,10.44,8.64
		C100.036,177.64,94.725,174.913,93.617,169.901z"/>
	<path fill-rule="evenodd" fill="#FFFFFF" d="M111.617,174.941c1.259-0.415,4.472,1.355,5.76,2.88
		C115.824,177.926,113.179,176.024,111.617,174.941z"/>
	<path fill-rule="evenodd" fill="#FFFFFF" d="M113.057,177.821c1.436,0.489,5.443,1.513,5.76,4.32
		C116.398,181.199,115.268,178.969,113.057,177.821z"/>
	<path fill-rule="evenodd" fill="#FFFFFF" d="M107.297,178.901c1.651,1.109,3.351,2.168,5.4,2.88
		C111.043,182.106,108.162,180.56,107.297,178.901z"/>
	<path fill-rule="evenodd" fill="#FFFFFF" d="M123.137,183.941c0.69-0.432,1.681,1.906,1.8,3.24
		C123.874,186.563,123.904,184.853,123.137,183.941z"/>
	<path fill-rule="evenodd" fill="#FFFFFF" d="M131.777,43.54c-1.725,7.726-1.035,15.815,0,25.92
		c0.948,9.259,6.565,19.145,7.92,29.16c0.5,3.703,1.689,6.781,1.8,10.44c-1.985,2.176-6.341,1.905-9.36,0.72
		c-1.86-0.221,0.564-0.989,0-2.16c-1.186-1.334-2.863-2.177-4.68-2.88c-2.052,0.828-2.784,2.976-3.6,5.04
		c-2.537,0.567-5.492,0.179-7.56-0.72c-2.224-3.745,1.673-6.797,4.68-6.48c-2.757-2.89-6.515,1.187-6.84,3.24
		c-1.1,6.941,6.229,7.236,12.6,6.84c-0.169,5.377-2.614,9.903-2.16,14.76c-5.855-3.455-12.819,0.865-17.64,3.6
		c-0.931,2.654,2.035,2.246,3.96,3.24c3.442,1.777,7.043,5.283,14.04,3.24c-0.001,2.77,1.388,5.556,1.44,8.28
		c0.137,7.212-5.908,17.367-10.8,18c-7.644,0.99-14.048-2.19-18.72-4.68c-7.699-8.743-8.955-21.383-9.72-37.08
		c-0.222-4.545,0.256-9.295,0.72-13.68c1.523-14.415,2.777-29.092,5.04-41.76c5.634,1.992,10.684,7.781,17.64,8.64
		c3.218,0.397,6.171-1.115,9.36,0c-2.642,2.398-5.854,4.225-10.44,4.68c-0.61,0.852-0.627,2.039-0.36,2.88
		c1.48,0.04,0.478-2.402,1.8-2.52c8.139,1.425,13.266-5.764,16.2-11.88c-4.123-4.239-10.442-9.789-17.64-9.72
		c-6.661,0.064-10.874,5.156-16.2,7.2c2.37-10.501,3.125-15.72,11.16-19.44c4.937-2.286,13.08-2.545,18.72-2.16
		C126.447,44.487,129.406,46.066,131.777,43.54z M104.057,81.341c-0.054,0.894,0.186,1.494,0.72,1.8
		c0.199-0.641,0.185-1.495,0.72-1.8c0.847,0.113,0.214,1.706,1.44,1.44c-0.212-1.292,0.419-1.742,0.72-2.52
		C106.288,80.452,105.661,81.385,104.057,81.341z M96.856,130.301c-1.144,9.323,1.347,15.46,7.56,18.36
		c-6.805-9.108-4.193-21.669,0-31.68c-0.514-0.086-0.607-0.593-1.08-0.72C102.217,121.229,97.652,123.818,96.856,130.301z"/>
	<path fill-rule="evenodd" fill="#9A9B9D" d="M25.952,169.279c-4.072,0.527-8.611,0.502-11.52-1.08
		c-0.655-1.6-0.767-3.025,0.36-4.32c2.985,1.241,3.293-0.94,6.12,0C23.934,160.536,28.411,165.994,25.952,169.279z"/>
	<path fill-rule="evenodd" fill="#9A9B9D" d="M215.872,163.159c5.18,6.613-12.07,11.273-10.439,1.44
		c0.627-1.269,3.18-2.181,3.961-0.36c1.328-0.56,2.609-1.673,3.6,0C214.341,164.267,214.081,162.687,215.872,163.159z"/>
	<path fill-rule="evenodd" fill="#9A9B9D" d="M211.352,183.679c1.131,0.17,0.951-0.969,1.801-1.08c0.9-0.061,1.127,0.553,1.439,1.08
		c2.314-2.326,6.588-0.125,6.119,3.6c-3.166,1.409-8.793,2.058-12.6,0.72C205.452,185.701,208.749,180.258,211.352,183.679z"/>
	<path fill-rule="evenodd" fill="#9A9B9D" d="M20.032,191.239c0.694-0.146,0.285-1.395,1.44-1.079
		c5.034,4.969-2.097,8.396-8.28,7.56c-1.634-1.477-0.743-3.9-0.72-6.481C14.875,189.63,18.033,189.356,20.032,191.239z"/>
	<path fill-rule="evenodd" fill="#9A9B9D" d="M214.712,209.599c0.791-0.409,1.197-1.204,2.16-1.44
		c8.068,5.014-4.812,8.291-10.799,6.12c0.049-2.958-0.928-5.169,1.439-6.12c1.687-0.368,2.047,0.592,2.881,1.079
		C211.735,207.22,213.456,208.049,214.712,209.599z"/>
	<path fill-rule="evenodd" fill="#9A9B9D" d="M25.232,210.319c1.518,1.869,3.437,3.496,2.52,6.84
		c-5.316,3.552-16.13-1.995-9.72-6.84C21.435,211.308,21.69,209.986,25.232,210.319z"/>
	<path fill-rule="evenodd" fill="#9A9B9D" d="M219.792,230.839c0.754-0.927,2.041-1.319,3.961-1.079c0,1.32,0,2.64,0,3.96
		c-2.111,3.984-13.015,4.68-15.84,0.72c-0.154-1.954,1.201-2.398,1.439-3.96C213.263,232.362,217.155,227.673,219.792,230.839z"/>
	<path fill-rule="evenodd" fill="#9A9B9D" d="M118.122,227.482c0.949-0.251,0.762-1.639,1.8-1.8c1.041,0.159,1.642,0.759,1.801,1.8
		c1.001-0.679,1.198-2.161,3.239-1.8c1.733,0.667,2.601,2.2,3.601,3.6c-1.605,3.73-14.724,5.781-15.84,0.72
		C112.04,226.91,115.719,223.292,118.122,227.482z"/>
	<path fill-rule="evenodd" fill="#9A9B9D" d="M92.912,238.759c0.682,8.567-18.716,6.258-14.4-1.8
		C83.174,237.035,89.397,233.447,92.912,238.759z"/>
	<path fill-rule="evenodd" fill="#9A9B9D" d="M10.472,237.679c1.788-0.108,2.909,0.451,3.6,1.439c0.915-0.164,0.604-1.556,1.44-1.8
		c1.729-0.168,2.364,0.757,3.24,1.441c2.338-4.347,8.039,0.274,5.04,4.319C19.359,246.089,7.404,244.837,10.472,237.679z"/>
	<path fill-rule="evenodd" fill="#9A9B9D" d="M91.472,258.919c0.633-0.328,0.659-1.262,1.08-1.801
		c5.404-0.039,5.979,3.287,5.76,8.28c-5.641,2.113-16.623,0.324-15.839-5.399c0.57-4.163,4.592-1.644,7.2-2.52
		C90.253,257.978,90.812,258.499,91.472,258.919z"/>
	<path fill-rule="evenodd" fill="#9A9B9D" d="M216.032,260.719c2.307,0.814,4.311,1.93,3.961,5.4
		c-4.945,2.087-17.096,1.294-11.519-4.681c2.678,1.889,3.596-2.113,5.398,0.36C214.946,261.793,215.097,260.863,216.032,260.719z"/>
	<path fill-rule="evenodd" fill="#9A9B9D" d="M16.432,264.319c1.509,0.069,1.113-1.767,2.88-1.439c4.75,4.649-1.462,10.966-9,9
		c-2.717-1.415-3.122-8.35,0-9c1.776-0.371,1.158,1.398,2.52,1.439C13.386,264.336,15.896,261.657,16.432,264.319z"/>
	<path fill-rule="evenodd" fill="#9A9B9D" d="M84.832,283.039c0.872,0.808,1.917,1.442,2.52,2.52c1.017-0.304,0.992-1.648,2.16-1.8
		c7.205,5.879-3.34,11.335-10.8,10.439c-3.555-3.261-3.706-11.484,0.72-11.519C82.119,282.658,82.201,286.316,84.832,283.039z"/>
	<path fill-rule="evenodd" fill="#9A9B9D" d="M15.512,290.959c2.057,1.594,3.271-0.279,5.4,1.08c0.739-0.101,0.718-0.962,1.08-1.44
		C31.985,298.249,7.279,300.476,15.512,290.959z"/>
	<path fill-rule="evenodd" fill="#9A9B9D" d="M83.552,311.119c0.512-0.689,1.112-1.289,1.8-1.801
		c1.723,1.343,2.288,0.034,3.96-0.359c5.241,3.289-0.82,10.185-5.76,9c-2.409-0.578-2.133-3.743-4.68-4.681
		C77.485,308.745,82.899,307.632,83.552,311.119z"/>
	<path fill-rule="evenodd" fill="#9A9B9D" d="M20.912,312.919c2.369,0.996,3.218,3.096,5.04,0.359
		c1.576,0.733,2.727,1.151,4.32,1.08c0.512,1.613-0.971,3.082,0,3.96c-3.614,4.692-19.513,1.637-13.32-5.399
		c0.757,0.322,1.601,0.56,2.16,1.08C19.919,313.846,20.26,313.227,20.912,312.919z"/>
	<path fill-rule="evenodd" fill="#9A9B9D" d="M207.032,317.959c-0.394,4.765-6.885,3.435-11.519,3.96
		c-0.947-0.938-2.012-2.563-1.08-4.32C198.761,316.899,204.255,315.293,207.032,317.959z"/>
	<path fill-rule="evenodd" fill="#9A9B9D" d="M119.712,327.119c-1.107-1.723-0.696-3.987,0.72-5.04
		c1.217-0.137,1.536,0.624,2.16,1.08c1.392-0.049,1.42-1.461,2.521-1.801c1.824-0.267,2.121,2.123,2.88,2.16
		c0.997,0.05,5.765-5.69,6.479,0C135.174,329.109,125.457,329.435,119.712,327.119z"/>
	<path fill-rule="evenodd" fill="#9A9B9D" d="M97.792,318.119c2.33,0.169,3.317,0.494,4.68-0.721c2.826,1.346,5.878-1.758,6.12,2.16
		C108.975,325.76,93.549,324.332,97.792,318.119z"/>
	<path fill-rule="evenodd" fill="#9A9B9D" d="M78.872,329.839c0.295,4.581-3.849,6.486-7.92,5.76c-1.704-0.304-2.584-2.465-4.32-1.8
		c-0.734-1.559-0.328-3.843,0.72-4.68c2.146-0.346,2.932,0.667,3.96,1.439c0.925-0.034,0.515-1.405,1.44-1.439
		c1.056,0.024,1.337,0.822,1.8,1.439C75.464,328.81,77.567,327.493,78.872,329.839z"/>
	<path fill-rule="evenodd" fill="#9A9B9D" d="M36.392,335.028c1.368-0.071,1.366-1.514,2.88-1.439c1.237,0.082,1.569,1.071,1.8,2.16
		c1.519-0.402,1.911-1.93,4.32-1.44c5.067,7.837-14.481,6.702-14.04,1.44C31.586,332.955,34.766,333.065,36.392,335.028z"/>
	<path fill-rule="evenodd" fill="#9A9B9D" d="M159.273,343.119c0.73-1.039,2.615-1.543,3.24,0c1.367-0.072,1.365-1.515,2.881-1.44
		c1.17,1.211,0.666,3.687-0.361,4.68c-3.586,0.653-9.792,0.856-9.719-2.52C155.341,342.532,157.863,340.361,159.273,343.119z"/>
	<path fill-rule="evenodd" fill="#9A9B9D" d="M185.552,344.559c0.883-0.689,1.9-1.459,3.24-0.72c0.303,0.897,0.473,1.929,0.361,3.24
		c-3.27,2.429-10.943,2.182-15.121,0.72c-0.195-1.995,0.067-3.535,1.44-3.96c2.207,1.958,3.691-1.152,5.762,1.08
		C182.71,344.16,184.257,342.639,185.552,344.559z"/>
	<path fill-rule="evenodd" fill="#9A9B9D" d="M104.792,367.28c1.878-3.404,7.325-0.176,5.4,3.6c-1.877,3.68-18.242,5.365-22.681,1.8
		c-1.238-2.248-0.493-5.111,1.8-5.76c1.826-0.146,2.104,1.257,3.24,1.8c1.13-0.551,1.104-2.257,2.521-2.52
		c2.244-0.085,2.748,1.571,3.6,2.88C99.885,367.48,103.353,363.295,104.792,367.28z"/>
	<path fill-rule="evenodd" fill="#9A9B9D" d="M105.552,394.639c-0.213-3.933,1.862-5.578,4.32-6.84
		c1.136,0.064,2.147,0.253,2.16,1.44c2.02-0.892,2.123-2.101,3.96-2.16c1.566-0.052,1.396,1.646,2.519,1.8
		c1.696,0.232,1.848-2.542,3.96-1.8c1.176,0.505,2.388,0.973,2.881,2.16c2.834-5.557,9.147,0.752,8.279,5.04
		C132.027,402.213,110.83,397.401,105.552,394.639z"/>
	<path fill-rule="evenodd" fill="#9A9B9D" d="M108.392,413.36c8.715,11.965-30.329,14.47-19.439,0.72
		c1.483,0.196,2.176,1.185,2.88,2.16c0.867-0.573,1.192-1.688,2.16-2.16c1.709,0.33,3.159,0.92,3.6,2.52
		c1.267-0.414,1.318-2.041,2.521-2.52c1.595,0.085,2.57,0.789,2.88,2.16C105.108,415.595,104.935,412.661,108.392,413.36z"/>
	<path fill-rule="evenodd" fill="#9A9B9D" d="M104.072,449.719c-0.729-1.161-1.808-3.847-0.36-5.04
		c1.526-0.086,2.852,0.028,3.24,1.08c0.908-2.518,4.93-1.303,5.76,0.36c1.099-0.462,0.964-2.157,2.521-2.16
		c1.874-0.074,2.684,0.916,3.24,2.16c1.373-0.427,1.147-2.454,2.52-2.88c2.004-0.204,2.346,1.254,3.24,2.16
		c1.023-3.551,7.05-3.791,6.479,0.72C130.047,451.381,109.88,453.404,104.072,449.719z"/>
	<path fill-rule="evenodd" fill="#9A9B9D" d="M92.912,475.639c1.017-0.303,0.992-1.647,2.16-1.8c1.471,0.329,2.496,1.103,2.88,2.52
		c1.567-0.232,1.727-1.872,3.24-2.16c1.698-0.019,1.84,1.521,2.88,2.16c0.804-1.838,3.897-3.568,6.12-1.801
		c0.228,8.969-21.996,10.379-21.601,2.16C88.718,474.114,91.568,472.519,92.912,475.639z"/>
	<path fill-rule="evenodd" fill="#9A9B9D" d="M126.079,492.598c1.415-0.146,1.538-1.582,2.88-1.8c1.218-0.018,1.562,0.838,2.16,1.44
		c1.512-0.837,3.035-2.103,5.04-1.44c2.104,10.042-16.606,9.16-24.479,6.48c-1.308-1.718-1.752-4.081-0.36-6.12
		c2.043-0.243,3.063,0.536,3.6,1.8c1.583,0.143,0.94-1.941,2.16-2.16c1.778,0.143,2.858,0.982,3.601,2.16
		C121.538,490.283,124.897,489.835,126.079,492.598z"/>
	<path fill-rule="evenodd" fill="#9A9B9D" d="M109.472,512.679c1.163,0.908,1.985,3.152,1.08,5.04
		c-6.791,3.362-19.816,5.944-26.64,1.08c-0.669-1.851-1.004-3.723,0.36-5.399c2.424-0.385,3.036,1.044,4.32,1.8
		c0.78-0.54,0.839-1.802,2.16-1.8c1.466,0.334,2.598,1.002,3.24,2.16c1.032-0.648,1.488-1.872,2.88-2.16
		c1.281-0.081,2.157,0.242,2.52,1.08c1.306-1.239,4.295-2.237,5.761-0.36C106.327,513.374,107.273,512.4,109.472,512.679z"/>
</g>
</svg>
