<?xml version="1.0" encoding="iso-8859-1"?>
<!-- Generator: Adobe Illustrator 21.0.0, SVG Export Plug-In . SVG Version: 6.00 Build 0)  -->
<svg version="1.2" baseProfile="tiny" id="Layer_1" xmlns="http://www.w3.org/2000/svg" xmlns:xlink="http://www.w3.org/1999/xlink"
	 x="0px" y="0px" viewBox="0 0 54.386 49.551" xml:space="preserve">
<g>
	<path fill="#BFBFBF" d="M31.539,0.002c-3.244,0.048-4.467,1.395-5.368,2.644c-2.513,3.485,0.218,9.94-3.646,12.095
		c-1.432,0.798-3.285,0.321-4.606-0.65s-2.26-2.358-3.317-3.61c-2.21-2.617-5.028-4.718-8.166-6.09
		C5.542,8.662,6.631,13.307,9.33,16.737c-2.279-0.225-4.559-0.45-6.838-0.676c1.132,2.39,2.721,4.561,4.657,6.362
		c-0.256,1.074-1.053,2.004-2.075,2.42c0.962,0.877,1.924,1.753,2.885,2.63c-0.026,1.162,0.726,2.303,1.804,2.736
		c-2.249,0.402-4.498,0.804-6.747,1.205c-0.544,0.097-1.1,0.198-1.583,0.466c-1.355,0.748-1.732,2.636-1.202,4.091
		s1.738,2.548,2.972,3.483c6.992,5.297,15.669,9.141,24.397,10.023c4.479,0.453,9.437-1.203,13.534-3.071
		c4.792-2.185,8.1-6.971,9.272-12.105s0.397-10.563-1.351-15.531c-0.223-0.634-0.464-1.324-0.25-1.961
		c0.175-0.52,0.618-0.894,1.036-1.249c2.899-2.467,5.661-6.327,4.089-9.794C52.03,1.575,46.961,2.276,43.24,2.324
		C39.032,2.378,36.402-0.071,31.539,0.002z"/>
	<path fill="#FFFFFF" d="M10.787,20.511c0.192-0.172,0.395-0.384,0.597-0.384c0.627-0.02,1.255,0.051,1.882,0.081
		c0.081,0,0.162-0.03,0.233-0.04c-0.051-0.091-0.081-0.223-0.162-0.253c-1.437-0.708-1.902-2.135-2.368-3.46
		c-0.293-0.89-0.587-1.842-0.506-2.833c0.061-0.678,0-1.366,0.03-2.044c0-0.223,0.091-0.465,0.192-0.668
		c0.152-0.283,0.314-0.344,0.557-0.02c0.354,0.455,0.769,0.86,1.164,1.275c1.002,1.042,1.953,2.145,3.025,3.106
		c1.568,1.396,3.369,2.327,5.484,2.631c0.749,0.111,1.447,0.516,2.186,0.698c0.961,0.243,1.933,0.435,2.914,0.577
		c0.405,0.061,0.85-0.03,1.265-0.091c0.263-0.03,0.486-0.637,0.395-1.012c-0.293-1.214-0.718-2.398-0.87-3.622
		c-0.152-1.194-0.101-2.428-0.01-3.643c0.061-0.82,0.233-1.68,0.567-2.439c0.688-1.599,1.912-2.671,3.622-3.157
		c0.931-0.273,1.821-0.688,2.762-0.901c0.658-0.152,1.366-0.121,2.054-0.081c0.789,0.051,1.599,0.101,2.347,0.314
		c1.214,0.334,2.53,0.445,3.531,1.356c0.283,0.263,0.678,0.405,0.971,0.658c0.678,0.567,1.417,0.283,1.963-0.051
		c0.921-0.557,1.922-1.012,2.712-1.801c0.415-0.435,1.133-0.476,1.498,0.061c0.03,0.051,0.101,0.111,0.101,0.162
		c-0.02,0.87,0.395,1.73,0.101,2.6c-0.101,0.293-0.293,0.557-0.435,0.83c-0.03,0.051-0.04,0.111-0.051,0.172
		c0.071-0.01,0.152,0.01,0.202-0.03c0.223-0.172,0.425-0.354,0.637-0.536c0.324-0.273,0.617-0.587,0.981-0.799
		c0.476-0.283,0.911,0.01,0.88,0.557c-0.02,0.496-0.081,0.992-0.081,1.487c0,0.506-0.142,0.931-0.486,1.315
		c-0.192,0.223-0.374,0.496-0.455,0.769c-0.212,0.759-0.89,1.103-1.366,1.629c-1.062,1.153-2.459,1.75-3.865,2.347
		c-0.152,0.061-0.293,0.354-0.293,0.536c0.02,1.518,0.182,3.025,0.617,4.493c0.192,0.668,0.283,1.376,0.374,2.074
		c0.132,1.042,0.304,2.105,0.283,3.157c-0.02,1.467-0.03,2.934-0.445,4.391c-0.314,1.123-0.263,2.337-0.455,3.511
		c-0.091,0.597-0.304,1.184-0.546,1.74c-0.385,0.901-0.789,1.811-1.275,2.651c-0.374,0.658-0.87,1.245-1.366,1.811
		c-1.073,1.245-2.155,2.489-3.288,3.683c-0.314,0.324-0.789,0.506-1.204,0.718c-0.698,0.354-1.376,0.779-2.125,0.981
		c-0.981,0.263-2.014,0.364-3.036,0.476c-1.012,0.111-2.034,0.192-3.056,0.202c-1.406,0-2.793-0.182-4.169-0.567
		c-1.538-0.435-3.127-0.688-4.685-1.042c-1.234-0.293-2.459-0.607-3.673-1.012c-1.842-0.627-3.42-1.649-4.887-2.843
		c-0.789-0.648-1.386-1.528-2.196-2.135c-1.002-0.749-1.72-1.67-2.277-2.742c-0.091-0.172-0.111-0.516,0-0.627
		c0.111-0.111,0.435-0.091,0.627-0.02c1.032,0.334,2.054,0.678,3.157,0.678c0.567,0,1.133,0.051,1.69-0.01
		c1.417-0.142,2.833-0.273,4.24-0.516c1.042-0.182,2.084-0.476,3.096-0.809c0.84-0.273,1.629-0.668,2.095-1.508
		c0.101-0.182,0.304-0.304,0.445-0.465c0.081-0.091,0.132-0.212,0.192-0.314c-0.111-0.04-0.223-0.121-0.324-0.111
		c-0.476,0.051-0.951,0.162-1.427,0.182c-1.487,0.081-2.904-0.253-4.31-0.718c-0.961-0.314-1.842-0.769-2.691-1.295
		c-0.445-0.283-0.87-0.587-1.295-0.89c-0.071-0.051-0.111-0.121-0.172-0.172c0.121-0.091,0.223-0.202,0.354-0.253
		c0.516-0.182,1.042-0.324,1.558-0.506c0.405-0.152,0.809-0.334,1.204-0.506c0.051-0.03,0.121-0.142,0.111-0.162
		c-0.051-0.061-0.121-0.121-0.192-0.142c-1.012-0.283-1.862-0.86-2.661-1.508c-0.445-0.364-0.83-0.809-1.234-1.224
		c-0.223-0.223-0.111-0.465,0.132-0.496c0.668-0.061,1.346-0.051,2.024-0.081c0.172-0.01,0.344-0.051,0.516-0.071
		c-0.132-0.121-0.233-0.293-0.384-0.354c-0.901-0.344-1.761-0.739-2.428-1.467C11.222,21.574,10.908,21.118,10.787,20.511
		 M20.753,30.731c0.465-0.091,0.951-0.142,1.386-0.293c1.012-0.364,2.003-0.779,3.015-1.164c0.071-0.03,0.283,0.061,0.283,0.101
		c0.02,0.476,0.061,0.961,0,1.427c-0.04,0.314-0.233,0.617-0.395,0.89c-0.415,0.708-0.718,1.568-1.326,2.064
		c-0.799,0.658-1.811,1.113-2.793,1.508c-0.84,0.334-1.761,0.486-2.661,0.668c-1.073,0.223-2.165,0.395-3.258,0.557
		c-0.445,0.071-0.901,0.101-1.366,0.132c-0.557,0.03-1.123,0.061-1.68,0.081c-0.121,0-0.243-0.02-0.364-0.02
		c0.061,0.121,0.101,0.283,0.202,0.364c0.809,0.698,1.568,1.498,2.479,2.054c1.69,1.032,3.41,2.034,5.322,2.641
		c1.336,0.425,2.631,0.992,3.936,1.498c1.083,0.405,2.196,0.577,3.349,0.627c1.457,0.071,2.914,0.223,4.371,0.314
		c0.273,0.01,0.557-0.111,0.82-0.192c0.435-0.132,0.86-0.324,1.305-0.395c1.234-0.202,2.155-0.921,3.025-1.73
		c0.516-0.476,0.951-1.042,1.406-1.589c0.536-0.637,1.113-1.265,1.589-1.963c0.476-0.698,0.88-1.447,1.265-2.206
		c0.486-0.961,0.931-1.943,1.376-2.914c0.212-0.476,0.385-0.961,0.557-1.447c0.233-0.678,0.486-1.356,0.648-2.054
		c0.162-0.678,0.283-1.366,0.304-2.064c0.03-0.88-0.02-1.761-0.091-2.641c-0.061-0.648-0.202-1.295-0.293-1.943
		c-0.111-0.688-0.152-1.386-0.324-2.044c-0.304-1.234-0.304-2.469-0.182-3.724c0.061-0.648,0.132-1.285,0.202-1.933
		c0.121-1.214,0.385-1.477,1.629-1.821c0.637-0.172,1.305-0.314,1.862-0.637c0.911-0.506,1.548-1.315,2.003-2.267
		c0.04-0.101,0.101-0.192,0.162-0.283c-0.111-0.01-0.243-0.061-0.334-0.03c-0.506,0.132-0.992,0.314-1.487,0.445
		c-0.749,0.202-1.498,0.384-2.246,0.546c-0.142,0.03-0.455-0.101-0.455-0.162c0-0.192,0.04-0.465,0.182-0.557
		c0.324-0.243,0.739-0.354,1.052-0.597c0.87-0.648,1.619-1.406,2.044-2.428c0.051-0.121,0.061-0.253,0.101-0.384
		c-0.152,0.04-0.324,0.051-0.445,0.132c-0.607,0.415-1.204,0.85-1.801,1.275c-0.142,0.101-0.283,0.293-0.435,0.293
		c-0.901-0.02-1.771,0.243-2.712-0.061c-1.619-0.506-2.995-1.315-4.189-2.499c-0.223-0.223-0.526-0.405-0.83-0.536
		c-0.951-0.405-1.973-0.557-2.955-0.304c-0.769,0.182-1.498,0.557-2.175,0.961c-0.617,0.374-1.265,0.82-1.68,1.386
		c-0.617,0.85-1.012,1.821-0.971,2.934c0.03,0.698-0.02,1.406-0.101,2.105c-0.04,0.324-0.162,0.627-0.051,0.971
		c0.233,0.708,0.546,1.417,0.648,2.155c0.132,0.971,0.152,1.983,0.111,2.975c-0.04,1.062-1.214,2.095-2.297,2.054
		c-1.245-0.051-2.499-0.111-3.713-0.324c-0.809-0.132-1.609-0.344-2.337-0.85c-0.597-0.425-1.336-0.648-2.024-0.941
		c-1.052-0.435-2.135-0.799-3.167-1.275c-1.346-0.627-2.398-1.659-3.481-2.651c-0.111-0.101-0.273-0.152-0.415-0.223
		c0,0.172-0.051,0.364,0.01,0.506c0.364,0.911,0.769,1.801,1.143,2.712c0.445,1.032,1.123,1.791,2.267,2.054
		c0.182,0.051,0.465,0.334,0.445,0.415c-0.081,0.223-0.304,0.395-0.465,0.587c-0.02,0.01-0.071,0-0.101,0c-0.516,0-1.022,0-1.538,0
		c-0.455,0-0.921-0.01-1.376,0c-0.121,0.01-0.223,0.071-0.334,0.101c0.061,0.101,0.101,0.233,0.192,0.293
		c0.172,0.132,0.384,0.212,0.567,0.324c0.729,0.445,1.417,0.921,2.277,1.123c0.567,0.132,1.103,0.425,1.619,0.708
		c0.132,0.061,0.243,0.445,0.172,0.526c-0.253,0.314-0.465,0.749-1.012,0.668c-0.627-0.081-1.265-0.142-1.892-0.192
		c-0.121-0.01-0.243,0.061-0.364,0.091c0.051,0.081,0.091,0.202,0.162,0.243c0.354,0.233,0.729,0.435,1.093,0.668
		c0.931,0.607,1.933,1.002,3.066,1.032c0.202,0,0.506,0.233,0.567,0.415c0.091,0.293,0.111,0.658-0.344,0.799
		c-0.476,0.142-0.931,0.334-1.406,0.496c-0.627,0.202-1.255,0.395-1.882,0.597c-0.071,0.03-0.182,0.121-0.172,0.142
		c0.03,0.091,0.091,0.223,0.172,0.253c0.708,0.273,1.437,0.526,2.155,0.779C18.436,30.468,19.509,30.741,20.753,30.731"/>
</g>
</svg>
