<?xml version="1.0" encoding="iso-8859-1"?>
<!-- Generator: Adobe Illustrator 21.0.0, SVG Export Plug-In . SVG Version: 6.00 Build 0)  -->
<svg version="1.2" baseProfile="tiny" id="Layer_1" xmlns="http://www.w3.org/2000/svg" xmlns:xlink="http://www.w3.org/1999/xlink"
	 x="0px" y="0px" viewBox="0 0 117.245 93.118" xml:space="preserve">
<path fill="#FFFFFF" d="M2.168,0c-0.179,0.782-0.4,1.574-0.678,2.379C0.612,4.916,0.477,7.709,0,10.385
	c1.046,2.925,2.091,5.85,3.136,8.773c0,0,0,0.001,0,0.001c0.003,1.507,0.006,3.013,0.009,4.52c-0.462,0.342-0.45,0.68,0.014,1.012
	c-0.001,1.51-0.002,3.019-0.002,4.528c-1.794,2.106,1.002,2.788,1.317,4.24l0.001,0C3.29,40.077,5.92,56.534,1.864,62.141
	l0.018,0.006c-0.04,6.93-0.08,13.86-0.12,20.791c0.063,0.637,0.126,1.274,0.189,1.911c-0.054,0.459-0.108,0.917-0.161,1.376
	c1.377,0.101,2.096,0.863,2.225,2.218c0.69,0.006,1.379,0.011,2.069,0.016c2.925-0.274,4.802,1.571,6.726,3.325
	c1.812,0.109,3.77-0.194,5.41,0.394c9.217,3.302,19.441-3.483,28.46,0.779c6.248-3.985,12.466-7.136,18.688-5.572
	c2.277,0.546,5.427-1.662,6.677,2.119c0.059,0,0.118,0,0.177,0v0.359c11.885,0.691,2.701-1.768,14.62-1.263
	c0.597,0.025,5.733,1.536,7.418-0.149c0.017-0.064,0.034-0.111,0.051-0.172c1.488-0.054,3.016-0.519,4.24,2.12
	c1.086-0.006,2.171-0.012,3.256-0.017c0.004-0.559,0.008-1.118,0.012-1.677c4.567,0.063,5.981-5.015,9.923-6.113
	c1.066-0.297,1.946-1.47,3.267-1.532c0.668-2.508,1.414-5.005,1.134-7.654c-2.182-24.59-3.06-32.372,0.211-55.876
	c0.1-0.718,0.886-8.524,0.89-9.249c-0.551-2.76-1.986-5.519-2.541-8.279H2.168z"/>
</svg>
