<?xml version="1.0" encoding="utf-8"?>
<!-- Generator: Adobe Illustrator 21.0.0, SVG Export Plug-In . SVG Version: 6.00 Build 0)  -->
<svg version="1.2" baseProfile="tiny" id="Layer_1" xmlns="http://www.w3.org/2000/svg" xmlns:xlink="http://www.w3.org/1999/xlink"
	 x="0px" y="0px" viewBox="0 0 117.2 93.1" xml:space="preserve">
<g>
	<path fill="#D3BCA1" d="M2.2,0C2,0.8,1.8,1.6,1.5,2.4c-0.9,2.5-1,5.3-1.5,8c1,2.9,2.1,5.8,3.1,8.8c0,0,0,0,0,0c0,1.5,0,3,0,4.5
		c-0.5,0.3-0.5,0.7,0,1c0,1.5,0,3,0,4.5c-1.8,2.1,1,2.8,1.3,4.2l0,0c-1.2,6.6,1.4,23.1-2.6,28.7l0,0c0,6.9-0.1,13.9-0.1,20.8
		c0.1,0.6,0.1,1.3,0.2,1.9c-0.1,0.5-0.1,0.9-0.2,1.4c1.4,0.1,2.1,0.9,2.2,2.2c0.7,0,1.4,0,2.1,0c2.9-0.3,4.8,1.6,6.7,3.3
		c1.8,0.1,3.8-0.2,5.4,0.4c9.2,3.3,19.4-3.5,28.5,0.8c6.2-4,12.5-7.1,18.7-5.6c2.3,0.5,5.4-1.7,6.7,2.1c0.1,0,0.1,0,0.2,0v0.4
		c11.9,0.7,2.7-1.8,14.6-1.3c0.6,0,5.7,1.5,7.4-0.1c0-0.1,0-0.1,0.1-0.2c1.5-0.1,3-0.5,4.2,2.1c1.1,0,2.2,0,3.3,0c0-0.6,0-1.1,0-1.7
		c4.6,0.1,6-5,9.9-6.1c1.1-0.3,1.9-1.5,3.3-1.5c0.7-2.5,1.4-5,1.1-7.7c-2.2-24.6-3.1-32.4,0.2-55.9c0.1-0.7,0.9-8.5,0.9-9.2
		c-0.6-2.8-2-5.5-2.5-8.3H2.2z"/>
	<g>
		<path fill="#FFFFFF" d="M99.4,66.2C99.4,71,89.2,71,77,71l-11.2-1.4c-7.5,0-15,0.5-24.2,1.5h-4.3c-1.1,0-2.2,0.1-3.3,0.2
			c-2.7,0.4-5.8,0.6-9.4,0.6c-2.1,0-5.8-0.5-5.8-4.2c0-4.8,4-5.1,6.9-5.1h9.3c4.9-0.5,18.2-1.4,25.7-1.4c2.6,0,5.6,0.1,8.8,0.4
			c4.1,0.4,8.8,0.7,14,0.7c1.6,0,3.2-0.2,5.1-0.4c2.1-0.2,4.7-0.4,6.8-0.4C97.6,61.8,99.4,64.1,99.4,66.2z"/>
	</g>
	<g>
		<path fill="#FFFFFF" d="M99.4,44.7c0,4.8-10.1,4.8-22.4,4.8l-11.2-1.4c-7.5,0-15,0.5-24.2,1.5h-4.3c-1.1,0-2.2,0.1-3.3,0.2
			c-2.7,0.4-5.8,0.6-9.4,0.6c-2.1,0-5.8-0.5-5.8-4.2c0-4.8,4-5.1,6.9-5.1h9.3c4.9-0.5,18.2-1.4,25.7-1.4c2.6,0,5.6,0.1,8.8,0.4
			c4.1,0.4,8.8,0.7,14,0.7c1.6,0,3.2-0.2,5.1-0.4c2.1-0.2,4.7-0.4,6.8-0.4C97.6,40.3,99.4,42.6,99.4,44.7z"/>
	</g>
	<g>
		<path fill="#FFFFFF" d="M99.4,23.2C99.4,28,89.2,28,77,28l-11.2-1.4c-7.5,0-15,0.5-24.2,1.5h-4.3c-1.1,0-2.2,0.1-3.3,0.2
			c-2.7,0.4-5.8,0.6-9.4,0.6c-2.1,0-5.8-0.5-5.8-4.2c0-4.8,4-5.1,6.9-5.1h9.3c4.9-0.5,18.2-1.4,25.7-1.4c2.6,0,5.6,0.1,8.8,0.4
			c4.1,0.4,8.8,0.7,14,0.7c1.6,0,3.2-0.2,5.1-0.4c2.1-0.2,4.7-0.4,6.8-0.4C97.6,18.8,99.4,21.1,99.4,23.2z"/>
	</g>
</g>
</svg>
